<svg xmlns="http://www.w3.org/2000/svg" xmlns:xlink="http://www.w3.org/1999/xlink" width="350" zoomAndPan="magnify" viewBox="0 0 262.5 374.999991" height="500" preserveAspectRatio="xMidYMid meet" version="1.0"><defs><clipPath id="id1"><path d="M 14.910156 0.355469 L 247.410156 0.355469 L 247.410156 374.640625 L 14.910156 374.640625 Z M 14.910156 0.355469 " clip-rule="nonzero"/></clipPath><clipPath id="id2"><path d="M 14.910156 0.359375 L 247.410156 0.359375 L 247.410156 374.640625 L 14.910156 374.640625 Z M 14.910156 0.359375 " clip-rule="nonzero"/></clipPath><clipPath id="id3"><path d="M 247.410156 14.609375 L 247.410156 361.09375 C 247.410156 368.964844 241.027344 375.34375 233.152344 375.34375 L 29.171875 375.34375 C 21.296875 375.34375 14.910156 368.964844 14.910156 361.09375 L 14.910156 14.609375 C 14.910156 6.738281 21.296875 0.359375 29.171875 0.359375 L 233.152344 0.359375 C 241.027344 0.359375 247.410156 6.738281 247.410156 14.609375 " clip-rule="nonzero"/></clipPath><clipPath id="id4"><path d="M 33.644531 23.023438 L 228.644531 23.023438 L 228.644531 353.023438 L 33.644531 353.023438 Z M 33.644531 23.023438 " clip-rule="nonzero"/></clipPath><clipPath id="id5"><path d="M 33.644531 23.023438 L 228.644531 23.023438 L 228.644531 353.023438 L 33.644531 353.023438 Z M 33.644531 23.023438 " clip-rule="nonzero"/></clipPath><clipPath id="id6"><path d="M 228.644531 37.289062 L 228.644531 338.753906 C 228.644531 346.632812 222.257812 353.019531 214.382812 353.019531 L 47.910156 353.019531 C 40.03125 353.019531 33.644531 346.632812 33.644531 338.753906 L 33.644531 37.289062 C 33.644531 29.410156 40.03125 23.023438 47.910156 23.023438 L 214.382812 23.023438 C 222.257812 23.023438 228.644531 29.410156 228.644531 37.289062 " clip-rule="nonzero"/></clipPath><clipPath id="id7"><path d="M 56.191406 122.273438 L 206.191406 122.273438 L 206.191406 253.523438 L 56.191406 253.523438 Z M 56.191406 122.273438 " clip-rule="nonzero"/></clipPath></defs><g clip-path="url(#id1)"><path fill="#053d57" d="M 247.410156 14.609375 L 247.410156 361.09375 C 247.410156 368.964844 241.027344 375.34375 233.152344 375.34375 L 29.171875 375.34375 C 21.296875 375.34375 14.910156 368.964844 14.910156 361.09375 L 14.910156 14.609375 C 14.910156 6.738281 21.296875 0.359375 29.171875 0.359375 L 233.152344 0.359375 C 241.027344 0.359375 247.410156 6.738281 247.410156 14.609375 " fill-opacity="1" fill-rule="nonzero"/></g><g clip-path="url(#id2)"><g clip-path="url(#id3)"><path stroke-linecap="butt" transform="matrix(0.000000000000000046, 0.75, -0.750567, 0.000000000000000046, 247.412078, 0.359462)" fill="none" stroke-linejoin="miter" d="M 18.999886 0.00256062 L 480.979114 0.00256062 C 491.473907 0.00256062 499.979116 8.506543 499.979116 18.998605 L 499.979116 290.766952 C 499.979116 301.259014 491.473907 309.768201 480.979114 309.768201 L 18.999886 309.768201 C 8.505093 309.768201 -0.00011601 301.259014 -0.00011601 290.766952 L -0.00011601 18.998605 C -0.00011601 8.506543 8.505093 0.00256062 18.999886 0.00256062 " stroke="#000000" stroke-width="2" stroke-opacity="1" stroke-miterlimit="4"/></g></g><g clip-path="url(#id4)"><path fill="#f2f1ef" d="M 228.644531 37.289062 L 228.644531 338.753906 C 228.644531 346.632812 222.257812 353.019531 214.382812 353.019531 L 47.910156 353.019531 C 40.03125 353.019531 33.644531 346.632812 33.644531 338.753906 L 33.644531 37.289062 C 33.644531 29.410156 40.03125 23.023438 47.910156 23.023438 L 214.382812 23.023438 C 222.257812 23.023438 228.644531 29.410156 228.644531 37.289062 " fill-opacity="1" fill-rule="nonzero"/></g><g clip-path="url(#id5)"><g clip-path="url(#id6)"><path stroke-linecap="butt" transform="matrix(0.000000000000000046, 0.750773, -0.750767, 0.000000000000000046, 228.645807, 23.024733)" fill="none" stroke-linejoin="miter" d="M 18.999523 0.00169877 L 420.53878 0.00169877 C 431.033172 0.00169877 439.540029 8.508625 439.540029 18.997899 L 439.540029 240.734701 C 439.540029 251.229178 431.033172 259.736105 420.53878 259.736105 L 18.999523 259.736105 C 8.505132 259.736105 -0.00172525 251.229178 -0.00172525 240.734701 L -0.00172525 18.997899 C -0.00172525 8.508625 8.505132 0.00169877 18.999523 0.00169877 " stroke="#fd7702" stroke-width="4" stroke-opacity="1" stroke-miterlimit="4"/></g></g><g clip-path="url(#id7)"><path fill="#100f0d" d="M 67.101562 245.328125 L 67.101562 194.257812 C 68.410156 194.628906 69.792969 194.839844 71.222656 194.839844 L 119.90625 194.839844 L 119.90625 207.9375 C 119.90625 209.4375 121.121094 210.652344 122.621094 210.652344 L 139.765625 210.652344 C 141.261719 210.652344 142.476562 209.4375 142.476562 207.9375 L 142.476562 194.839844 L 191.160156 194.839844 C 192.59375 194.839844 193.972656 194.628906 195.285156 194.257812 L 195.285156 245.328125 Z M 137.054688 194.839844 L 137.054688 205.222656 L 125.332031 205.222656 L 125.332031 181.746094 L 137.054688 181.746094 Z M 64.320312 153.464844 L 198.0625 153.464844 L 198.0625 179.933594 C 198.0625 180.191406 198.046875 180.445312 198.015625 180.695312 C 198.007812 180.769531 197.992188 180.84375 197.980469 180.917969 C 197.953125 181.097656 197.925781 181.273438 197.882812 181.445312 C 197.867188 181.523438 197.84375 181.597656 197.824219 181.675781 C 197.773438 181.847656 197.722656 182.015625 197.660156 182.183594 C 197.640625 182.246094 197.617188 182.308594 197.589844 182.375 C 197.515625 182.566406 197.429688 182.753906 197.335938 182.9375 C 197.320312 182.96875 197.304688 183 197.289062 183.03125 C 196.804688 183.941406 196.117188 184.734375 195.285156 185.34375 C 194.132812 186.1875 192.707031 186.695312 191.160156 186.695312 L 142.476562 186.695312 L 142.476562 179.03125 C 142.476562 177.53125 141.261719 176.316406 139.765625 176.316406 L 122.621094 176.316406 C 121.121094 176.316406 119.90625 177.53125 119.90625 179.03125 L 119.90625 186.695312 L 71.222656 186.695312 C 69.675781 186.695312 68.253906 186.1875 67.101562 185.34375 C 66.265625 184.734375 65.578125 183.941406 65.09375 183.03125 C 65.078125 183 65.0625 182.96875 65.046875 182.9375 C 64.957031 182.753906 64.871094 182.566406 64.792969 182.375 C 64.769531 182.308594 64.746094 182.246094 64.722656 182.183594 C 64.660156 182.015625 64.609375 181.847656 64.5625 181.675781 C 64.542969 181.597656 64.519531 181.523438 64.5 181.445312 C 64.460938 181.273438 64.429688 181.097656 64.402344 180.917969 C 64.390625 180.84375 64.375 180.769531 64.367188 180.695312 C 64.339844 180.445312 64.320312 180.191406 64.320312 179.933594 Z M 113.988281 133.152344 L 148.394531 133.152344 L 148.394531 145.320312 L 113.988281 145.320312 Z M 206.199219 149.394531 C 206.199219 147.144531 204.375 145.320312 202.128906 145.320312 L 159.242188 145.320312 L 159.242188 129.53125 C 159.242188 125.539062 155.996094 122.289062 152.007812 122.289062 L 110.375 122.289062 C 106.386719 122.289062 103.144531 125.539062 103.144531 129.53125 L 103.144531 145.320312 L 60.253906 145.320312 C 58.007812 145.320312 56.1875 147.144531 56.1875 149.394531 L 56.1875 179.933594 C 56.1875 183.140625 57.222656 186.101562 58.964844 188.539062 L 58.964844 249.398438 C 58.964844 251.648438 60.785156 253.472656 63.035156 253.472656 L 199.351562 253.472656 C 201.597656 253.472656 203.417969 251.648438 203.417969 249.398438 L 203.417969 188.539062 C 205.160156 186.105469 206.199219 183.140625 206.199219 179.933594 L 206.199219 149.394531 " fill-opacity="1" fill-rule="nonzero"/></g></svg>