<svg xmlns="http://www.w3.org/2000/svg" xmlns:xlink="http://www.w3.org/1999/xlink" width="350" zoomAndPan="magnify" viewBox="0 0 262.5 374.999991" height="500" preserveAspectRatio="xMidYMid meet" version="1.0"><defs><clipPath id="id1"><path d="M 14.910156 0.355469 L 247.410156 0.355469 L 247.410156 374.640625 L 14.910156 374.640625 Z M 14.910156 0.355469 " clip-rule="nonzero"/></clipPath><clipPath id="id2"><path d="M 14.910156 0.359375 L 247.410156 0.359375 L 247.410156 374.640625 L 14.910156 374.640625 Z M 14.910156 0.359375 " clip-rule="nonzero"/></clipPath><clipPath id="id3"><path d="M 247.410156 14.609375 L 247.410156 361.09375 C 247.410156 368.964844 241.027344 375.34375 233.152344 375.34375 L 29.171875 375.34375 C 21.296875 375.34375 14.910156 368.964844 14.910156 361.09375 L 14.910156 14.609375 C 14.910156 6.738281 21.296875 0.359375 29.171875 0.359375 L 233.152344 0.359375 C 241.027344 0.359375 247.410156 6.738281 247.410156 14.609375 " clip-rule="nonzero"/></clipPath><clipPath id="id4"><path d="M 33.644531 23.023438 L 228.644531 23.023438 L 228.644531 353.023438 L 33.644531 353.023438 Z M 33.644531 23.023438 " clip-rule="nonzero"/></clipPath><clipPath id="id5"><path d="M 33.644531 23.023438 L 228.644531 23.023438 L 228.644531 353.023438 L 33.644531 353.023438 Z M 33.644531 23.023438 " clip-rule="nonzero"/></clipPath><clipPath id="id6"><path d="M 228.644531 37.289062 L 228.644531 338.753906 C 228.644531 346.632812 222.257812 353.019531 214.382812 353.019531 L 47.910156 353.019531 C 40.03125 353.019531 33.644531 346.632812 33.644531 338.753906 L 33.644531 37.289062 C 33.644531 29.410156 40.03125 23.023438 47.910156 23.023438 L 214.382812 23.023438 C 222.257812 23.023438 228.644531 29.410156 228.644531 37.289062 " clip-rule="nonzero"/></clipPath><clipPath id="id7"><path d="M 56.257812 115.210938 L 195 115.210938 L 195 204 L 56.257812 204 Z M 56.257812 115.210938 " clip-rule="nonzero"/></clipPath><clipPath id="id8"><path d="M 124 141 L 206.257812 141 L 206.257812 201 L 124 201 Z M 124 141 " clip-rule="nonzero"/></clipPath><clipPath id="id9"><path d="M 62 192 L 192 192 L 192 260.710938 L 62 260.710938 Z M 62 192 " clip-rule="nonzero"/></clipPath></defs><g clip-path="url(#id1)"><path fill="#053d57" d="M 247.410156 14.609375 L 247.410156 361.09375 C 247.410156 368.964844 241.027344 375.34375 233.152344 375.34375 L 29.171875 375.34375 C 21.296875 375.34375 14.910156 368.964844 14.910156 361.09375 L 14.910156 14.609375 C 14.910156 6.738281 21.296875 0.359375 29.171875 0.359375 L 233.152344 0.359375 C 241.027344 0.359375 247.410156 6.738281 247.410156 14.609375 " fill-opacity="1" fill-rule="nonzero"/></g><g clip-path="url(#id2)"><g clip-path="url(#id3)"><path stroke-linecap="butt" transform="matrix(0.000000000000000046, 0.75, -0.750567, 0.000000000000000046, 247.412078, 0.359462)" fill="none" stroke-linejoin="miter" d="M 18.999886 0.00256062 L 480.979114 0.00256062 C 491.473907 0.00256062 499.979116 8.506543 499.979116 18.998605 L 499.979116 290.766952 C 499.979116 301.259014 491.473907 309.768201 480.979114 309.768201 L 18.999886 309.768201 C 8.505093 309.768201 -0.00011601 301.259014 -0.00011601 290.766952 L -0.00011601 18.998605 C -0.00011601 8.506543 8.505093 0.00256062 18.999886 0.00256062 " stroke="#000000" stroke-width="2" stroke-opacity="1" stroke-miterlimit="4"/></g></g><g clip-path="url(#id4)"><path fill="#f2f1ef" d="M 228.644531 37.289062 L 228.644531 338.753906 C 228.644531 346.632812 222.257812 353.019531 214.382812 353.019531 L 47.910156 353.019531 C 40.03125 353.019531 33.644531 346.632812 33.644531 338.753906 L 33.644531 37.289062 C 33.644531 29.410156 40.03125 23.023438 47.910156 23.023438 L 214.382812 23.023438 C 222.257812 23.023438 228.644531 29.410156 228.644531 37.289062 " fill-opacity="1" fill-rule="nonzero"/></g><g clip-path="url(#id5)"><g clip-path="url(#id6)"><path stroke-linecap="butt" transform="matrix(0.000000000000000046, 0.750773, -0.750767, 0.000000000000000046, 228.645807, 23.024733)" fill="none" stroke-linejoin="miter" d="M 18.999523 0.00169877 L 420.53878 0.00169877 C 431.033172 0.00169877 439.540029 8.508625 439.540029 18.997899 L 439.540029 240.734701 C 439.540029 251.229178 431.033172 259.736105 420.53878 259.736105 L 18.999523 259.736105 C 8.505132 259.736105 -0.00172525 251.229178 -0.00172525 240.734701 L -0.00172525 18.997899 C -0.00172525 8.508625 8.505132 0.00169877 18.999523 0.00169877 " stroke="#fd7702" stroke-width="4" stroke-opacity="1" stroke-miterlimit="4"/></g></g><g clip-path="url(#id7)"><path fill="#000000" d="M 178.15625 148.914062 L 128.976562 166.972656 L 65.394531 143.640625 L 128.976562 120.191406 L 181.316406 139.417969 L 194.902344 139.417969 L 129.796875 115.5 C 129.328125 115.265625 128.742188 115.265625 128.15625 115.5 L 57.78125 141.410156 C 56.84375 141.761719 56.257812 142.585938 56.257812 143.640625 C 56.257812 144.695312 56.84375 145.515625 57.78125 145.867188 L 86.703125 156.535156 L 86.703125 184.558594 C 86.703125 185.847656 86.703125 188.195312 104.621094 195.933594 C 108.71875 197.691406 122.417969 203.4375 128.625 203.4375 C 134.949219 203.4375 148.882812 197.691406 152.980469 195.933594 C 171.128906 188.195312 171.128906 185.847656 171.128906 184.558594 L 171.128906 156.535156 L 191.738281 148.914062 C 191.738281 148.914062 178.15625 148.914062 178.15625 148.914062 Z M 166.445312 183.738281 C 162.582031 187.136719 136.117188 198.628906 128.625 198.628906 C 121.363281 198.628906 95.253906 187.136719 91.386719 183.738281 L 91.386719 158.179688 L 128.15625 171.660156 C 128.390625 171.777344 128.742188 171.777344 128.976562 171.777344 C 129.210938 171.777344 129.5625 171.777344 129.796875 171.660156 L 166.5625 158.179688 Z M 166.445312 183.738281 " fill-opacity="1" fill-rule="nonzero"/></g><g clip-path="url(#id8)"><path fill="#000000" d="M 205.90625 186.550781 C 205.558594 185.027344 205.207031 183.386719 204.972656 181.863281 L 204.386719 177.171875 L 203.566406 172.484375 C 203.214844 170.722656 202.980469 169.082031 202.628906 167.324219 C 204.503906 166.738281 205.90625 164.980469 205.90625 162.867188 C 205.90625 160.640625 204.386719 158.765625 202.277344 158.296875 C 202.394531 158.0625 202.628906 157.945312 202.746094 157.710938 L 203.449219 156.769531 C 203.800781 156.417969 203.449219 156.066406 203.566406 155.832031 L 203.566406 144.226562 C 203.566406 142.9375 202.511719 141.882812 201.222656 141.882812 L 163.753906 141.882812 C 157.546875 142 151.222656 141.644531 145.019531 142.351562 C 141.152344 142.703125 137.289062 143.054688 133.308594 143.40625 C 132.722656 142.46875 130.964844 141.761719 128.859375 141.761719 C 126.28125 141.761719 124.175781 142.820312 124.175781 144.109375 C 124.175781 145.398438 126.28125 146.453125 128.859375 146.453125 C 130.964844 146.453125 132.605469 145.75 133.308594 144.8125 C 137.171875 145.164062 141.035156 145.632812 145.019531 145.867188 C 151.222656 146.6875 157.546875 146.335938 163.753906 146.335938 L 198.882812 146.335938 L 198.882812 155.597656 C 199 155.949219 198.648438 156.300781 199 156.535156 L 199.703125 157.476562 C 199.820312 157.710938 200.054688 157.828125 200.171875 158.0625 C 198.0625 158.53125 196.539062 160.40625 196.539062 162.632812 C 196.539062 164.746094 197.945312 166.503906 199.820312 167.089844 C 199.46875 168.847656 199.117188 170.488281 198.882812 172.25 L 198.0625 176.9375 L 197.476562 181.628906 C 197.242188 183.152344 196.890625 184.792969 196.539062 186.316406 C 196.1875 187.84375 196.1875 189.484375 196.539062 191.007812 C 196.773438 192.53125 197.242188 194.171875 197.945312 195.699219 C 198.648438 197.222656 199.46875 198.863281 200.757812 200.386719 L 201.691406 200.386719 C 202.980469 198.863281 203.917969 197.222656 204.503906 195.699219 C 205.207031 194.171875 205.558594 192.53125 205.90625 191.007812 C 206.257812 189.71875 206.257812 188.195312 205.90625 186.550781 Z M 205.90625 186.550781 " fill-opacity="1" fill-rule="nonzero"/></g><g clip-path="url(#id9)"><path fill="#000000" d="M 189.632812 229.464844 C 188.578125 227.941406 186.46875 226.535156 184.714844 226.183594 C 136.46875 215.628906 73.824219 192.882812 73.238281 192.765625 C 73.121094 192.765625 72.886719 192.648438 72.769531 192.648438 C 72.535156 192.648438 65.746094 193.351562 63.285156 201.441406 C 62.347656 204.726562 61.996094 210.941406 66.914062 214.339844 C 65.863281 214.808594 64.457031 215.511719 62.933594 215.863281 C 62.464844 215.980469 62.113281 216.449219 62.113281 217.035156 C 62.113281 217.621094 62.582031 218.09375 63.050781 218.09375 C 63.285156 218.09375 83.425781 221.726562 105.910156 228.761719 L 85.886719 235.09375 L 96.773438 235.796875 L 96.304688 241.308594 L 109.421875 235.09375 L 105.910156 246.113281 L 113.285156 244.238281 L 119.257812 248.34375 L 120.195312 233.570312 C 142.910156 241.894531 163.636719 252.09375 174.175781 260.417969 C 174.410156 260.535156 174.644531 260.652344 174.878906 260.652344 C 175.113281 260.652344 175.347656 260.535156 175.582031 260.417969 C 175.582031 260.417969 180.734375 256.433594 184.714844 253.265625 C 184.832031 253.148438 184.949219 253.03125 184.949219 252.914062 C 186.585938 251.507812 187.757812 249.632812 188.578125 247.753906 C 191.269531 242.363281 192.910156 234.15625 189.632812 229.464844 Z M 65.511719 202.027344 C 67.265625 196.167969 71.597656 195.113281 72.769531 194.992188 C 75.113281 195.816406 92.089844 201.910156 114.339844 209.0625 C 111.292969 210.117188 108.835938 212.816406 107.429688 215.628906 C 106.140625 218.09375 105.089844 221.492188 105.675781 224.539062 C 84.128906 217.269531 70.429688 213.636719 70.195312 213.519531 C 63.050781 210.707031 65.394531 202.378906 65.511719 202.027344 Z M 175.113281 258.074219 C 166.914062 251.742188 154.855469 245.527344 142.324219 239.898438 C 153.800781 244.238281 166.210938 249.28125 179.09375 254.789062 L 179.210938 254.789062 C 177.453125 256.316406 175.929688 257.488281 175.113281 258.074219 Z M 186.703125 246.933594 C 185.769531 249.046875 183.191406 252.914062 180.265625 252.5625 C 178.742188 252.445312 178.039062 250.335938 177.6875 249.046875 C 176.515625 244.941406 178.039062 239.195312 180.851562 236.148438 C 181.785156 235.210938 183.191406 234.15625 184.363281 234.15625 C 184.949219 234.15625 185.417969 234.390625 185.886719 234.976562 C 187.640625 236.96875 186.585938 242.480469 184.949219 244.941406 C 184.246094 245.996094 183.191406 246.699219 182.253906 246.933594 C 181.667969 247.050781 181.199219 246.933594 180.851562 246.582031 C 180.148438 245.996094 179.796875 244.941406 179.914062 243.769531 C 180.03125 242.246094 180.851562 240.957031 181.785156 240.484375 L 181.902344 240.484375 C 182.019531 240.601562 182.019531 240.957031 181.902344 241.425781 C 181.667969 242.011719 182.136719 242.714844 182.722656 242.832031 C 183.308594 243.066406 184.011719 242.597656 184.128906 242.011719 C 184.480469 240.601562 184.246094 239.3125 183.308594 238.609375 C 182.957031 238.375 182.019531 237.789062 180.617188 238.492188 C 178.976562 239.429688 177.6875 241.425781 177.453125 243.652344 C 177.21875 245.644531 177.921875 247.519531 179.210938 248.578125 C 180.148438 249.28125 181.316406 249.632812 182.488281 249.398438 C 184.128906 249.164062 185.769531 247.988281 186.820312 246.347656 C 186.820312 246.230469 186.9375 246.230469 186.9375 246.113281 C 186.9375 246.347656 186.820312 246.699219 186.703125 246.933594 Z M 189.046875 237.4375 C 188.929688 235.914062 188.460938 234.507812 187.523438 233.570312 C 186.585938 232.511719 185.535156 232.042969 184.246094 231.925781 C 184.246094 231.925781 184.246094 231.925781 184.128906 231.925781 C 181.667969 231.925781 179.679688 233.804688 178.859375 234.625 C 175.464844 238.257812 173.824219 244.941406 175.113281 249.75 C 175.230469 250.21875 175.347656 250.570312 175.464844 250.921875 C 155.324219 242.363281 136.46875 235.210938 120.546875 229.582031 C 119.492188 226.535156 120.898438 223.015625 122.300781 220.320312 C 123.824219 217.503906 126.28125 214.691406 129.445312 213.753906 C 147.125 219.148438 166.5625 224.539062 184.128906 228.410156 C 185.300781 228.644531 186.9375 229.699219 187.640625 230.753906 C 188.8125 232.394531 189.28125 234.742188 189.046875 237.4375 Z M 189.046875 237.4375 " fill-opacity="1" fill-rule="nonzero"/></g></svg>