<svg xmlns="http://www.w3.org/2000/svg" xmlns:xlink="http://www.w3.org/1999/xlink" width="350" zoomAndPan="magnify" viewBox="0 0 262.5 374.999991" height="500" preserveAspectRatio="xMidYMid meet" version="1.0"><defs><g/><clipPath id="id1"><path d="M 14.910156 0.355469 L 247.410156 0.355469 L 247.410156 374.640625 L 14.910156 374.640625 Z M 14.910156 0.355469 " clip-rule="nonzero"/></clipPath><clipPath id="id2"><path d="M 14.910156 0.359375 L 247.410156 0.359375 L 247.410156 374.640625 L 14.910156 374.640625 Z M 14.910156 0.359375 " clip-rule="nonzero"/></clipPath><clipPath id="id3"><path d="M 247.410156 14.609375 L 247.410156 361.09375 C 247.410156 368.964844 241.027344 375.34375 233.152344 375.34375 L 29.171875 375.34375 C 21.296875 375.34375 14.910156 368.964844 14.910156 361.09375 L 14.910156 14.609375 C 14.910156 6.738281 21.296875 0.359375 29.171875 0.359375 L 233.152344 0.359375 C 241.027344 0.359375 247.410156 6.738281 247.410156 14.609375 " clip-rule="nonzero"/></clipPath><clipPath id="id4"><path d="M 33.644531 23.023438 L 228.644531 23.023438 L 228.644531 353.023438 L 33.644531 353.023438 Z M 33.644531 23.023438 " clip-rule="nonzero"/></clipPath><clipPath id="id5"><path d="M 33.644531 23.023438 L 228.644531 23.023438 L 228.644531 353.023438 L 33.644531 353.023438 Z M 33.644531 23.023438 " clip-rule="nonzero"/></clipPath><clipPath id="id6"><path d="M 228.644531 37.289062 L 228.644531 338.753906 C 228.644531 346.632812 222.257812 353.019531 214.382812 353.019531 L 47.910156 353.019531 C 40.03125 353.019531 33.644531 346.632812 33.644531 338.753906 L 33.644531 37.289062 C 33.644531 29.410156 40.03125 23.023438 47.910156 23.023438 L 214.382812 23.023438 C 222.257812 23.023438 228.644531 29.410156 228.644531 37.289062 " clip-rule="nonzero"/></clipPath></defs><g clip-path="url(#id1)"><path fill="#053d57" d="M 247.410156 14.609375 L 247.410156 361.09375 C 247.410156 368.964844 241.027344 375.34375 233.152344 375.34375 L 29.171875 375.34375 C 21.296875 375.34375 14.910156 368.964844 14.910156 361.09375 L 14.910156 14.609375 C 14.910156 6.738281 21.296875 0.359375 29.171875 0.359375 L 233.152344 0.359375 C 241.027344 0.359375 247.410156 6.738281 247.410156 14.609375 " fill-opacity="1" fill-rule="nonzero"/></g><g clip-path="url(#id2)"><g clip-path="url(#id3)"><path stroke-linecap="butt" transform="matrix(0.000000000000000046, 0.75, -0.750567, 0.000000000000000046, 247.412078, 0.359556)" fill="none" stroke-linejoin="miter" d="M 18.999761 0.00256062 L 480.978989 0.00256062 C 491.473782 0.00256062 499.978991 8.506543 499.978991 18.998605 L 499.978991 290.766952 C 499.978991 301.259014 491.473782 309.768201 480.978989 309.768201 L 18.999761 309.768201 C 8.504968 309.768201 -0.000241185 301.259014 -0.000241185 290.766952 L -0.000241185 18.998605 C -0.000241185 8.506543 8.504968 0.00256062 18.999761 0.00256062 " stroke="#000000" stroke-width="2" stroke-opacity="1" stroke-miterlimit="4"/></g></g><g clip-path="url(#id4)"><path fill="#006884" d="M 228.644531 37.289062 L 228.644531 338.753906 C 228.644531 346.632812 222.257812 353.019531 214.382812 353.019531 L 47.910156 353.019531 C 40.03125 353.019531 33.644531 346.632812 33.644531 338.753906 L 33.644531 37.289062 C 33.644531 29.410156 40.03125 23.023438 47.910156 23.023438 L 214.382812 23.023438 C 222.257812 23.023438 228.644531 29.410156 228.644531 37.289062 " fill-opacity="1" fill-rule="nonzero"/></g><g clip-path="url(#id5)"><g clip-path="url(#id6)"><path stroke-linecap="butt" transform="matrix(0.000000000000000046, 0.750773, -0.750767, 0.000000000000000046, 228.645807, 23.024662)" fill="none" stroke-linejoin="miter" d="M 18.999618 0.00169877 L 420.538875 0.00169877 C 431.033266 0.00169877 439.540123 8.508625 439.540123 18.997899 L 439.540123 240.734701 C 439.540123 251.229178 431.033266 259.736105 420.538875 259.736105 L 18.999618 259.736105 C 8.505226 259.736105 -0.00163048 251.229178 -0.00163048 240.734701 L -0.00163048 18.997899 C -0.00163048 8.508625 8.505226 0.00169877 18.999618 0.00169877 " stroke="#fd7702" stroke-width="6" stroke-opacity="1" stroke-miterlimit="4"/></g></g><g fill="#fd7702" fill-opacity="1"><g transform="translate(143.702389, 303.852236)"><g><path d="M -11.234375 -21.578125 C -8.960938 -21.578125 -6.972656 -21.132812 -5.265625 -20.25 C -3.566406 -19.363281 -2.265625 -18.109375 -1.359375 -16.484375 C -0.453125 -14.859375 0 -12.984375 0 -10.859375 L 0 -2.625 L -22.015625 -2.625 L -22.015625 -9.90625 C -22.015625 -13.632812 -21.078125 -16.507812 -19.203125 -18.53125 C -17.335938 -20.5625 -14.679688 -21.578125 -11.234375 -21.578125 Z M -11.234375 -18.578125 C -13.960938 -18.578125 -16.039062 -17.828125 -17.46875 -16.328125 C -18.90625 -14.835938 -19.625 -12.675781 -19.625 -9.84375 L -19.625 -5.609375 L -2.390625 -5.609375 L -2.390625 -10.515625 C -2.390625 -12.128906 -2.742188 -13.546875 -3.453125 -14.765625 C -4.160156 -15.992188 -5.179688 -16.9375 -6.515625 -17.59375 C -7.847656 -18.25 -9.421875 -18.578125 -11.234375 -18.578125 Z M -11.234375 -18.578125 "/></g></g></g><g fill="#fd7702" fill-opacity="1"><g transform="translate(143.702389, 280.748507)"><g><path d="M 0 -2.625 L -22.015625 -2.625 L -22.015625 -19.328125 L -19.578125 -19.328125 L -19.578125 -5.609375 L -12.515625 -5.609375 L -12.515625 -18.390625 L -10.109375 -18.390625 L -10.109375 -5.609375 L -2.4375 -5.609375 L -2.4375 -19.96875 L 0 -19.96875 Z M 0 -2.625 "/></g></g></g><g fill="#fd7702" fill-opacity="1"><g transform="translate(143.702389, 259.409971)"><g><path d="M 0 -12.21875 L 0 -9.125 L -22.015625 -0.140625 L -22.015625 -3.28125 L -6.515625 -9.375 L -2.625 -10.6875 L -6.515625 -12 L -22.015625 -18.0625 L -22.015625 -21.203125 Z M 0 -12.21875 "/></g></g></g><g fill="#fd7702" fill-opacity="1"><g transform="translate(140.722302, 232.680441)"><g><path d="M -21.804688 -2.804688 L -21.804688 -1.699219 L 6.625 -1.699219 L 6.625 -2.804688 Z M -21.804688 -2.804688 "/></g></g></g><g fill="#fd7702" fill-opacity="1"><g transform="translate(143.703258, 224.322119)"><g><path d="M -6.203125 -19.65625 C -4.242188 -19.65625 -2.71875 -18.941406 -1.625 -17.515625 C -0.539062 -16.085938 0 -14.101562 0 -11.5625 L 0 -2.625 L -22.015625 -2.625 L -22.015625 -10.625 C -22.015625 -15.789062 -20.234375 -18.375 -16.671875 -18.375 C -15.367188 -18.375 -14.273438 -18.007812 -13.390625 -17.28125 C -12.503906 -16.550781 -11.910156 -15.519531 -11.609375 -14.1875 C -11.398438 -15.9375 -10.8125 -17.285156 -9.84375 -18.234375 C -8.882812 -19.179688 -7.671875 -19.65625 -6.203125 -19.65625 Z M -16.3125 -15.375 C -17.5 -15.375 -18.347656 -14.96875 -18.859375 -14.15625 C -19.367188 -13.34375 -19.625 -12.164062 -19.625 -10.625 L -19.625 -5.609375 L -12.65625 -5.609375 L -12.65625 -10.625 C -12.65625 -12.21875 -12.953125 -13.40625 -13.546875 -14.1875 C -14.148438 -14.976562 -15.070312 -15.375 -16.3125 -15.375 Z M -6.4375 -16.640625 C -9.03125 -16.640625 -10.328125 -14.816406 -10.328125 -11.171875 L -10.328125 -5.609375 L -2.390625 -5.609375 L -2.390625 -11.40625 C -2.390625 -13.226562 -2.726562 -14.554688 -3.40625 -15.390625 C -4.082031 -16.222656 -5.09375 -16.640625 -6.4375 -16.640625 Z M -6.4375 -16.640625 "/></g></g></g><g fill="#fd7702" fill-opacity="1"><g transform="translate(143.703258, 202.983583)"><g><path d="M 0 -18.234375 L -6.4375 -15.71875 L -6.4375 -5.6875 L 0 -3.15625 L 0 -0.0625 L -22.015625 -9.046875 L -22.015625 -12.4375 L 0 -21.28125 Z M -19.765625 -10.703125 L -19.328125 -10.5625 C -18.460938 -10.300781 -17.351562 -9.914062 -16 -9.40625 L -8.765625 -6.59375 L -8.765625 -14.828125 L -16.03125 -12 C -16.75 -11.707031 -17.5625 -11.414062 -18.46875 -11.125 Z M -19.765625 -10.703125 "/></g></g></g><g fill="#fd7702" fill-opacity="1"><g transform="translate(140.722302, 178.185005)"><g><path d="M -21.804688 -2.804688 L -21.804688 -1.699219 L 6.625 -1.699219 L 6.625 -2.804688 Z M -21.804688 -2.804688 "/></g></g></g><g fill="#fd7702" fill-opacity="1"><g transform="translate(142.129307, 167.366392)"><g><path d="M -11.109375 -23.359375 C -8.003906 -23.359375 -5.453125 -22.578125 -3.453125 -21.015625 C -1.453125 -19.453125 -0.269531 -17.28125 0.09375 -14.5 C 1.40625 -14.925781 2.351562 -15.484375 2.9375 -16.171875 C 3.519531 -16.867188 3.8125 -17.75 3.8125 -18.8125 C 3.8125 -19.382812 3.742188 -19.984375 3.609375 -20.609375 L 5.703125 -20.609375 C 5.929688 -19.640625 6.046875 -18.710938 6.046875 -17.828125 C 6.046875 -16.253906 5.597656 -14.957031 4.703125 -13.9375 C 3.816406 -12.925781 2.332031 -12.097656 0.25 -11.453125 C 0.144531 -9.390625 -0.375 -7.609375 -1.3125 -6.109375 C -2.257812 -4.617188 -3.570312 -3.476562 -5.25 -2.6875 C -6.9375 -1.90625 -8.890625 -1.515625 -11.109375 -1.515625 C -14.628906 -1.515625 -17.378906 -2.476562 -19.359375 -4.40625 C -21.347656 -6.332031 -22.34375 -9.015625 -22.34375 -12.453125 C -22.34375 -14.691406 -21.894531 -16.632812 -21 -18.28125 C -20.113281 -19.925781 -18.820312 -21.179688 -17.125 -22.046875 C -15.425781 -22.921875 -13.421875 -23.359375 -11.109375 -23.359375 Z M -11.109375 -20.3125 C -13.847656 -20.3125 -16 -19.625 -17.5625 -18.25 C -19.125 -16.882812 -19.90625 -14.953125 -19.90625 -12.453125 C -19.90625 -9.929688 -19.132812 -7.984375 -17.59375 -6.609375 C -16.050781 -5.234375 -13.890625 -4.546875 -11.109375 -4.546875 C -8.347656 -4.546875 -6.15625 -5.238281 -4.53125 -6.625 C -2.914062 -8.019531 -2.109375 -9.953125 -2.109375 -12.421875 C -2.109375 -14.960938 -2.890625 -16.910156 -4.453125 -18.265625 C -6.023438 -19.628906 -8.242188 -20.3125 -11.109375 -20.3125 Z M -11.109375 -20.3125 "/></g></g></g><g fill="#fd7702" fill-opacity="1"><g transform="translate(142.129307, 142.481846)"><g><path d="M 0 -18.234375 L -6.4375 -15.71875 L -6.4375 -5.6875 L 0 -3.15625 L 0 -0.0625 L -22.015625 -9.046875 L -22.015625 -12.4375 L 0 -21.28125 Z M -19.765625 -10.703125 L -19.328125 -10.5625 C -18.460938 -10.300781 -17.351562 -9.914062 -16 -9.40625 L -8.765625 -6.59375 L -8.765625 -14.828125 L -16.03125 -12 C -16.75 -11.707031 -17.5625 -11.414062 -18.46875 -11.125 Z M -19.765625 -10.703125 "/></g></g></g><g fill="#fd7702" fill-opacity="1"><g transform="translate(140.722302, 116.373983)"><g><path d="M -21.804688 -2.804688 L -21.804688 -1.699219 L 6.625 -1.699219 L 6.625 -2.804688 Z M -21.804688 -2.804688 "/></g></g></g><g fill="#fd7702" fill-opacity="1"><g transform="translate(143.704312, 108.475942)"><g><path d="M -11.234375 -21.578125 C -8.960938 -21.578125 -6.972656 -21.132812 -5.265625 -20.25 C -3.566406 -19.363281 -2.265625 -18.109375 -1.359375 -16.484375 C -0.453125 -14.859375 0 -12.984375 0 -10.859375 L 0 -2.625 L -22.015625 -2.625 L -22.015625 -9.90625 C -22.015625 -13.632812 -21.078125 -16.507812 -19.203125 -18.53125 C -17.335938 -20.5625 -14.679688 -21.578125 -11.234375 -21.578125 Z M -11.234375 -18.578125 C -13.960938 -18.578125 -16.039062 -17.828125 -17.46875 -16.328125 C -18.90625 -14.835938 -19.625 -12.675781 -19.625 -9.84375 L -19.625 -5.609375 L -2.390625 -5.609375 L -2.390625 -10.515625 C -2.390625 -12.128906 -2.742188 -13.546875 -3.453125 -14.765625 C -4.160156 -15.992188 -5.179688 -16.9375 -6.515625 -17.59375 C -7.847656 -18.25 -9.421875 -18.578125 -11.234375 -18.578125 Z M -11.234375 -18.578125 "/></g></g></g><g fill="#fd7702" fill-opacity="1"><g transform="translate(143.704312, 85.372213)"><g><path d="M 0 -2.625 L -22.015625 -2.625 L -22.015625 -5.609375 L -2.4375 -5.609375 L -2.4375 -16.734375 L 0 -16.734375 Z M 0 -2.625 "/></g></g></g></svg>