<svg xmlns="http://www.w3.org/2000/svg" xmlns:xlink="http://www.w3.org/1999/xlink" width="350" zoomAndPan="magnify" viewBox="0 0 262.5 374.999991" height="500" preserveAspectRatio="xMidYMid meet" version="1.0"><defs><clipPath id="id1"><path d="M 14.910156 0.355469 L 247.410156 0.355469 L 247.410156 374.640625 L 14.910156 374.640625 Z M 14.910156 0.355469 " clip-rule="nonzero"/></clipPath><clipPath id="id2"><path d="M 14.910156 0.359375 L 247.410156 0.359375 L 247.410156 374.640625 L 14.910156 374.640625 Z M 14.910156 0.359375 " clip-rule="nonzero"/></clipPath><clipPath id="id3"><path d="M 247.410156 14.609375 L 247.410156 361.09375 C 247.410156 368.964844 241.027344 375.34375 233.152344 375.34375 L 29.171875 375.34375 C 21.296875 375.34375 14.910156 368.964844 14.910156 361.09375 L 14.910156 14.609375 C 14.910156 6.738281 21.296875 0.359375 29.171875 0.359375 L 233.152344 0.359375 C 241.027344 0.359375 247.410156 6.738281 247.410156 14.609375 " clip-rule="nonzero"/></clipPath><clipPath id="id4"><path d="M 33.644531 23.023438 L 228.644531 23.023438 L 228.644531 353.023438 L 33.644531 353.023438 Z M 33.644531 23.023438 " clip-rule="nonzero"/></clipPath><clipPath id="id5"><path d="M 33.644531 23.023438 L 228.644531 23.023438 L 228.644531 353.023438 L 33.644531 353.023438 Z M 33.644531 23.023438 " clip-rule="nonzero"/></clipPath><clipPath id="id6"><path d="M 228.644531 37.289062 L 228.644531 338.753906 C 228.644531 346.632812 222.257812 353.019531 214.382812 353.019531 L 47.910156 353.019531 C 40.03125 353.019531 33.644531 346.632812 33.644531 338.753906 L 33.644531 37.289062 C 33.644531 29.410156 40.03125 23.023438 47.910156 23.023438 L 214.382812 23.023438 C 222.257812 23.023438 228.644531 29.410156 228.644531 37.289062 " clip-rule="nonzero"/></clipPath><clipPath id="id7"><path d="M 56.367188 112.972656 L 206.367188 112.972656 L 206.367188 262.972656 L 56.367188 262.972656 Z M 56.367188 112.972656 " clip-rule="nonzero"/></clipPath></defs><g clip-path="url(#id1)"><path fill="#053d57" d="M 247.410156 14.609375 L 247.410156 361.09375 C 247.410156 368.964844 241.027344 375.34375 233.152344 375.34375 L 29.171875 375.34375 C 21.296875 375.34375 14.910156 368.964844 14.910156 361.09375 L 14.910156 14.609375 C 14.910156 6.738281 21.296875 0.359375 29.171875 0.359375 L 233.152344 0.359375 C 241.027344 0.359375 247.410156 6.738281 247.410156 14.609375 " fill-opacity="1" fill-rule="nonzero"/></g><g clip-path="url(#id2)"><g clip-path="url(#id3)"><path stroke-linecap="butt" transform="matrix(0.000000000000000046, 0.75, -0.750567, 0.000000000000000046, 247.412078, 0.359462)" fill="none" stroke-linejoin="miter" d="M 18.999886 0.00256062 L 480.979114 0.00256062 C 491.473907 0.00256062 499.979116 8.506543 499.979116 18.998605 L 499.979116 290.766952 C 499.979116 301.259014 491.473907 309.768201 480.979114 309.768201 L 18.999886 309.768201 C 8.505093 309.768201 -0.00011601 301.259014 -0.00011601 290.766952 L -0.00011601 18.998605 C -0.00011601 8.506543 8.505093 0.00256062 18.999886 0.00256062 " stroke="#000000" stroke-width="2" stroke-opacity="1" stroke-miterlimit="4"/></g></g><g clip-path="url(#id4)"><path fill="#f2f1ef" d="M 228.644531 37.289062 L 228.644531 338.753906 C 228.644531 346.632812 222.257812 353.019531 214.382812 353.019531 L 47.910156 353.019531 C 40.03125 353.019531 33.644531 346.632812 33.644531 338.753906 L 33.644531 37.289062 C 33.644531 29.410156 40.03125 23.023438 47.910156 23.023438 L 214.382812 23.023438 C 222.257812 23.023438 228.644531 29.410156 228.644531 37.289062 " fill-opacity="1" fill-rule="nonzero"/></g><g clip-path="url(#id5)"><g clip-path="url(#id6)"><path stroke-linecap="butt" transform="matrix(0.000000000000000046, 0.750773, -0.750767, 0.000000000000000046, 228.645807, 23.024733)" fill="none" stroke-linejoin="miter" d="M 18.999523 0.00169877 L 420.53878 0.00169877 C 431.033172 0.00169877 439.540029 8.508625 439.540029 18.997899 L 439.540029 240.734701 C 439.540029 251.229178 431.033172 259.736105 420.53878 259.736105 L 18.999523 259.736105 C 8.505132 259.736105 -0.00172525 251.229178 -0.00172525 240.734701 L -0.00172525 18.997899 C -0.00172525 8.508625 8.505132 0.00169877 18.999523 0.00169877 " stroke="#fd7702" stroke-width="4" stroke-opacity="1" stroke-miterlimit="4"/></g></g><g clip-path="url(#id7)"><path fill="#0077b5" d="M 78.867188 112.972656 L 183.867188 112.972656 C 184.605469 112.972656 185.339844 113.011719 186.074219 113.082031 C 186.804688 113.15625 187.535156 113.261719 188.257812 113.40625 C 188.980469 113.550781 189.695312 113.730469 190.398438 113.941406 C 191.105469 114.15625 191.796875 114.40625 192.476562 114.6875 C 193.160156 114.96875 193.824219 115.285156 194.472656 115.628906 C 195.125 115.976562 195.753906 116.355469 196.367188 116.765625 C 196.980469 117.175781 197.570312 117.613281 198.140625 118.082031 C 198.710938 118.546875 199.257812 119.042969 199.777344 119.5625 C 200.296875 120.085938 200.792969 120.628906 201.261719 121.199219 C 201.726562 121.769531 202.167969 122.359375 202.574219 122.972656 C 202.984375 123.585938 203.363281 124.21875 203.710938 124.867188 C 204.058594 125.515625 204.371094 126.183594 204.65625 126.863281 C 204.9375 127.542969 205.183594 128.238281 205.398438 128.941406 C 205.613281 129.648438 205.792969 130.363281 205.933594 131.085938 C 206.078125 131.808594 206.1875 132.535156 206.257812 133.269531 C 206.332031 134.003906 206.367188 134.738281 206.367188 135.472656 L 206.367188 240.472656 C 206.367188 241.210938 206.332031 241.945312 206.257812 242.679688 C 206.1875 243.414062 206.078125 244.140625 205.933594 244.863281 C 205.792969 245.585938 205.613281 246.300781 205.398438 247.003906 C 205.183594 247.710938 204.9375 248.402344 204.65625 249.085938 C 204.371094 249.765625 204.058594 250.429688 203.710938 251.082031 C 203.363281 251.730469 202.984375 252.363281 202.574219 252.972656 C 202.167969 253.585938 201.726562 254.179688 201.261719 254.746094 C 200.792969 255.316406 200.296875 255.863281 199.777344 256.382812 C 199.257812 256.90625 198.710938 257.398438 198.140625 257.867188 C 197.570312 258.335938 196.980469 258.773438 196.367188 259.183594 C 195.753906 259.589844 195.125 259.96875 194.472656 260.316406 C 193.824219 260.664062 193.160156 260.980469 192.476562 261.261719 C 191.796875 261.542969 191.105469 261.792969 190.398438 262.003906 C 189.695312 262.21875 188.980469 262.398438 188.257812 262.542969 C 187.535156 262.683594 186.804688 262.792969 186.074219 262.867188 C 185.339844 262.9375 184.605469 262.972656 183.867188 262.972656 L 78.867188 262.972656 C 78.128906 262.972656 77.394531 262.9375 76.664062 262.867188 C 75.929688 262.792969 75.199219 262.683594 74.476562 262.542969 C 73.753906 262.398438 73.042969 262.21875 72.335938 262.003906 C 71.632812 261.792969 70.9375 261.542969 70.257812 261.261719 C 69.578125 260.980469 68.910156 260.664062 68.261719 260.316406 C 67.609375 259.96875 66.980469 259.589844 66.367188 259.183594 C 65.753906 258.773438 65.164062 258.335938 64.59375 257.867188 C 64.023438 257.398438 63.480469 256.90625 62.957031 256.382812 C 62.4375 255.863281 61.941406 255.316406 61.476562 254.746094 C 61.007812 254.179688 60.570312 253.585938 60.160156 252.972656 C 59.75 252.363281 59.371094 251.730469 59.023438 251.082031 C 58.675781 250.429688 58.363281 249.765625 58.082031 249.085938 C 57.796875 248.402344 57.550781 247.710938 57.335938 247.003906 C 57.121094 246.300781 56.945312 245.585938 56.800781 244.863281 C 56.65625 244.140625 56.546875 243.414062 56.476562 242.679688 C 56.402344 241.945312 56.367188 241.210938 56.367188 240.472656 L 56.367188 135.472656 C 56.367188 134.738281 56.402344 134.003906 56.476562 133.269531 C 56.546875 132.535156 56.65625 131.808594 56.800781 131.085938 C 56.945312 130.363281 57.121094 129.648438 57.335938 128.941406 C 57.550781 128.238281 57.796875 127.542969 58.082031 126.863281 C 58.363281 126.183594 58.675781 125.515625 59.023438 124.867188 C 59.371094 124.21875 59.75 123.585938 60.160156 122.972656 C 60.570312 122.359375 61.007812 121.769531 61.476562 121.199219 C 61.941406 120.628906 62.4375 120.085938 62.957031 119.5625 C 63.480469 119.042969 64.023438 118.546875 64.59375 118.082031 C 65.164062 117.613281 65.753906 117.175781 66.367188 116.765625 C 66.980469 116.355469 67.609375 115.976562 68.261719 115.628906 C 68.910156 115.285156 69.578125 114.96875 70.257812 114.6875 C 70.9375 114.40625 71.632812 114.15625 72.335938 113.941406 C 73.042969 113.730469 73.753906 113.550781 74.476562 113.40625 C 75.199219 113.261719 75.929688 113.15625 76.664062 113.082031 C 77.394531 113.011719 78.128906 112.972656 78.867188 112.972656 Z M 78.867188 112.972656 " fill-opacity="1" fill-rule="nonzero"/></g><path fill="#ffffff" d="M 108.808594 153.402344 C 108.808594 154.117188 108.738281 154.820312 108.601562 155.519531 C 108.460938 156.214844 108.257812 156.894531 107.984375 157.550781 C 107.710938 158.210938 107.378906 158.835938 106.980469 159.425781 C 106.585938 160.019531 106.136719 160.566406 105.632812 161.070312 C 105.128906 161.570312 104.582031 162.019531 103.992188 162.417969 C 103.398438 162.8125 102.773438 163.144531 102.117188 163.417969 C 101.460938 163.691406 100.78125 163.894531 100.082031 164.035156 C 99.386719 164.175781 98.679688 164.242188 97.96875 164.242188 C 97.257812 164.242188 96.550781 164.175781 95.855469 164.035156 C 95.15625 163.894531 94.476562 163.691406 93.820312 163.417969 C 93.164062 163.144531 92.539062 162.8125 91.945312 162.417969 C 91.355469 162.019531 90.808594 161.570312 90.304688 161.070312 C 89.800781 160.566406 89.351562 160.019531 88.957031 159.425781 C 88.5625 158.835938 88.226562 158.210938 87.953125 157.550781 C 87.683594 156.894531 87.476562 156.214844 87.335938 155.519531 C 87.199219 154.820312 87.128906 154.117188 87.128906 153.402344 C 87.128906 152.691406 87.199219 151.988281 87.335938 151.289062 C 87.476562 150.589844 87.683594 149.914062 87.953125 149.253906 C 88.226562 148.597656 88.5625 147.972656 88.957031 147.382812 C 89.351562 146.789062 89.800781 146.242188 90.304688 145.738281 C 90.808594 145.234375 91.355469 144.785156 91.945312 144.390625 C 92.539062 143.996094 93.164062 143.660156 93.820312 143.390625 C 94.476562 143.117188 95.15625 142.910156 95.855469 142.773438 C 96.550781 142.632812 97.257812 142.5625 97.96875 142.5625 C 98.679688 142.5625 99.386719 142.632812 100.082031 142.773438 C 100.78125 142.910156 101.460938 143.117188 102.117188 143.390625 C 102.773438 143.660156 103.398438 143.996094 103.992188 144.390625 C 104.582031 144.785156 105.128906 145.234375 105.632812 145.738281 C 106.136719 146.242188 106.585938 146.789062 106.980469 147.382812 C 107.378906 147.972656 107.710938 148.597656 107.984375 149.253906 C 108.257812 149.914062 108.460938 150.589844 108.601562 151.289062 C 108.738281 151.988281 108.808594 152.691406 108.808594 153.402344 Z M 108.808594 153.402344 " fill-opacity="1" fill-rule="nonzero"/><path stroke-linecap="butt" transform="matrix(0.292969, 0, 0, 0.292969, 56.36754, 112.974055)" fill-opacity="1" fill="#ffffff" fill-rule="nonzero" stroke-linejoin="miter" d="M 243.998827 193.99525 L 243.998827 391.995273 M 141.998815 193.99525 L 141.998815 391.995273 " stroke="#ffffff" stroke-width="66" stroke-opacity="1" stroke-miterlimit="4"/><path fill="#ffffff" d="M 137.226562 195.589844 C 137.226562 189.730469 141.035156 183.871094 147.773438 183.871094 C 154.804688 183.871094 157.441406 189.144531 157.441406 197.054688 L 157.441406 227.816406 L 176.777344 227.816406 L 176.777344 194.710938 C 176.777344 176.839844 167.402344 168.636719 154.511719 168.636719 C 144.550781 168.636719 139.570312 174.203125 137.226562 178.011719 " fill-opacity="1" fill-rule="nonzero"/></svg>