<svg xmlns="http://www.w3.org/2000/svg" xmlns:xlink="http://www.w3.org/1999/xlink" width="350" zoomAndPan="magnify" viewBox="0 0 262.5 374.999991" height="500" preserveAspectRatio="xMidYMid meet" version="1.0"><defs><filter x="0%" y="0%" width="100%" height="100%" id="id1"><feColorMatrix values="0 0 0 0 1 0 0 0 0 1 0 0 0 0 1 0 0 0 1 0" color-interpolation-filters="sRGB"/></filter><g/><clipPath id="id2"><path d="M 14.910156 0.355469 L 247.410156 0.355469 L 247.410156 374.640625 L 14.910156 374.640625 Z M 14.910156 0.355469 " clip-rule="nonzero"/></clipPath><clipPath id="id3"><path d="M 14.910156 0.359375 L 247.410156 0.359375 L 247.410156 374.640625 L 14.910156 374.640625 Z M 14.910156 0.359375 " clip-rule="nonzero"/></clipPath><clipPath id="id4"><path d="M 247.410156 14.609375 L 247.410156 361.09375 C 247.410156 368.964844 241.027344 375.34375 233.152344 375.34375 L 29.171875 375.34375 C 21.296875 375.34375 14.910156 368.964844 14.910156 361.09375 L 14.910156 14.609375 C 14.910156 6.738281 21.296875 0.359375 29.171875 0.359375 L 233.152344 0.359375 C 241.027344 0.359375 247.410156 6.738281 247.410156 14.609375 " clip-rule="nonzero"/></clipPath><clipPath id="id5"><path d="M 33.644531 23.023438 L 228.644531 23.023438 L 228.644531 353.023438 L 33.644531 353.023438 Z M 33.644531 23.023438 " clip-rule="nonzero"/></clipPath><clipPath id="id6"><path d="M 33.644531 23.023438 L 228.644531 23.023438 L 228.644531 353.023438 L 33.644531 353.023438 Z M 33.644531 23.023438 " clip-rule="nonzero"/></clipPath><clipPath id="id7"><path d="M 228.644531 37.289062 L 228.644531 338.753906 C 228.644531 346.632812 222.257812 353.019531 214.382812 353.019531 L 47.910156 353.019531 C 40.03125 353.019531 33.644531 346.632812 33.644531 338.753906 L 33.644531 37.289062 C 33.644531 29.410156 40.03125 23.023438 47.910156 23.023438 L 214.382812 23.023438 C 222.257812 23.023438 228.644531 29.410156 228.644531 37.289062 " clip-rule="nonzero"/></clipPath><mask id="id8"><g filter="url(#id1)"><rect x="-26.25" width="315" fill="#000000" y="-37.499999" height="449.999989" fill-opacity="0.898"/></g></mask><clipPath id="id9"><rect x="0" width="183" y="0" height="164"/></clipPath></defs><g clip-path="url(#id2)"><path fill="#053d57" d="M 247.410156 14.609375 L 247.410156 361.09375 C 247.410156 368.964844 241.027344 375.34375 233.152344 375.34375 L 29.171875 375.34375 C 21.296875 375.34375 14.910156 368.964844 14.910156 361.09375 L 14.910156 14.609375 C 14.910156 6.738281 21.296875 0.359375 29.171875 0.359375 L 233.152344 0.359375 C 241.027344 0.359375 247.410156 6.738281 247.410156 14.609375 " fill-opacity="1" fill-rule="nonzero"/></g><g clip-path="url(#id3)"><g clip-path="url(#id4)"><path stroke-linecap="butt" transform="matrix(0.000000000000000046, 0.75, -0.750567, 0.000000000000000046, 247.412078, 0.359579)" fill="none" stroke-linejoin="miter" d="M 18.999731 0.00256062 L 480.978958 0.00256062 C 491.473751 0.00256062 499.97896 8.506543 499.97896 18.998605 L 499.97896 290.766952 C 499.97896 301.259014 491.473751 309.768201 480.978958 309.768201 L 18.999731 309.768201 C 8.504937 309.768201 -0.000271963 301.259014 -0.000271963 290.766952 L -0.000271963 18.998605 C -0.000271963 8.506543 8.504937 0.00256062 18.999731 0.00256062 " stroke="#000000" stroke-width="2" stroke-opacity="1" stroke-miterlimit="4"/></g></g><g clip-path="url(#id5)"><path fill="#f2f1ef" d="M 228.644531 37.289062 L 228.644531 338.753906 C 228.644531 346.632812 222.257812 353.019531 214.382812 353.019531 L 47.910156 353.019531 C 40.03125 353.019531 33.644531 346.632812 33.644531 338.753906 L 33.644531 37.289062 C 33.644531 29.410156 40.03125 23.023438 47.910156 23.023438 L 214.382812 23.023438 C 222.257812 23.023438 228.644531 29.410156 228.644531 37.289062 " fill-opacity="1" fill-rule="nonzero"/></g><g clip-path="url(#id6)"><g clip-path="url(#id7)"><path stroke-linecap="butt" transform="matrix(0.000000000000000046, 0.750773, -0.750767, 0.000000000000000046, 228.645807, 23.024733)" fill="none" stroke-linejoin="miter" d="M 18.999523 0.00169877 L 420.53878 0.00169877 C 431.033172 0.00169877 439.540029 8.508625 439.540029 18.997899 L 439.540029 240.734701 C 439.540029 251.229178 431.033172 259.736105 420.53878 259.736105 L 18.999523 259.736105 C 8.505132 259.736105 -0.00172525 251.229178 -0.00172525 240.734701 L -0.00172525 18.997899 C -0.00172525 8.508625 8.505132 0.00169877 18.999523 0.00169877 " stroke="#fd7702" stroke-width="4" stroke-opacity="1" stroke-miterlimit="4"/></g></g><g mask="url(#id8)"><g transform="matrix(1, 0, 0, 1, 40, 106)"><g clip-path="url(#id9)"><path fill="#c6302c" d="M 173.503906 50.214844 C 164.167969 2.058594 105.652344 1.253906 91.222656 46.273438 C 76.792969 1.253906 18.277344 2.058594 8.941406 50.214844 C 0.472656 93.90625 91.222656 162.839844 91.222656 162.839844 C 91.222656 162.839844 181.972656 93.90625 173.503906 50.214844 Z M 173.503906 50.214844 " fill-opacity="1" fill-rule="nonzero"/></g></g></g><g fill="#ffffff" fill-opacity="1"><g transform="translate(95.239128, 200.231419)"><g><path d="M 26.5625 0 L 22.546875 0 L 18.265625 -15.734375 C 17.984375 -16.710938 17.570312 -18.476562 17.03125 -21.03125 C 16.726562 -19.664062 16.46875 -18.523438 16.25 -17.609375 C 16.039062 -16.703125 14.445312 -10.832031 11.46875 0 L 7.453125 0 L 0.15625 -24.765625 L 3.65625 -24.765625 L 8.109375 -9.03125 C 8.628906 -7.0625 9.113281 -5.035156 9.5625 -2.953125 C 9.84375 -4.242188 10.164062 -5.648438 10.53125 -7.171875 C 10.90625 -8.691406 12.535156 -14.554688 15.421875 -24.765625 L 18.640625 -24.765625 L 22.9375 -9.359375 C 23.59375 -6.835938 24.109375 -4.703125 24.484375 -2.953125 L 24.640625 -3.5625 C 24.960938 -4.914062 25.222656 -6.015625 25.421875 -6.859375 C 25.617188 -7.710938 27.265625 -13.679688 30.359375 -24.765625 L 33.859375 -24.765625 Z M 26.5625 0 "/></g></g><g transform="translate(129.217639, 200.231419)"><g><path d="M 5.578125 -15.765625 C 6.253906 -17.003906 7.066406 -17.914062 8.015625 -18.5 C 8.972656 -19.082031 10.1875 -19.375 11.65625 -19.375 C 13.71875 -19.375 15.238281 -18.859375 16.21875 -17.828125 C 17.195312 -16.804688 17.6875 -15.085938 17.6875 -12.671875 L 17.6875 0 L 14.5 0 L 14.5 -12.0625 C 14.5 -13.394531 14.375 -14.382812 14.125 -15.03125 C 13.882812 -15.6875 13.484375 -16.164062 12.921875 -16.46875 C 12.359375 -16.769531 11.578125 -16.921875 10.578125 -16.921875 C 9.085938 -16.921875 7.894531 -16.40625 7 -15.375 C 6.101562 -14.34375 5.65625 -12.957031 5.65625 -11.21875 L 5.65625 0 L 2.5 0 L 2.5 -26.09375 L 5.65625 -26.09375 L 5.65625 -19.296875 C 5.65625 -18.585938 5.632812 -17.847656 5.59375 -17.078125 C 5.550781 -16.316406 5.523438 -15.878906 5.515625 -15.765625 Z M 5.578125 -15.765625 "/></g></g><g transform="translate(149.23912, 200.231419)"><g><path d="M 3.359375 7.46875 C 2.492188 7.46875 1.765625 7.40625 1.171875 7.28125 L 1.171875 4.90625 C 1.617188 4.976562 2.113281 5.015625 2.65625 5.015625 C 4.625 5.015625 6.179688 3.566406 7.328125 0.671875 L 7.625 -0.09375 L 0.09375 -19.015625 L 3.46875 -19.015625 L 7.46875 -8.515625 C 7.53125 -8.347656 7.601562 -8.148438 7.6875 -7.921875 C 7.769531 -7.691406 8.03125 -6.925781 8.46875 -5.625 C 8.914062 -4.320312 9.15625 -3.597656 9.1875 -3.453125 L 10.421875 -6.90625 L 14.59375 -19.015625 L 17.9375 -19.015625 L 10.625 0 C 9.832031 2.03125 9.097656 3.539062 8.421875 4.53125 C 7.742188 5.519531 6.988281 6.253906 6.15625 6.734375 C 5.332031 7.222656 4.398438 7.46875 3.359375 7.46875 Z M 3.359375 7.46875 "/></g></g></g></svg>