<svg xmlns="http://www.w3.org/2000/svg" xmlns:xlink="http://www.w3.org/1999/xlink" width="350" zoomAndPan="magnify" viewBox="0 0 262.5 374.999991" height="500" preserveAspectRatio="xMidYMid meet" version="1.0"><defs><filter x="0%" y="0%" width="100%" height="100%" id="id1"><feColorMatrix values="0 0 0 0 1 0 0 0 0 1 0 0 0 0 1 0 0 0 1 0" color-interpolation-filters="sRGB"/></filter><g/><clipPath id="id2"><path d="M 14.910156 0.355469 L 247.410156 0.355469 L 247.410156 374.640625 L 14.910156 374.640625 Z M 14.910156 0.355469 " clip-rule="nonzero"/></clipPath><clipPath id="id3"><path d="M 14.910156 0.359375 L 247.410156 0.359375 L 247.410156 374.640625 L 14.910156 374.640625 Z M 14.910156 0.359375 " clip-rule="nonzero"/></clipPath><clipPath id="id4"><path d="M 247.410156 14.609375 L 247.410156 361.09375 C 247.410156 368.964844 241.027344 375.34375 233.152344 375.34375 L 29.171875 375.34375 C 21.296875 375.34375 14.910156 368.964844 14.910156 361.09375 L 14.910156 14.609375 C 14.910156 6.738281 21.296875 0.359375 29.171875 0.359375 L 233.152344 0.359375 C 241.027344 0.359375 247.410156 6.738281 247.410156 14.609375 " clip-rule="nonzero"/></clipPath><clipPath id="id5"><path d="M 33.644531 23.023438 L 228.644531 23.023438 L 228.644531 353.023438 L 33.644531 353.023438 Z M 33.644531 23.023438 " clip-rule="nonzero"/></clipPath><clipPath id="id6"><path d="M 33.644531 23.023438 L 228.644531 23.023438 L 228.644531 353.023438 L 33.644531 353.023438 Z M 33.644531 23.023438 " clip-rule="nonzero"/></clipPath><clipPath id="id7"><path d="M 228.644531 37.289062 L 228.644531 338.753906 C 228.644531 346.632812 222.257812 353.019531 214.382812 353.019531 L 47.910156 353.019531 C 40.03125 353.019531 33.644531 346.632812 33.644531 338.753906 L 33.644531 37.289062 C 33.644531 29.410156 40.03125 23.023438 47.910156 23.023438 L 214.382812 23.023438 C 222.257812 23.023438 228.644531 29.410156 228.644531 37.289062 " clip-rule="nonzero"/></clipPath><mask id="id8"><g filter="url(#id1)"><rect x="-26.25" width="315" fill="#000000" y="-37.499999" height="449.999989" fill-opacity="0.8"/></g></mask><clipPath id="id9"><path d="M 0.972656 0.582031 L 169.722656 0.582031 L 169.722656 169.332031 L 0.972656 169.332031 Z M 0.972656 0.582031 " clip-rule="nonzero"/></clipPath><clipPath id="id10"><rect x="0" width="170" y="0" height="170"/></clipPath></defs><g clip-path="url(#id2)"><path fill="#053d57" d="M 247.410156 14.609375 L 247.410156 361.09375 C 247.410156 368.964844 241.027344 375.34375 233.152344 375.34375 L 29.171875 375.34375 C 21.296875 375.34375 14.910156 368.964844 14.910156 361.09375 L 14.910156 14.609375 C 14.910156 6.738281 21.296875 0.359375 29.171875 0.359375 L 233.152344 0.359375 C 241.027344 0.359375 247.410156 6.738281 247.410156 14.609375 " fill-opacity="1" fill-rule="nonzero"/></g><g clip-path="url(#id3)"><g clip-path="url(#id4)"><path stroke-linecap="butt" transform="matrix(0.000000000000000046, 0.75, -0.750567, 0.000000000000000046, 247.412078, 0.359462)" fill="none" stroke-linejoin="miter" d="M 18.999886 0.00256062 L 480.979114 0.00256062 C 491.473907 0.00256062 499.979116 8.506543 499.979116 18.998605 L 499.979116 290.766952 C 499.979116 301.259014 491.473907 309.768201 480.979114 309.768201 L 18.999886 309.768201 C 8.505093 309.768201 -0.00011601 301.259014 -0.00011601 290.766952 L -0.00011601 18.998605 C -0.00011601 8.506543 8.505093 0.00256062 18.999886 0.00256062 " stroke="#000000" stroke-width="2" stroke-opacity="1" stroke-miterlimit="4"/></g></g><g clip-path="url(#id5)"><path fill="#f2f1ef" d="M 228.644531 37.289062 L 228.644531 338.753906 C 228.644531 346.632812 222.257812 353.019531 214.382812 353.019531 L 47.910156 353.019531 C 40.03125 353.019531 33.644531 346.632812 33.644531 338.753906 L 33.644531 37.289062 C 33.644531 29.410156 40.03125 23.023438 47.910156 23.023438 L 214.382812 23.023438 C 222.257812 23.023438 228.644531 29.410156 228.644531 37.289062 " fill-opacity="1" fill-rule="nonzero"/></g><g clip-path="url(#id6)"><g clip-path="url(#id7)"><path stroke-linecap="butt" transform="matrix(0.000000000000000046, 0.750773, -0.750767, 0.000000000000000046, 228.645807, 23.024733)" fill="none" stroke-linejoin="miter" d="M 18.999523 0.00169877 L 420.53878 0.00169877 C 431.033172 0.00169877 439.540029 8.508625 439.540029 18.997899 L 439.540029 240.734701 C 439.540029 251.229178 431.033172 259.736105 420.53878 259.736105 L 18.999523 259.736105 C 8.505132 259.736105 -0.00172525 251.229178 -0.00172525 240.734701 L -0.00172525 18.997899 C -0.00172525 8.508625 8.505132 0.00169877 18.999523 0.00169877 " stroke="#fd7702" stroke-width="4" stroke-opacity="1" stroke-miterlimit="4"/></g></g><g mask="url(#id8)"><g transform="matrix(1, 0, 0, 1, 46, 103)"><g clip-path="url(#id10)"><g clip-path="url(#id9)"><path fill="#000000" d="M 85.347656 0.582031 C 65.390625 0.582031 49.1875 17.589844 49.1875 38.550781 C 49.363281 51.738281 56.167969 62.886719 63.25 73.484375 C 55.355469 67.511719 46.582031 63.898438 37.136719 63.863281 C 17.175781 63.863281 0.972656 80.871094 0.972656 101.832031 C 0.972656 122.789062 17.175781 139.800781 37.136719 139.800781 C 53.304688 139.527344 66.238281 128.214844 78.945312 118.707031 C 76.671875 147.109375 72.046875 163.0625 45.171875 169.332031 L 125.527344 169.332031 C 98.652344 163.058594 94.027344 147.109375 91.753906 118.707031 C 104.316406 129.472656 117.488281 138.605469 133.566406 139.800781 C 153.523438 139.800781 169.726562 122.789062 169.726562 101.832031 C 169.726562 80.871094 153.523438 63.863281 133.566406 63.863281 C 123.875 63.859375 115.503906 68.320312 107.449219 73.484375 C 115.464844 62.992188 120.742188 51.671875 121.511719 38.550781 C 121.511719 17.589844 105.3125 0.582031 85.351562 0.582031 Z M 85.347656 0.582031 " fill-opacity="1" fill-rule="nonzero"/></g></g></g></g><g fill="#ffffff" fill-opacity="1"><g transform="translate(62.72306, 209.274977)"><g><path d="M 8.609375 0.375 C 4.109375 0.375 1.441406 -1.945312 0.609375 -6.59375 L 4.125 -7.171875 C 4.351562 -5.710938 4.863281 -4.578125 5.65625 -3.765625 C 6.445312 -2.953125 7.4375 -2.546875 8.625 -2.546875 C 9.9375 -2.546875 10.96875 -2.992188 11.71875 -3.890625 C 12.46875 -4.785156 12.84375 -6.101562 12.84375 -7.84375 L 12.84375 -23.609375 L 7.734375 -23.609375 L 7.734375 -26.546875 L 16.421875 -26.546875 L 16.421875 -7.90625 C 16.421875 -5.332031 15.722656 -3.304688 14.328125 -1.828125 C 12.941406 -0.359375 11.035156 0.375 8.609375 0.375 Z M 8.609375 0.375 "/></g></g><g transform="translate(82.01332, 209.274977)"><g><path d="M 19.828125 -10.203125 C 19.828125 -6.640625 19.039062 -3.984375 17.46875 -2.234375 C 15.90625 -0.492188 13.628906 0.375 10.640625 0.375 C 7.660156 0.375 5.410156 -0.53125 3.890625 -2.34375 C 2.378906 -4.15625 1.625 -6.773438 1.625 -10.203125 C 1.625 -17.242188 4.664062 -20.765625 10.75 -20.765625 C 13.863281 -20.765625 16.15625 -19.90625 17.625 -18.1875 C 19.09375 -16.46875 19.828125 -13.804688 19.828125 -10.203125 Z M 16.28125 -10.203125 C 16.28125 -13.015625 15.859375 -15.054688 15.015625 -16.328125 C 14.179688 -17.609375 12.78125 -18.25 10.8125 -18.25 C 8.832031 -18.25 7.398438 -17.597656 6.515625 -16.296875 C 5.628906 -15.003906 5.1875 -12.972656 5.1875 -10.203125 C 5.1875 -7.515625 5.617188 -5.492188 6.484375 -4.140625 C 7.359375 -2.796875 8.734375 -2.125 10.609375 -2.125 C 12.640625 -2.125 14.09375 -2.773438 14.96875 -4.078125 C 15.84375 -5.390625 16.28125 -7.429688 16.28125 -10.203125 Z M 16.28125 -10.203125 "/></g></g><g transform="translate(103.469967, 209.274977)"><g><path d="M 5.921875 -20.375 L 5.921875 -7.453125 C 5.921875 -6.109375 6.050781 -5.066406 6.3125 -4.328125 C 6.570312 -3.585938 6.988281 -3.050781 7.5625 -2.71875 C 8.144531 -2.394531 8.992188 -2.234375 10.109375 -2.234375 C 11.742188 -2.234375 13.03125 -2.789062 13.96875 -3.90625 C 14.914062 -5.03125 15.390625 -6.585938 15.390625 -8.578125 L 15.390625 -20.375 L 18.78125 -20.375 L 18.78125 -4.34375 C 18.78125 -1.976562 18.816406 -0.53125 18.890625 0 L 15.6875 0 C 15.675781 -0.0625 15.664062 -0.226562 15.65625 -0.5 C 15.644531 -0.78125 15.628906 -1.097656 15.609375 -1.453125 C 15.585938 -1.816406 15.566406 -2.492188 15.546875 -3.484375 L 15.484375 -3.484375 C 14.703125 -2.078125 13.800781 -1.082031 12.78125 -0.5 C 11.757812 0.0820312 10.488281 0.375 8.96875 0.375 C 6.726562 0.375 5.085938 -0.175781 4.046875 -1.28125 C 3.015625 -2.394531 2.5 -4.234375 2.5 -6.796875 L 2.5 -20.375 Z M 5.921875 -20.375 "/></g></g><g transform="translate(124.926614, 209.274977)"><g><path d="M 2.671875 0 L 2.671875 -15.640625 C 2.671875 -17.066406 2.632812 -18.644531 2.5625 -20.375 L 5.765625 -20.375 C 5.867188 -18.070312 5.921875 -16.6875 5.921875 -16.21875 L 5.984375 -16.21875 C 6.523438 -17.96875 7.144531 -19.160156 7.84375 -19.796875 C 8.550781 -20.441406 9.546875 -20.765625 10.828125 -20.765625 C 11.285156 -20.765625 11.742188 -20.695312 12.203125 -20.5625 L 12.203125 -17.46875 C 11.753906 -17.59375 11.148438 -17.65625 10.390625 -17.65625 C 8.984375 -17.65625 7.910156 -17.046875 7.171875 -15.828125 C 6.429688 -14.617188 6.0625 -12.882812 6.0625 -10.625 L 6.0625 0 Z M 2.671875 0 "/></g></g><g transform="translate(137.774228, 209.274977)"><g><path d="M 15.546875 0 L 15.546875 -12.921875 C 15.546875 -14.265625 15.410156 -15.304688 15.140625 -16.046875 C 14.878906 -16.785156 14.457031 -17.316406 13.875 -17.640625 C 13.300781 -17.972656 12.457031 -18.140625 11.34375 -18.140625 C 9.707031 -18.140625 8.414062 -17.578125 7.46875 -16.453125 C 6.53125 -15.335938 6.0625 -13.789062 6.0625 -11.8125 L 6.0625 0 L 2.671875 0 L 2.671875 -16.03125 C 2.671875 -18.40625 2.632812 -19.851562 2.5625 -20.375 L 5.765625 -20.375 C 5.773438 -20.3125 5.785156 -20.140625 5.796875 -19.859375 C 5.816406 -19.585938 5.832031 -19.273438 5.84375 -18.921875 C 5.863281 -18.566406 5.890625 -17.890625 5.921875 -16.890625 L 5.96875 -16.890625 C 6.75 -18.296875 7.648438 -19.289062 8.671875 -19.875 C 9.691406 -20.46875 10.960938 -20.765625 12.484375 -20.765625 C 14.722656 -20.765625 16.359375 -20.207031 17.390625 -19.09375 C 18.429688 -17.976562 18.953125 -16.140625 18.953125 -13.578125 L 18.953125 0 Z M 15.546875 0 "/></g></g><g transform="translate(159.230875, 209.274977)"><g><path d="M 5.203125 -9.46875 C 5.203125 -7.132812 5.679688 -5.332031 6.640625 -4.0625 C 7.609375 -2.800781 9.023438 -2.171875 10.890625 -2.171875 C 12.359375 -2.171875 13.535156 -2.460938 14.421875 -3.046875 C 15.304688 -3.640625 15.90625 -4.390625 16.21875 -5.296875 L 19.1875 -4.453125 C 17.976562 -1.234375 15.210938 0.375 10.890625 0.375 C 7.867188 0.375 5.570312 -0.519531 4 -2.3125 C 2.425781 -4.113281 1.640625 -6.785156 1.640625 -10.328125 C 1.640625 -13.691406 2.425781 -16.269531 4 -18.0625 C 5.570312 -19.863281 7.820312 -20.765625 10.75 -20.765625 C 16.738281 -20.765625 19.734375 -17.148438 19.734375 -9.921875 L 19.734375 -9.46875 Z M 16.234375 -12.078125 C 16.046875 -14.222656 15.5 -15.785156 14.59375 -16.765625 C 13.695312 -17.753906 12.398438 -18.25 10.703125 -18.25 C 9.054688 -18.25 7.75 -17.695312 6.78125 -16.59375 C 5.820312 -15.5 5.304688 -13.992188 5.234375 -12.078125 Z M 16.234375 -12.078125 "/></g></g><g transform="translate(180.687522, 209.274977)"><g><path d="M 3.59375 8 C 2.664062 8 1.890625 7.929688 1.265625 7.796875 L 1.265625 5.25 C 1.742188 5.332031 2.269531 5.375 2.84375 5.375 C 4.957031 5.375 6.628906 3.820312 7.859375 0.71875 L 8.171875 -0.09375 L 0.09375 -20.375 L 3.703125 -20.375 L 8 -9.109375 C 8.0625 -8.941406 8.132812 -8.734375 8.21875 -8.484375 C 8.3125 -8.242188 8.597656 -7.425781 9.078125 -6.03125 C 9.554688 -4.632812 9.816406 -3.851562 9.859375 -3.6875 L 11.171875 -7.40625 L 15.640625 -20.375 L 19.21875 -20.375 L 11.375 0 C 10.53125 2.175781 9.742188 3.789062 9.015625 4.84375 C 8.296875 5.90625 7.492188 6.695312 6.609375 7.21875 C 5.722656 7.738281 4.71875 8 3.59375 8 Z M 3.59375 8 "/></g></g></g></svg>