<svg xmlns="http://www.w3.org/2000/svg" xmlns:xlink="http://www.w3.org/1999/xlink" width="350" zoomAndPan="magnify" viewBox="0 0 262.5 374.999991" height="500" preserveAspectRatio="xMidYMid meet" version="1.0"><defs><g/><clipPath id="id1"><path d="M 14.910156 0.355469 L 247.410156 0.355469 L 247.410156 374.640625 L 14.910156 374.640625 Z M 14.910156 0.355469 " clip-rule="nonzero"/></clipPath><clipPath id="id2"><path d="M 14.910156 0.359375 L 247.410156 0.359375 L 247.410156 374.640625 L 14.910156 374.640625 Z M 14.910156 0.359375 " clip-rule="nonzero"/></clipPath><clipPath id="id3"><path d="M 247.410156 14.609375 L 247.410156 361.09375 C 247.410156 368.964844 241.027344 375.34375 233.152344 375.34375 L 29.171875 375.34375 C 21.296875 375.34375 14.910156 368.964844 14.910156 361.09375 L 14.910156 14.609375 C 14.910156 6.738281 21.296875 0.359375 29.171875 0.359375 L 233.152344 0.359375 C 241.027344 0.359375 247.410156 6.738281 247.410156 14.609375 " clip-rule="nonzero"/></clipPath><clipPath id="id4"><path d="M 33.644531 23.023438 L 228.644531 23.023438 L 228.644531 353.023438 L 33.644531 353.023438 Z M 33.644531 23.023438 " clip-rule="nonzero"/></clipPath><clipPath id="id5"><path d="M 33.644531 23.023438 L 228.644531 23.023438 L 228.644531 353.023438 L 33.644531 353.023438 Z M 33.644531 23.023438 " clip-rule="nonzero"/></clipPath><clipPath id="id6"><path d="M 228.644531 37.289062 L 228.644531 338.753906 C 228.644531 346.632812 222.257812 353.019531 214.382812 353.019531 L 47.910156 353.019531 C 40.03125 353.019531 33.644531 346.632812 33.644531 338.753906 L 33.644531 37.289062 C 33.644531 29.410156 40.03125 23.023438 47.910156 23.023438 L 214.382812 23.023438 C 222.257812 23.023438 228.644531 29.410156 228.644531 37.289062 " clip-rule="nonzero"/></clipPath></defs><g clip-path="url(#id1)"><path fill="#053d57" d="M 247.410156 14.609375 L 247.410156 361.09375 C 247.410156 368.964844 241.027344 375.34375 233.152344 375.34375 L 29.171875 375.34375 C 21.296875 375.34375 14.910156 368.964844 14.910156 361.09375 L 14.910156 14.609375 C 14.910156 6.738281 21.296875 0.359375 29.171875 0.359375 L 233.152344 0.359375 C 241.027344 0.359375 247.410156 6.738281 247.410156 14.609375 " fill-opacity="1" fill-rule="nonzero"/></g><g clip-path="url(#id2)"><g clip-path="url(#id3)"><path stroke-linecap="butt" transform="matrix(0.000000000000000046, 0.75, -0.750567, 0.000000000000000046, 247.412078, 0.35955)" fill="none" stroke-linejoin="miter" d="M 18.99977 0.00256062 L 480.978997 0.00256062 C 491.47379 0.00256062 499.978999 8.506543 499.978999 18.998605 L 499.978999 290.766952 C 499.978999 301.259014 491.47379 309.768201 480.978997 309.768201 L 18.99977 309.768201 C 8.504976 309.768201 -0.000232975 301.259014 -0.000232975 290.766952 L -0.000232975 18.998605 C -0.000232975 8.506543 8.504976 0.00256062 18.99977 0.00256062 " stroke="#000000" stroke-width="2" stroke-opacity="1" stroke-miterlimit="4"/></g></g><g clip-path="url(#id4)"><path fill="#f2f1ef" d="M 228.644531 37.289062 L 228.644531 338.753906 C 228.644531 346.632812 222.257812 353.019531 214.382812 353.019531 L 47.910156 353.019531 C 40.03125 353.019531 33.644531 346.632812 33.644531 338.753906 L 33.644531 37.289062 C 33.644531 29.410156 40.03125 23.023438 47.910156 23.023438 L 214.382812 23.023438 C 222.257812 23.023438 228.644531 29.410156 228.644531 37.289062 " fill-opacity="1" fill-rule="nonzero"/></g><g clip-path="url(#id5)"><g clip-path="url(#id6)"><path stroke-linecap="butt" transform="matrix(0.000000000000000046, 0.750773, -0.750767, 0.000000000000000046, 228.645807, 23.024645)" fill="none" stroke-linejoin="miter" d="M 18.99964 0.00169877 L 420.538897 0.00169877 C 431.033288 0.00169877 439.540145 8.508625 439.540145 18.997899 L 439.540145 240.734701 C 439.540145 251.229178 431.033288 259.736105 420.538897 259.736105 L 18.99964 259.736105 C 8.505248 259.736105 -0.00160847 251.229178 -0.00160847 240.734701 L -0.00160847 18.997899 C -0.00160847 8.508625 8.505248 0.00169877 18.99964 0.00169877 " stroke="#fd7702" stroke-width="4" stroke-opacity="1" stroke-miterlimit="4"/></g></g><g fill="#053d57" fill-opacity="1"><g transform="translate(64.73181, 121.856444)"><g><path d="M 14 0 L 14 -9.640625 C 14 -10.703125 14.03125 -11.726562 14.09375 -12.71875 C 13.757812 -11.488281 13.460938 -10.53125 13.203125 -9.84375 L 9.46875 0 L 8.09375 0 L 4.3125 -9.84375 L 3.734375 -11.59375 L 3.390625 -12.71875 L 3.421875 -11.578125 L 3.46875 -9.640625 L 3.46875 0 L 1.71875 0 L 1.71875 -14.453125 L 4.296875 -14.453125 L 8.140625 -4.4375 C 8.273438 -4.03125 8.40625 -3.59375 8.53125 -3.125 C 8.65625 -2.664062 8.738281 -2.335938 8.78125 -2.140625 C 8.84375 -2.410156 8.957031 -2.820312 9.125 -3.375 C 9.300781 -3.9375 9.421875 -4.289062 9.484375 -4.4375 L 13.265625 -14.453125 L 15.765625 -14.453125 L 15.765625 0 Z M 14 0 "/></g></g></g><g fill="#053d57" fill-opacity="1"><g transform="translate(82.21521, 121.856444)"><g><path d="M 10.796875 -5.5625 C 10.796875 -3.613281 10.367188 -2.164062 9.515625 -1.21875 C 8.660156 -0.269531 7.421875 0.203125 5.796875 0.203125 C 4.171875 0.203125 2.941406 -0.289062 2.109375 -1.28125 C 1.285156 -2.269531 0.875 -3.695312 0.875 -5.5625 C 0.875 -9.382812 2.535156 -11.296875 5.859375 -11.296875 C 7.546875 -11.296875 8.789062 -10.828125 9.59375 -9.890625 C 10.394531 -8.960938 10.796875 -7.519531 10.796875 -5.5625 Z M 8.859375 -5.5625 C 8.859375 -7.09375 8.628906 -8.203125 8.171875 -8.890625 C 7.722656 -9.585938 6.960938 -9.9375 5.890625 -9.9375 C 4.804688 -9.9375 4.019531 -9.582031 3.53125 -8.875 C 3.050781 -8.164062 2.8125 -7.0625 2.8125 -5.5625 C 2.8125 -4.09375 3.050781 -2.988281 3.53125 -2.25 C 4.007812 -1.519531 4.753906 -1.15625 5.765625 -1.15625 C 6.878906 -1.15625 7.671875 -1.507812 8.140625 -2.21875 C 8.617188 -2.9375 8.859375 -4.050781 8.859375 -5.5625 Z M 8.859375 -5.5625 "/></g></g></g><g fill="#053d57" fill-opacity="1"><g transform="translate(93.887896, 121.856444)"><g><path d="M 9.734375 -3.0625 C 9.734375 -2.019531 9.335938 -1.210938 8.546875 -0.640625 C 7.765625 -0.078125 6.660156 0.203125 5.234375 0.203125 C 3.859375 0.203125 2.796875 -0.0195312 2.046875 -0.46875 C 1.296875 -0.925781 0.804688 -1.640625 0.578125 -2.609375 L 2.21875 -2.921875 C 2.375 -2.328125 2.695312 -1.890625 3.1875 -1.609375 C 3.675781 -1.335938 4.359375 -1.203125 5.234375 -1.203125 C 6.171875 -1.203125 6.859375 -1.34375 7.296875 -1.625 C 7.734375 -1.914062 7.953125 -2.347656 7.953125 -2.921875 C 7.953125 -3.359375 7.800781 -3.710938 7.5 -3.984375 C 7.195312 -4.265625 6.710938 -4.492188 6.046875 -4.671875 L 4.71875 -5.015625 C 3.65625 -5.285156 2.898438 -5.550781 2.453125 -5.8125 C 2.003906 -6.082031 1.65625 -6.40625 1.40625 -6.78125 C 1.15625 -7.15625 1.03125 -7.613281 1.03125 -8.15625 C 1.03125 -9.175781 1.390625 -9.945312 2.109375 -10.46875 C 2.828125 -11 3.878906 -11.265625 5.265625 -11.265625 C 6.484375 -11.265625 7.453125 -11.050781 8.171875 -10.625 C 8.898438 -10.195312 9.359375 -9.503906 9.546875 -8.546875 L 7.890625 -8.34375 C 7.785156 -8.832031 7.507812 -9.207031 7.0625 -9.46875 C 6.613281 -9.738281 6.015625 -9.875 5.265625 -9.875 C 4.429688 -9.875 3.8125 -9.742188 3.40625 -9.484375 C 3.007812 -9.234375 2.8125 -8.851562 2.8125 -8.34375 C 2.8125 -8.03125 2.894531 -7.769531 3.0625 -7.5625 C 3.226562 -7.363281 3.472656 -7.191406 3.796875 -7.046875 C 4.117188 -6.898438 4.796875 -6.703125 5.828125 -6.453125 C 6.804688 -6.203125 7.507812 -5.972656 7.9375 -5.765625 C 8.363281 -5.554688 8.703125 -5.328125 8.953125 -5.078125 C 9.203125 -4.828125 9.394531 -4.535156 9.53125 -4.203125 C 9.664062 -3.867188 9.734375 -3.488281 9.734375 -3.0625 Z M 9.734375 -3.0625 "/></g></g></g><g fill="#053d57" fill-opacity="1"><g transform="translate(104.382035, 121.856444)"><g><path d="M 5.6875 -0.078125 C 5.070312 0.0859375 4.445312 0.171875 3.8125 0.171875 C 2.332031 0.171875 1.59375 -0.664062 1.59375 -2.34375 L 1.59375 -9.75 L 0.3125 -9.75 L 0.3125 -11.09375 L 1.671875 -11.09375 L 2.21875 -13.578125 L 3.453125 -13.578125 L 3.453125 -11.09375 L 5.5 -11.09375 L 5.5 -9.75 L 3.453125 -9.75 L 3.453125 -2.75 C 3.453125 -2.21875 3.535156 -1.84375 3.703125 -1.625 C 3.878906 -1.40625 4.179688 -1.296875 4.609375 -1.296875 C 4.859375 -1.296875 5.21875 -1.347656 5.6875 -1.453125 Z M 5.6875 -0.078125 "/></g></g></g><g fill="#053d57" fill-opacity="1"><g transform="translate(110.213257, 121.856444)"><g/></g></g><g fill="#053d57" fill-opacity="1"><g transform="translate(116.044479, 121.856444)"><g><path d="M 2.828125 -5.15625 C 2.828125 -3.882812 3.085938 -2.898438 3.609375 -2.203125 C 4.140625 -1.515625 4.910156 -1.171875 5.921875 -1.171875 C 6.722656 -1.171875 7.363281 -1.332031 7.84375 -1.65625 C 8.332031 -1.976562 8.660156 -2.382812 8.828125 -2.875 L 10.453125 -2.421875 C 9.785156 -0.671875 8.273438 0.203125 5.921875 0.203125 C 4.285156 0.203125 3.035156 -0.285156 2.171875 -1.265625 C 1.316406 -2.242188 0.890625 -3.695312 0.890625 -5.625 C 0.890625 -7.457031 1.316406 -8.859375 2.171875 -9.828125 C 3.035156 -10.804688 4.265625 -11.296875 5.859375 -11.296875 C 9.117188 -11.296875 10.75 -9.332031 10.75 -5.40625 L 10.75 -5.15625 Z M 8.84375 -6.578125 C 8.738281 -7.742188 8.4375 -8.59375 7.9375 -9.125 C 7.445312 -9.664062 6.742188 -9.9375 5.828125 -9.9375 C 4.929688 -9.9375 4.21875 -9.632812 3.6875 -9.03125 C 3.164062 -8.4375 2.882812 -7.617188 2.84375 -6.578125 Z M 8.84375 -6.578125 "/></g></g></g><g fill="#053d57" fill-opacity="1"><g transform="translate(127.717165, 121.856444)"><g><path d="M 8.453125 0 L 8.453125 -7.03125 C 8.453125 -7.757812 8.378906 -8.328125 8.234375 -8.734375 C 8.097656 -9.140625 7.867188 -9.429688 7.546875 -9.609375 C 7.234375 -9.785156 6.773438 -9.875 6.171875 -9.875 C 5.285156 -9.875 4.582031 -9.566406 4.0625 -8.953125 C 3.550781 -8.347656 3.296875 -7.503906 3.296875 -6.421875 L 3.296875 0 L 1.453125 0 L 1.453125 -8.71875 C 1.453125 -10.019531 1.429688 -10.8125 1.390625 -11.09375 L 3.140625 -11.09375 C 3.140625 -11.0625 3.144531 -10.96875 3.15625 -10.8125 C 3.164062 -10.664062 3.175781 -10.492188 3.1875 -10.296875 C 3.195312 -10.109375 3.207031 -9.742188 3.21875 -9.203125 L 3.25 -9.203125 C 3.675781 -9.960938 4.164062 -10.5 4.71875 -10.8125 C 5.28125 -11.132812 5.972656 -11.296875 6.796875 -11.296875 C 8.015625 -11.296875 8.90625 -10.992188 9.46875 -10.390625 C 10.03125 -9.785156 10.3125 -8.785156 10.3125 -7.390625 L 10.3125 0 Z M 8.453125 0 "/></g></g></g><g fill="#053d57" fill-opacity="1"><g transform="translate(139.389851, 121.856444)"><g><path d="M 5.625 4.359375 C 4.40625 4.359375 3.4375 4.117188 2.71875 3.640625 C 2.007812 3.171875 1.550781 2.5 1.34375 1.625 L 3.203125 1.359375 C 3.328125 1.867188 3.597656 2.257812 4.015625 2.53125 C 4.429688 2.8125 4.984375 2.953125 5.671875 2.953125 C 7.503906 2.953125 8.421875 1.875 8.421875 -0.28125 L 8.421875 -2.0625 L 8.40625 -2.0625 C 8.0625 -1.351562 7.582031 -0.816406 6.96875 -0.453125 C 6.363281 -0.0976562 5.65625 0.078125 4.84375 0.078125 C 3.476562 0.078125 2.472656 -0.367188 1.828125 -1.265625 C 1.191406 -2.171875 0.875 -3.59375 0.875 -5.53125 C 0.875 -7.488281 1.21875 -8.929688 1.90625 -9.859375 C 2.59375 -10.796875 3.640625 -11.265625 5.046875 -11.265625 C 5.828125 -11.265625 6.503906 -11.082031 7.078125 -10.71875 C 7.660156 -10.363281 8.109375 -9.859375 8.421875 -9.203125 L 8.453125 -9.203125 C 8.453125 -9.398438 8.460938 -9.75 8.484375 -10.25 C 8.515625 -10.757812 8.546875 -11.039062 8.578125 -11.09375 L 10.328125 -11.09375 C 10.285156 -10.726562 10.265625 -9.960938 10.265625 -8.796875 L 10.265625 -0.3125 C 10.265625 2.800781 8.71875 4.359375 5.625 4.359375 Z M 8.421875 -5.546875 C 8.421875 -6.453125 8.296875 -7.226562 8.046875 -7.875 C 7.804688 -8.53125 7.460938 -9.03125 7.015625 -9.375 C 6.566406 -9.71875 6.0625 -9.890625 5.5 -9.890625 C 4.550781 -9.890625 3.863281 -9.546875 3.4375 -8.859375 C 3.007812 -8.179688 2.796875 -7.078125 2.796875 -5.546875 C 2.796875 -4.023438 2.992188 -2.929688 3.390625 -2.265625 C 3.796875 -1.609375 4.488281 -1.28125 5.46875 -1.28125 C 6.050781 -1.28125 6.566406 -1.453125 7.015625 -1.796875 C 7.460938 -2.140625 7.804688 -2.628906 8.046875 -3.265625 C 8.296875 -3.898438 8.421875 -4.660156 8.421875 -5.546875 Z M 8.421875 -5.546875 "/></g></g></g><g fill="#053d57" fill-opacity="1"><g transform="translate(151.062537, 121.856444)"><g><path d="M 4.25 0.203125 C 3.132812 0.203125 2.296875 -0.0859375 1.734375 -0.671875 C 1.171875 -1.265625 0.890625 -2.070312 0.890625 -3.09375 C 0.890625 -4.238281 1.265625 -5.117188 2.015625 -5.734375 C 2.773438 -6.359375 4 -6.691406 5.6875 -6.734375 L 8.171875 -6.765625 L 8.171875 -7.375 C 8.171875 -8.269531 7.976562 -8.910156 7.59375 -9.296875 C 7.21875 -9.691406 6.617188 -9.890625 5.796875 -9.890625 C 4.960938 -9.890625 4.359375 -9.75 3.984375 -9.46875 C 3.609375 -9.1875 3.382812 -8.738281 3.3125 -8.125 L 1.390625 -8.3125 C 1.703125 -10.300781 3.179688 -11.296875 5.828125 -11.296875 C 7.222656 -11.296875 8.269531 -10.972656 8.96875 -10.328125 C 9.675781 -9.691406 10.03125 -8.769531 10.03125 -7.5625 L 10.03125 -2.796875 C 10.03125 -2.242188 10.101562 -1.828125 10.25 -1.546875 C 10.394531 -1.273438 10.671875 -1.140625 11.078125 -1.140625 C 11.253906 -1.140625 11.453125 -1.160156 11.671875 -1.203125 L 11.671875 -0.0625 C 11.210938 0.0507812 10.738281 0.109375 10.25 0.109375 C 9.570312 0.109375 9.078125 -0.0664062 8.765625 -0.421875 C 8.453125 -0.785156 8.273438 -1.351562 8.234375 -2.125 L 8.171875 -2.125 C 7.703125 -1.269531 7.15625 -0.664062 6.53125 -0.3125 C 5.90625 0.03125 5.144531 0.203125 4.25 0.203125 Z M 4.671875 -1.171875 C 5.347656 -1.171875 5.945312 -1.328125 6.46875 -1.640625 C 7 -1.953125 7.414062 -2.375 7.71875 -2.90625 C 8.019531 -3.445312 8.171875 -4 8.171875 -4.5625 L 8.171875 -5.46875 L 6.15625 -5.4375 C 5.28125 -5.425781 4.617188 -5.335938 4.171875 -5.171875 C 3.722656 -5.003906 3.378906 -4.75 3.140625 -4.40625 C 2.910156 -4.0625 2.796875 -3.613281 2.796875 -3.0625 C 2.796875 -2.457031 2.957031 -1.988281 3.28125 -1.65625 C 3.601562 -1.332031 4.066406 -1.171875 4.671875 -1.171875 Z M 4.671875 -1.171875 "/></g></g></g><g fill="#053d57" fill-opacity="1"><g transform="translate(162.735223, 121.856444)"><g><path d="M 5.625 4.359375 C 4.40625 4.359375 3.4375 4.117188 2.71875 3.640625 C 2.007812 3.171875 1.550781 2.5 1.34375 1.625 L 3.203125 1.359375 C 3.328125 1.867188 3.597656 2.257812 4.015625 2.53125 C 4.429688 2.8125 4.984375 2.953125 5.671875 2.953125 C 7.503906 2.953125 8.421875 1.875 8.421875 -0.28125 L 8.421875 -2.0625 L 8.40625 -2.0625 C 8.0625 -1.351562 7.582031 -0.816406 6.96875 -0.453125 C 6.363281 -0.0976562 5.65625 0.078125 4.84375 0.078125 C 3.476562 0.078125 2.472656 -0.367188 1.828125 -1.265625 C 1.191406 -2.171875 0.875 -3.59375 0.875 -5.53125 C 0.875 -7.488281 1.21875 -8.929688 1.90625 -9.859375 C 2.59375 -10.796875 3.640625 -11.265625 5.046875 -11.265625 C 5.828125 -11.265625 6.503906 -11.082031 7.078125 -10.71875 C 7.660156 -10.363281 8.109375 -9.859375 8.421875 -9.203125 L 8.453125 -9.203125 C 8.453125 -9.398438 8.460938 -9.75 8.484375 -10.25 C 8.515625 -10.757812 8.546875 -11.039062 8.578125 -11.09375 L 10.328125 -11.09375 C 10.285156 -10.726562 10.265625 -9.960938 10.265625 -8.796875 L 10.265625 -0.3125 C 10.265625 2.800781 8.71875 4.359375 5.625 4.359375 Z M 8.421875 -5.546875 C 8.421875 -6.453125 8.296875 -7.226562 8.046875 -7.875 C 7.804688 -8.53125 7.460938 -9.03125 7.015625 -9.375 C 6.566406 -9.71875 6.0625 -9.890625 5.5 -9.890625 C 4.550781 -9.890625 3.863281 -9.546875 3.4375 -8.859375 C 3.007812 -8.179688 2.796875 -7.078125 2.796875 -5.546875 C 2.796875 -4.023438 2.992188 -2.929688 3.390625 -2.265625 C 3.796875 -1.609375 4.488281 -1.28125 5.46875 -1.28125 C 6.050781 -1.28125 6.566406 -1.453125 7.015625 -1.796875 C 7.460938 -2.140625 7.804688 -2.628906 8.046875 -3.265625 C 8.296875 -3.898438 8.421875 -4.660156 8.421875 -5.546875 Z M 8.421875 -5.546875 "/></g></g></g><g fill="#053d57" fill-opacity="1"><g transform="translate(174.407909, 121.856444)"><g><path d="M 2.828125 -5.15625 C 2.828125 -3.882812 3.085938 -2.898438 3.609375 -2.203125 C 4.140625 -1.515625 4.910156 -1.171875 5.921875 -1.171875 C 6.722656 -1.171875 7.363281 -1.332031 7.84375 -1.65625 C 8.332031 -1.976562 8.660156 -2.382812 8.828125 -2.875 L 10.453125 -2.421875 C 9.785156 -0.671875 8.273438 0.203125 5.921875 0.203125 C 4.285156 0.203125 3.035156 -0.285156 2.171875 -1.265625 C 1.316406 -2.242188 0.890625 -3.695312 0.890625 -5.625 C 0.890625 -7.457031 1.316406 -8.859375 2.171875 -9.828125 C 3.035156 -10.804688 4.265625 -11.296875 5.859375 -11.296875 C 9.117188 -11.296875 10.75 -9.332031 10.75 -5.40625 L 10.75 -5.15625 Z M 8.84375 -6.578125 C 8.738281 -7.742188 8.4375 -8.59375 7.9375 -9.125 C 7.445312 -9.664062 6.742188 -9.9375 5.828125 -9.9375 C 4.929688 -9.9375 4.21875 -9.632812 3.6875 -9.03125 C 3.164062 -8.4375 2.882812 -7.617188 2.84375 -6.578125 Z M 8.84375 -6.578125 "/></g></g></g><g fill="#053d57" fill-opacity="1"><g transform="translate(186.080595, 121.856444)"><g><path d="M 8.421875 -1.78125 C 8.078125 -1.070312 7.625 -0.5625 7.0625 -0.25 C 6.5 0.0507812 5.800781 0.203125 4.96875 0.203125 C 3.5625 0.203125 2.523438 -0.265625 1.859375 -1.203125 C 1.203125 -2.148438 0.875 -3.582031 0.875 -5.5 C 0.875 -9.363281 2.238281 -11.296875 4.96875 -11.296875 C 5.800781 -11.296875 6.5 -11.140625 7.0625 -10.828125 C 7.625 -10.523438 8.078125 -10.039062 8.421875 -9.375 L 8.4375 -9.375 L 8.421875 -10.609375 L 8.421875 -15.21875 L 10.265625 -15.21875 L 10.265625 -2.28125 C 10.265625 -1.125 10.285156 -0.363281 10.328125 0 L 8.5625 0 C 8.539062 -0.113281 8.515625 -0.367188 8.484375 -0.765625 C 8.460938 -1.160156 8.453125 -1.5 8.453125 -1.78125 Z M 2.8125 -5.5625 C 2.8125 -4.007812 3.015625 -2.894531 3.421875 -2.21875 C 3.835938 -1.550781 4.507812 -1.21875 5.4375 -1.21875 C 6.476562 -1.21875 7.234375 -1.578125 7.703125 -2.296875 C 8.179688 -3.023438 8.421875 -4.15625 8.421875 -5.6875 C 8.421875 -7.15625 8.179688 -8.226562 7.703125 -8.90625 C 7.234375 -9.59375 6.484375 -9.9375 5.453125 -9.9375 C 4.523438 -9.9375 3.851562 -9.59375 3.4375 -8.90625 C 3.019531 -8.21875 2.8125 -7.101562 2.8125 -5.5625 Z M 2.8125 -5.5625 "/></g></g></g><g fill="#053d57" fill-opacity="1"><g transform="translate(55.415405, 151.10644)"><g><path d="M 12.03125 0 L 9.890625 0 L 7.953125 -7.84375 L 7.59375 -9.578125 C 7.53125 -9.265625 7.429688 -8.820312 7.296875 -8.25 C 7.171875 -7.675781 6.472656 -4.925781 5.203125 0 L 3.078125 0 L -0.03125 -11.09375 L 1.796875 -11.09375 L 3.671875 -3.5625 C 3.722656 -3.394531 3.867188 -2.71875 4.109375 -1.53125 L 4.28125 -2.28125 L 6.609375 -11.09375 L 8.578125 -11.09375 L 10.515625 -3.46875 L 11 -1.53125 L 11.3125 -2.953125 L 13.40625 -11.09375 L 15.21875 -11.09375 Z M 12.03125 0 "/></g></g></g><g fill="#053d57" fill-opacity="1"><g transform="translate(70.572473, 151.10644)"><g><path d="M 3.25 -9.203125 C 3.644531 -9.921875 4.117188 -10.445312 4.671875 -10.78125 C 5.234375 -11.125 5.941406 -11.296875 6.796875 -11.296875 C 8.003906 -11.296875 8.890625 -10.992188 9.453125 -10.390625 C 10.023438 -9.796875 10.3125 -8.796875 10.3125 -7.390625 L 10.3125 0 L 8.453125 0 L 8.453125 -7.03125 C 8.453125 -7.8125 8.378906 -8.390625 8.234375 -8.765625 C 8.097656 -9.148438 7.863281 -9.429688 7.53125 -9.609375 C 7.207031 -9.785156 6.753906 -9.875 6.171875 -9.875 C 5.304688 -9.875 4.609375 -9.570312 4.078125 -8.96875 C 3.554688 -8.363281 3.296875 -7.554688 3.296875 -6.546875 L 3.296875 0 L 1.453125 0 L 1.453125 -15.21875 L 3.296875 -15.21875 L 3.296875 -11.265625 C 3.296875 -10.847656 3.285156 -10.414062 3.265625 -9.96875 C 3.242188 -9.519531 3.226562 -9.265625 3.21875 -9.203125 Z M 3.25 -9.203125 "/></g></g></g><g fill="#053d57" fill-opacity="1"><g transform="translate(82.245159, 151.10644)"><g><path d="M 2.828125 -5.15625 C 2.828125 -3.882812 3.085938 -2.898438 3.609375 -2.203125 C 4.140625 -1.515625 4.910156 -1.171875 5.921875 -1.171875 C 6.722656 -1.171875 7.363281 -1.332031 7.84375 -1.65625 C 8.332031 -1.976562 8.660156 -2.382812 8.828125 -2.875 L 10.453125 -2.421875 C 9.785156 -0.671875 8.273438 0.203125 5.921875 0.203125 C 4.285156 0.203125 3.035156 -0.285156 2.171875 -1.265625 C 1.316406 -2.242188 0.890625 -3.695312 0.890625 -5.625 C 0.890625 -7.457031 1.316406 -8.859375 2.171875 -9.828125 C 3.035156 -10.804688 4.265625 -11.296875 5.859375 -11.296875 C 9.117188 -11.296875 10.75 -9.332031 10.75 -5.40625 L 10.75 -5.15625 Z M 8.84375 -6.578125 C 8.738281 -7.742188 8.4375 -8.59375 7.9375 -9.125 C 7.445312 -9.664062 6.742188 -9.9375 5.828125 -9.9375 C 4.929688 -9.9375 4.21875 -9.632812 3.6875 -9.03125 C 3.164062 -8.4375 2.882812 -7.617188 2.84375 -6.578125 Z M 8.84375 -6.578125 "/></g></g></g><g fill="#053d57" fill-opacity="1"><g transform="translate(93.917845, 151.10644)"><g><path d="M 8.453125 0 L 8.453125 -7.03125 C 8.453125 -7.757812 8.378906 -8.328125 8.234375 -8.734375 C 8.097656 -9.140625 7.867188 -9.429688 7.546875 -9.609375 C 7.234375 -9.785156 6.773438 -9.875 6.171875 -9.875 C 5.285156 -9.875 4.582031 -9.566406 4.0625 -8.953125 C 3.550781 -8.347656 3.296875 -7.503906 3.296875 -6.421875 L 3.296875 0 L 1.453125 0 L 1.453125 -8.71875 C 1.453125 -10.019531 1.429688 -10.8125 1.390625 -11.09375 L 3.140625 -11.09375 C 3.140625 -11.0625 3.144531 -10.96875 3.15625 -10.8125 C 3.164062 -10.664062 3.175781 -10.492188 3.1875 -10.296875 C 3.195312 -10.109375 3.207031 -9.742188 3.21875 -9.203125 L 3.25 -9.203125 C 3.675781 -9.960938 4.164062 -10.5 4.71875 -10.8125 C 5.28125 -11.132812 5.972656 -11.296875 6.796875 -11.296875 C 8.015625 -11.296875 8.90625 -10.992188 9.46875 -10.390625 C 10.03125 -9.785156 10.3125 -8.785156 10.3125 -7.390625 L 10.3125 0 Z M 8.453125 0 "/></g></g></g><g fill="#053d57" fill-opacity="1"><g transform="translate(105.590531, 151.10644)"><g/></g></g><g fill="#053d57" fill-opacity="1"><g transform="translate(111.421753, 151.10644)"><g><path d="M 2.8125 -5.59375 C 2.8125 -4.125 3.046875 -3.03125 3.515625 -2.3125 C 3.984375 -1.601562 4.6875 -1.25 5.625 -1.25 C 6.28125 -1.25 6.828125 -1.425781 7.265625 -1.78125 C 7.703125 -2.132812 7.972656 -2.679688 8.078125 -3.421875 L 9.953125 -3.296875 C 9.804688 -2.234375 9.347656 -1.382812 8.578125 -0.75 C 7.816406 -0.113281 6.847656 0.203125 5.671875 0.203125 C 4.117188 0.203125 2.929688 -0.285156 2.109375 -1.265625 C 1.296875 -2.242188 0.890625 -3.675781 0.890625 -5.5625 C 0.890625 -7.425781 1.300781 -8.847656 2.125 -9.828125 C 2.945312 -10.804688 4.125 -11.296875 5.65625 -11.296875 C 6.789062 -11.296875 7.726562 -11 8.46875 -10.40625 C 9.21875 -9.820312 9.691406 -9.015625 9.890625 -7.984375 L 7.984375 -7.84375 C 7.890625 -8.457031 7.644531 -8.945312 7.25 -9.3125 C 6.863281 -9.675781 6.3125 -9.859375 5.59375 -9.859375 C 4.613281 -9.859375 3.90625 -9.53125 3.46875 -8.875 C 3.03125 -8.226562 2.8125 -7.132812 2.8125 -5.59375 Z M 2.8125 -5.59375 "/></g></g></g><g fill="#053d57" fill-opacity="1"><g transform="translate(121.915892, 151.10644)"><g><path d="M 10.796875 -5.5625 C 10.796875 -3.613281 10.367188 -2.164062 9.515625 -1.21875 C 8.660156 -0.269531 7.421875 0.203125 5.796875 0.203125 C 4.171875 0.203125 2.941406 -0.289062 2.109375 -1.28125 C 1.285156 -2.269531 0.875 -3.695312 0.875 -5.5625 C 0.875 -9.382812 2.535156 -11.296875 5.859375 -11.296875 C 7.546875 -11.296875 8.789062 -10.828125 9.59375 -9.890625 C 10.394531 -8.960938 10.796875 -7.519531 10.796875 -5.5625 Z M 8.859375 -5.5625 C 8.859375 -7.09375 8.628906 -8.203125 8.171875 -8.890625 C 7.722656 -9.585938 6.960938 -9.9375 5.890625 -9.9375 C 4.804688 -9.9375 4.019531 -9.582031 3.53125 -8.875 C 3.050781 -8.164062 2.8125 -7.0625 2.8125 -5.5625 C 2.8125 -4.09375 3.050781 -2.988281 3.53125 -2.25 C 4.007812 -1.519531 4.753906 -1.15625 5.765625 -1.15625 C 6.878906 -1.15625 7.671875 -1.507812 8.140625 -2.21875 C 8.617188 -2.9375 8.859375 -4.050781 8.859375 -5.5625 Z M 8.859375 -5.5625 "/></g></g></g><g fill="#053d57" fill-opacity="1"><g transform="translate(133.588578, 151.10644)"><g><path d="M 7.875 0 L 7.875 -7.03125 C 7.875 -8.101562 7.726562 -8.84375 7.4375 -9.25 C 7.144531 -9.664062 6.613281 -9.875 5.84375 -9.875 C 5.0625 -9.875 4.441406 -9.570312 3.984375 -8.96875 C 3.523438 -8.363281 3.296875 -7.515625 3.296875 -6.421875 L 3.296875 0 L 1.453125 0 L 1.453125 -8.71875 C 1.453125 -10.019531 1.429688 -10.8125 1.390625 -11.09375 L 3.140625 -11.09375 C 3.140625 -11.0625 3.144531 -10.96875 3.15625 -10.8125 C 3.164062 -10.664062 3.175781 -10.492188 3.1875 -10.296875 C 3.195312 -10.109375 3.207031 -9.742188 3.21875 -9.203125 L 3.25 -9.203125 C 3.644531 -9.984375 4.097656 -10.523438 4.609375 -10.828125 C 5.128906 -11.140625 5.753906 -11.296875 6.484375 -11.296875 C 7.328125 -11.296875 7.992188 -11.128906 8.484375 -10.796875 C 8.972656 -10.460938 9.3125 -9.929688 9.5 -9.203125 L 9.53125 -9.203125 C 9.914062 -9.941406 10.378906 -10.472656 10.921875 -10.796875 C 11.460938 -11.128906 12.125 -11.296875 12.90625 -11.296875 C 14.019531 -11.296875 14.832031 -10.988281 15.34375 -10.375 C 15.851562 -9.769531 16.109375 -8.773438 16.109375 -7.390625 L 16.109375 0 L 14.28125 0 L 14.28125 -7.03125 C 14.28125 -8.101562 14.132812 -8.84375 13.84375 -9.25 C 13.550781 -9.664062 13.019531 -9.875 12.25 -9.875 C 11.445312 -9.875 10.820312 -9.570312 10.375 -8.96875 C 9.925781 -8.375 9.703125 -7.523438 9.703125 -6.421875 L 9.703125 0 Z M 7.875 0 "/></g></g></g><g fill="#053d57" fill-opacity="1"><g transform="translate(151.071978, 151.10644)"><g><path d="M 10.796875 -5.59375 C 10.796875 -1.726562 9.4375 0.203125 6.71875 0.203125 C 5.875 0.203125 5.171875 0.0507812 4.609375 -0.25 C 4.054688 -0.550781 3.609375 -1.039062 3.265625 -1.71875 L 3.234375 -1.71875 C 3.234375 -1.507812 3.21875 -1.1875 3.1875 -0.75 C 3.164062 -0.320312 3.148438 -0.0703125 3.140625 0 L 1.359375 0 C 1.398438 -0.363281 1.421875 -1.125 1.421875 -2.28125 L 1.421875 -15.21875 L 3.265625 -15.21875 L 3.265625 -10.875 C 3.265625 -10.4375 3.25 -9.914062 3.21875 -9.3125 L 3.265625 -9.3125 C 3.609375 -10.019531 4.0625 -10.523438 4.625 -10.828125 C 5.1875 -11.140625 5.882812 -11.296875 6.71875 -11.296875 C 8.113281 -11.296875 9.140625 -10.820312 9.796875 -9.875 C 10.460938 -8.9375 10.796875 -7.507812 10.796875 -5.59375 Z M 8.859375 -5.53125 C 8.859375 -7.082031 8.648438 -8.191406 8.234375 -8.859375 C 7.828125 -9.535156 7.164062 -9.875 6.25 -9.875 C 5.207031 -9.875 4.445312 -9.515625 3.96875 -8.796875 C 3.5 -8.085938 3.265625 -6.960938 3.265625 -5.421875 C 3.265625 -3.960938 3.492188 -2.882812 3.953125 -2.1875 C 4.421875 -1.5 5.175781 -1.15625 6.21875 -1.15625 C 7.15625 -1.15625 7.828125 -1.5 8.234375 -2.1875 C 8.648438 -2.875 8.859375 -3.988281 8.859375 -5.53125 Z M 8.859375 -5.53125 "/></g></g></g><g fill="#053d57" fill-opacity="1"><g transform="translate(162.744664, 151.10644)"><g><path d="M 1.40625 -13.453125 L 1.40625 -15.21875 L 3.25 -15.21875 L 3.25 -13.453125 Z M 1.40625 0 L 1.40625 -11.09375 L 3.25 -11.09375 L 3.25 0 Z M 1.40625 0 "/></g></g></g><g fill="#053d57" fill-opacity="1"><g transform="translate(167.407593, 151.10644)"><g><path d="M 8.453125 0 L 8.453125 -7.03125 C 8.453125 -7.757812 8.378906 -8.328125 8.234375 -8.734375 C 8.097656 -9.140625 7.867188 -9.429688 7.546875 -9.609375 C 7.234375 -9.785156 6.773438 -9.875 6.171875 -9.875 C 5.285156 -9.875 4.582031 -9.566406 4.0625 -8.953125 C 3.550781 -8.347656 3.296875 -7.503906 3.296875 -6.421875 L 3.296875 0 L 1.453125 0 L 1.453125 -8.71875 C 1.453125 -10.019531 1.429688 -10.8125 1.390625 -11.09375 L 3.140625 -11.09375 C 3.140625 -11.0625 3.144531 -10.96875 3.15625 -10.8125 C 3.164062 -10.664062 3.175781 -10.492188 3.1875 -10.296875 C 3.195312 -10.109375 3.207031 -9.742188 3.21875 -9.203125 L 3.25 -9.203125 C 3.675781 -9.960938 4.164062 -10.5 4.71875 -10.8125 C 5.28125 -11.132812 5.972656 -11.296875 6.796875 -11.296875 C 8.015625 -11.296875 8.90625 -10.992188 9.46875 -10.390625 C 10.03125 -9.785156 10.3125 -8.785156 10.3125 -7.390625 L 10.3125 0 Z M 8.453125 0 "/></g></g></g><g fill="#053d57" fill-opacity="1"><g transform="translate(179.080279, 151.10644)"><g><path d="M 1.40625 -13.453125 L 1.40625 -15.21875 L 3.25 -15.21875 L 3.25 -13.453125 Z M 1.40625 0 L 1.40625 -11.09375 L 3.25 -11.09375 L 3.25 0 Z M 1.40625 0 "/></g></g></g><g fill="#053d57" fill-opacity="1"><g transform="translate(183.743208, 151.10644)"><g><path d="M 8.453125 0 L 8.453125 -7.03125 C 8.453125 -7.757812 8.378906 -8.328125 8.234375 -8.734375 C 8.097656 -9.140625 7.867188 -9.429688 7.546875 -9.609375 C 7.234375 -9.785156 6.773438 -9.875 6.171875 -9.875 C 5.285156 -9.875 4.582031 -9.566406 4.0625 -8.953125 C 3.550781 -8.347656 3.296875 -7.503906 3.296875 -6.421875 L 3.296875 0 L 1.453125 0 L 1.453125 -8.71875 C 1.453125 -10.019531 1.429688 -10.8125 1.390625 -11.09375 L 3.140625 -11.09375 C 3.140625 -11.0625 3.144531 -10.96875 3.15625 -10.8125 C 3.164062 -10.664062 3.175781 -10.492188 3.1875 -10.296875 C 3.195312 -10.109375 3.207031 -9.742188 3.21875 -9.203125 L 3.25 -9.203125 C 3.675781 -9.960938 4.164062 -10.5 4.71875 -10.8125 C 5.28125 -11.132812 5.972656 -11.296875 6.796875 -11.296875 C 8.015625 -11.296875 8.90625 -10.992188 9.46875 -10.390625 C 10.03125 -9.785156 10.3125 -8.785156 10.3125 -7.390625 L 10.3125 0 Z M 8.453125 0 "/></g></g></g><g fill="#053d57" fill-opacity="1"><g transform="translate(195.415894, 151.10644)"><g><path d="M 5.625 4.359375 C 4.40625 4.359375 3.4375 4.117188 2.71875 3.640625 C 2.007812 3.171875 1.550781 2.5 1.34375 1.625 L 3.203125 1.359375 C 3.328125 1.867188 3.597656 2.257812 4.015625 2.53125 C 4.429688 2.8125 4.984375 2.953125 5.671875 2.953125 C 7.503906 2.953125 8.421875 1.875 8.421875 -0.28125 L 8.421875 -2.0625 L 8.40625 -2.0625 C 8.0625 -1.351562 7.582031 -0.816406 6.96875 -0.453125 C 6.363281 -0.0976562 5.65625 0.078125 4.84375 0.078125 C 3.476562 0.078125 2.472656 -0.367188 1.828125 -1.265625 C 1.191406 -2.171875 0.875 -3.59375 0.875 -5.53125 C 0.875 -7.488281 1.21875 -8.929688 1.90625 -9.859375 C 2.59375 -10.796875 3.640625 -11.265625 5.046875 -11.265625 C 5.828125 -11.265625 6.503906 -11.082031 7.078125 -10.71875 C 7.660156 -10.363281 8.109375 -9.859375 8.421875 -9.203125 L 8.453125 -9.203125 C 8.453125 -9.398438 8.460938 -9.75 8.484375 -10.25 C 8.515625 -10.757812 8.546875 -11.039062 8.578125 -11.09375 L 10.328125 -11.09375 C 10.285156 -10.726562 10.265625 -9.960938 10.265625 -8.796875 L 10.265625 -0.3125 C 10.265625 2.800781 8.71875 4.359375 5.625 4.359375 Z M 8.421875 -5.546875 C 8.421875 -6.453125 8.296875 -7.226562 8.046875 -7.875 C 7.804688 -8.53125 7.460938 -9.03125 7.015625 -9.375 C 6.566406 -9.71875 6.0625 -9.890625 5.5 -9.890625 C 4.550781 -9.890625 3.863281 -9.546875 3.4375 -8.859375 C 3.007812 -8.179688 2.796875 -7.078125 2.796875 -5.546875 C 2.796875 -4.023438 2.992188 -2.929688 3.390625 -2.265625 C 3.796875 -1.609375 4.488281 -1.28125 5.46875 -1.28125 C 6.050781 -1.28125 6.566406 -1.453125 7.015625 -1.796875 C 7.460938 -2.140625 7.804688 -2.628906 8.046875 -3.265625 C 8.296875 -3.898438 8.421875 -4.660156 8.421875 -5.546875 Z M 8.421875 -5.546875 "/></g></g></g><g fill="#053d57" fill-opacity="1"><g transform="translate(69.419309, 180.356436)"><g><path d="M 2.8125 -5.59375 C 2.8125 -4.125 3.046875 -3.03125 3.515625 -2.3125 C 3.984375 -1.601562 4.6875 -1.25 5.625 -1.25 C 6.28125 -1.25 6.828125 -1.425781 7.265625 -1.78125 C 7.703125 -2.132812 7.972656 -2.679688 8.078125 -3.421875 L 9.953125 -3.296875 C 9.804688 -2.234375 9.347656 -1.382812 8.578125 -0.75 C 7.816406 -0.113281 6.847656 0.203125 5.671875 0.203125 C 4.117188 0.203125 2.929688 -0.285156 2.109375 -1.265625 C 1.296875 -2.242188 0.890625 -3.675781 0.890625 -5.5625 C 0.890625 -7.425781 1.300781 -8.847656 2.125 -9.828125 C 2.945312 -10.804688 4.125 -11.296875 5.65625 -11.296875 C 6.789062 -11.296875 7.726562 -11 8.46875 -10.40625 C 9.21875 -9.820312 9.691406 -9.015625 9.890625 -7.984375 L 7.984375 -7.84375 C 7.890625 -8.457031 7.644531 -8.945312 7.25 -9.3125 C 6.863281 -9.675781 6.3125 -9.859375 5.59375 -9.859375 C 4.613281 -9.859375 3.90625 -9.53125 3.46875 -8.875 C 3.03125 -8.226562 2.8125 -7.132812 2.8125 -5.59375 Z M 2.8125 -5.59375 "/></g></g></g><g fill="#053d57" fill-opacity="1"><g transform="translate(79.913449, 180.356436)"><g><path d="M 1.453125 0 L 1.453125 -8.515625 C 1.453125 -9.296875 1.429688 -10.15625 1.390625 -11.09375 L 3.140625 -11.09375 C 3.191406 -9.832031 3.21875 -9.078125 3.21875 -8.828125 L 3.265625 -8.828125 C 3.554688 -9.773438 3.890625 -10.421875 4.265625 -10.765625 C 4.648438 -11.117188 5.191406 -11.296875 5.890625 -11.296875 C 6.140625 -11.296875 6.390625 -11.265625 6.640625 -11.203125 L 6.640625 -9.5 C 6.398438 -9.570312 6.070312 -9.609375 5.65625 -9.609375 C 4.894531 -9.609375 4.3125 -9.273438 3.90625 -8.609375 C 3.5 -7.953125 3.296875 -7.007812 3.296875 -5.78125 L 3.296875 0 Z M 1.453125 0 "/></g></g></g><g fill="#053d57" fill-opacity="1"><g transform="translate(86.902709, 180.356436)"><g><path d="M 2.828125 -5.15625 C 2.828125 -3.882812 3.085938 -2.898438 3.609375 -2.203125 C 4.140625 -1.515625 4.910156 -1.171875 5.921875 -1.171875 C 6.722656 -1.171875 7.363281 -1.332031 7.84375 -1.65625 C 8.332031 -1.976562 8.660156 -2.382812 8.828125 -2.875 L 10.453125 -2.421875 C 9.785156 -0.671875 8.273438 0.203125 5.921875 0.203125 C 4.285156 0.203125 3.035156 -0.285156 2.171875 -1.265625 C 1.316406 -2.242188 0.890625 -3.695312 0.890625 -5.625 C 0.890625 -7.457031 1.316406 -8.859375 2.171875 -9.828125 C 3.035156 -10.804688 4.265625 -11.296875 5.859375 -11.296875 C 9.117188 -11.296875 10.75 -9.332031 10.75 -5.40625 L 10.75 -5.15625 Z M 8.84375 -6.578125 C 8.738281 -7.742188 8.4375 -8.59375 7.9375 -9.125 C 7.445312 -9.664062 6.742188 -9.9375 5.828125 -9.9375 C 4.929688 -9.9375 4.21875 -9.632812 3.6875 -9.03125 C 3.164062 -8.4375 2.882812 -7.617188 2.84375 -6.578125 Z M 8.84375 -6.578125 "/></g></g></g><g fill="#053d57" fill-opacity="1"><g transform="translate(98.575395, 180.356436)"><g><path d="M 4.25 0.203125 C 3.132812 0.203125 2.296875 -0.0859375 1.734375 -0.671875 C 1.171875 -1.265625 0.890625 -2.070312 0.890625 -3.09375 C 0.890625 -4.238281 1.265625 -5.117188 2.015625 -5.734375 C 2.773438 -6.359375 4 -6.691406 5.6875 -6.734375 L 8.171875 -6.765625 L 8.171875 -7.375 C 8.171875 -8.269531 7.976562 -8.910156 7.59375 -9.296875 C 7.21875 -9.691406 6.617188 -9.890625 5.796875 -9.890625 C 4.960938 -9.890625 4.359375 -9.75 3.984375 -9.46875 C 3.609375 -9.1875 3.382812 -8.738281 3.3125 -8.125 L 1.390625 -8.3125 C 1.703125 -10.300781 3.179688 -11.296875 5.828125 -11.296875 C 7.222656 -11.296875 8.269531 -10.972656 8.96875 -10.328125 C 9.675781 -9.691406 10.03125 -8.769531 10.03125 -7.5625 L 10.03125 -2.796875 C 10.03125 -2.242188 10.101562 -1.828125 10.25 -1.546875 C 10.394531 -1.273438 10.671875 -1.140625 11.078125 -1.140625 C 11.253906 -1.140625 11.453125 -1.160156 11.671875 -1.203125 L 11.671875 -0.0625 C 11.210938 0.0507812 10.738281 0.109375 10.25 0.109375 C 9.570312 0.109375 9.078125 -0.0664062 8.765625 -0.421875 C 8.453125 -0.785156 8.273438 -1.351562 8.234375 -2.125 L 8.171875 -2.125 C 7.703125 -1.269531 7.15625 -0.664062 6.53125 -0.3125 C 5.90625 0.03125 5.144531 0.203125 4.25 0.203125 Z M 4.671875 -1.171875 C 5.347656 -1.171875 5.945312 -1.328125 6.46875 -1.640625 C 7 -1.953125 7.414062 -2.375 7.71875 -2.90625 C 8.019531 -3.445312 8.171875 -4 8.171875 -4.5625 L 8.171875 -5.46875 L 6.15625 -5.4375 C 5.28125 -5.425781 4.617188 -5.335938 4.171875 -5.171875 C 3.722656 -5.003906 3.378906 -4.75 3.140625 -4.40625 C 2.910156 -4.0625 2.796875 -3.613281 2.796875 -3.0625 C 2.796875 -2.457031 2.957031 -1.988281 3.28125 -1.65625 C 3.601562 -1.332031 4.066406 -1.171875 4.671875 -1.171875 Z M 4.671875 -1.171875 "/></g></g></g><g fill="#053d57" fill-opacity="1"><g transform="translate(110.248081, 180.356436)"><g><path d="M 5.6875 -0.078125 C 5.070312 0.0859375 4.445312 0.171875 3.8125 0.171875 C 2.332031 0.171875 1.59375 -0.664062 1.59375 -2.34375 L 1.59375 -9.75 L 0.3125 -9.75 L 0.3125 -11.09375 L 1.671875 -11.09375 L 2.21875 -13.578125 L 3.453125 -13.578125 L 3.453125 -11.09375 L 5.5 -11.09375 L 5.5 -9.75 L 3.453125 -9.75 L 3.453125 -2.75 C 3.453125 -2.21875 3.535156 -1.84375 3.703125 -1.625 C 3.878906 -1.40625 4.179688 -1.296875 4.609375 -1.296875 C 4.859375 -1.296875 5.21875 -1.347656 5.6875 -1.453125 Z M 5.6875 -0.078125 "/></g></g></g><g fill="#053d57" fill-opacity="1"><g transform="translate(116.079303, 180.356436)"><g><path d="M 1.40625 -13.453125 L 1.40625 -15.21875 L 3.25 -15.21875 L 3.25 -13.453125 Z M 1.40625 0 L 1.40625 -11.09375 L 3.25 -11.09375 L 3.25 0 Z M 1.40625 0 "/></g></g></g><g fill="#053d57" fill-opacity="1"><g transform="translate(120.742232, 180.356436)"><g><path d="M 6.28125 0 L 4.109375 0 L 0.078125 -11.09375 L 2.046875 -11.09375 L 4.484375 -3.875 C 4.566406 -3.601562 4.800781 -2.796875 5.1875 -1.453125 L 5.546875 -2.640625 L 5.953125 -3.859375 L 8.46875 -11.09375 L 10.421875 -11.09375 Z M 6.28125 0 "/></g></g></g><g fill="#053d57" fill-opacity="1"><g transform="translate(131.236371, 180.356436)"><g><path d="M 1.40625 -13.453125 L 1.40625 -15.21875 L 3.25 -15.21875 L 3.25 -13.453125 Z M 1.40625 0 L 1.40625 -11.09375 L 3.25 -11.09375 L 3.25 0 Z M 1.40625 0 "/></g></g></g><g fill="#053d57" fill-opacity="1"><g transform="translate(135.8993, 180.356436)"><g><path d="M 5.6875 -0.078125 C 5.070312 0.0859375 4.445312 0.171875 3.8125 0.171875 C 2.332031 0.171875 1.59375 -0.664062 1.59375 -2.34375 L 1.59375 -9.75 L 0.3125 -9.75 L 0.3125 -11.09375 L 1.671875 -11.09375 L 2.21875 -13.578125 L 3.453125 -13.578125 L 3.453125 -11.09375 L 5.5 -11.09375 L 5.5 -9.75 L 3.453125 -9.75 L 3.453125 -2.75 C 3.453125 -2.21875 3.535156 -1.84375 3.703125 -1.625 C 3.878906 -1.40625 4.179688 -1.296875 4.609375 -1.296875 C 4.859375 -1.296875 5.21875 -1.347656 5.6875 -1.453125 Z M 5.6875 -0.078125 "/></g></g></g><g fill="#053d57" fill-opacity="1"><g transform="translate(141.730522, 180.356436)"><g><path d="M 1.953125 4.359375 C 1.453125 4.359375 1.03125 4.320312 0.6875 4.25 L 0.6875 2.859375 C 0.945312 2.898438 1.234375 2.921875 1.546875 2.921875 C 2.691406 2.921875 3.601562 2.078125 4.28125 0.390625 L 4.453125 -0.046875 L 0.046875 -11.09375 L 2.015625 -11.09375 L 4.359375 -4.96875 C 4.390625 -4.863281 4.425781 -4.742188 4.46875 -4.609375 C 4.519531 -4.484375 4.675781 -4.039062 4.9375 -3.28125 C 5.195312 -2.519531 5.335938 -2.097656 5.359375 -2.015625 L 6.078125 -4.03125 L 8.515625 -11.09375 L 10.453125 -11.09375 L 6.1875 0 C 5.726562 1.1875 5.300781 2.066406 4.90625 2.640625 C 4.507812 3.210938 4.070312 3.640625 3.59375 3.921875 C 3.113281 4.210938 2.566406 4.359375 1.953125 4.359375 Z M 1.953125 4.359375 "/></g></g></g><g fill="#053d57" fill-opacity="1"><g transform="translate(152.224661, 180.356436)"><g/></g></g><g fill="#053d57" fill-opacity="1"><g transform="translate(158.055883, 180.356436)"><g><path d="M 4.25 0.203125 C 3.132812 0.203125 2.296875 -0.0859375 1.734375 -0.671875 C 1.171875 -1.265625 0.890625 -2.070312 0.890625 -3.09375 C 0.890625 -4.238281 1.265625 -5.117188 2.015625 -5.734375 C 2.773438 -6.359375 4 -6.691406 5.6875 -6.734375 L 8.171875 -6.765625 L 8.171875 -7.375 C 8.171875 -8.269531 7.976562 -8.910156 7.59375 -9.296875 C 7.21875 -9.691406 6.617188 -9.890625 5.796875 -9.890625 C 4.960938 -9.890625 4.359375 -9.75 3.984375 -9.46875 C 3.609375 -9.1875 3.382812 -8.738281 3.3125 -8.125 L 1.390625 -8.3125 C 1.703125 -10.300781 3.179688 -11.296875 5.828125 -11.296875 C 7.222656 -11.296875 8.269531 -10.972656 8.96875 -10.328125 C 9.675781 -9.691406 10.03125 -8.769531 10.03125 -7.5625 L 10.03125 -2.796875 C 10.03125 -2.242188 10.101562 -1.828125 10.25 -1.546875 C 10.394531 -1.273438 10.671875 -1.140625 11.078125 -1.140625 C 11.253906 -1.140625 11.453125 -1.160156 11.671875 -1.203125 L 11.671875 -0.0625 C 11.210938 0.0507812 10.738281 0.109375 10.25 0.109375 C 9.570312 0.109375 9.078125 -0.0664062 8.765625 -0.421875 C 8.453125 -0.785156 8.273438 -1.351562 8.234375 -2.125 L 8.171875 -2.125 C 7.703125 -1.269531 7.15625 -0.664062 6.53125 -0.3125 C 5.90625 0.03125 5.144531 0.203125 4.25 0.203125 Z M 4.671875 -1.171875 C 5.347656 -1.171875 5.945312 -1.328125 6.46875 -1.640625 C 7 -1.953125 7.414062 -2.375 7.71875 -2.90625 C 8.019531 -3.445312 8.171875 -4 8.171875 -4.5625 L 8.171875 -5.46875 L 6.15625 -5.4375 C 5.28125 -5.425781 4.617188 -5.335938 4.171875 -5.171875 C 3.722656 -5.003906 3.378906 -4.75 3.140625 -4.40625 C 2.910156 -4.0625 2.796875 -3.613281 2.796875 -3.0625 C 2.796875 -2.457031 2.957031 -1.988281 3.28125 -1.65625 C 3.601562 -1.332031 4.066406 -1.171875 4.671875 -1.171875 Z M 4.671875 -1.171875 "/></g></g></g><g fill="#053d57" fill-opacity="1"><g transform="translate(169.728569, 180.356436)"><g><path d="M 8.453125 0 L 8.453125 -7.03125 C 8.453125 -7.757812 8.378906 -8.328125 8.234375 -8.734375 C 8.097656 -9.140625 7.867188 -9.429688 7.546875 -9.609375 C 7.234375 -9.785156 6.773438 -9.875 6.171875 -9.875 C 5.285156 -9.875 4.582031 -9.566406 4.0625 -8.953125 C 3.550781 -8.347656 3.296875 -7.503906 3.296875 -6.421875 L 3.296875 0 L 1.453125 0 L 1.453125 -8.71875 C 1.453125 -10.019531 1.429688 -10.8125 1.390625 -11.09375 L 3.140625 -11.09375 C 3.140625 -11.0625 3.144531 -10.96875 3.15625 -10.8125 C 3.164062 -10.664062 3.175781 -10.492188 3.1875 -10.296875 C 3.195312 -10.109375 3.207031 -9.742188 3.21875 -9.203125 L 3.25 -9.203125 C 3.675781 -9.960938 4.164062 -10.5 4.71875 -10.8125 C 5.28125 -11.132812 5.972656 -11.296875 6.796875 -11.296875 C 8.015625 -11.296875 8.90625 -10.992188 9.46875 -10.390625 C 10.03125 -9.785156 10.3125 -8.785156 10.3125 -7.390625 L 10.3125 0 Z M 8.453125 0 "/></g></g></g><g fill="#053d57" fill-opacity="1"><g transform="translate(181.401255, 180.356436)"><g><path d="M 8.421875 -1.78125 C 8.078125 -1.070312 7.625 -0.5625 7.0625 -0.25 C 6.5 0.0507812 5.800781 0.203125 4.96875 0.203125 C 3.5625 0.203125 2.523438 -0.265625 1.859375 -1.203125 C 1.203125 -2.148438 0.875 -3.582031 0.875 -5.5 C 0.875 -9.363281 2.238281 -11.296875 4.96875 -11.296875 C 5.800781 -11.296875 6.5 -11.140625 7.0625 -10.828125 C 7.625 -10.523438 8.078125 -10.039062 8.421875 -9.375 L 8.4375 -9.375 L 8.421875 -10.609375 L 8.421875 -15.21875 L 10.265625 -15.21875 L 10.265625 -2.28125 C 10.265625 -1.125 10.285156 -0.363281 10.328125 0 L 8.5625 0 C 8.539062 -0.113281 8.515625 -0.367188 8.484375 -0.765625 C 8.460938 -1.160156 8.453125 -1.5 8.453125 -1.78125 Z M 2.8125 -5.5625 C 2.8125 -4.007812 3.015625 -2.894531 3.421875 -2.21875 C 3.835938 -1.550781 4.507812 -1.21875 5.4375 -1.21875 C 6.476562 -1.21875 7.234375 -1.578125 7.703125 -2.296875 C 8.179688 -3.023438 8.421875 -4.15625 8.421875 -5.6875 C 8.421875 -7.15625 8.179688 -8.226562 7.703125 -8.90625 C 7.234375 -9.59375 6.484375 -9.9375 5.453125 -9.9375 C 4.523438 -9.9375 3.851562 -9.59375 3.4375 -8.90625 C 3.019531 -8.21875 2.8125 -7.101562 2.8125 -5.5625 Z M 2.8125 -5.5625 "/></g></g></g><g fill="#053d57" fill-opacity="1"><g transform="translate(58.907592, 209.606432)"><g><path d="M 1.421875 0 L 1.421875 -15.21875 L 3.265625 -15.21875 L 3.265625 0 Z M 1.421875 0 "/></g></g></g><g fill="#053d57" fill-opacity="1"><g transform="translate(63.570521, 209.606432)"><g><path d="M 10.796875 -5.5625 C 10.796875 -3.613281 10.367188 -2.164062 9.515625 -1.21875 C 8.660156 -0.269531 7.421875 0.203125 5.796875 0.203125 C 4.171875 0.203125 2.941406 -0.289062 2.109375 -1.28125 C 1.285156 -2.269531 0.875 -3.695312 0.875 -5.5625 C 0.875 -9.382812 2.535156 -11.296875 5.859375 -11.296875 C 7.546875 -11.296875 8.789062 -10.828125 9.59375 -9.890625 C 10.394531 -8.960938 10.796875 -7.519531 10.796875 -5.5625 Z M 8.859375 -5.5625 C 8.859375 -7.09375 8.628906 -8.203125 8.171875 -8.890625 C 7.722656 -9.585938 6.960938 -9.9375 5.890625 -9.9375 C 4.804688 -9.9375 4.019531 -9.582031 3.53125 -8.875 C 3.050781 -8.164062 2.8125 -7.0625 2.8125 -5.5625 C 2.8125 -4.09375 3.050781 -2.988281 3.53125 -2.25 C 4.007812 -1.519531 4.753906 -1.15625 5.765625 -1.15625 C 6.878906 -1.15625 7.671875 -1.507812 8.140625 -2.21875 C 8.617188 -2.9375 8.859375 -4.050781 8.859375 -5.5625 Z M 8.859375 -5.5625 "/></g></g></g><g fill="#053d57" fill-opacity="1"><g transform="translate(75.243207, 209.606432)"><g><path d="M 5.625 4.359375 C 4.40625 4.359375 3.4375 4.117188 2.71875 3.640625 C 2.007812 3.171875 1.550781 2.5 1.34375 1.625 L 3.203125 1.359375 C 3.328125 1.867188 3.597656 2.257812 4.015625 2.53125 C 4.429688 2.8125 4.984375 2.953125 5.671875 2.953125 C 7.503906 2.953125 8.421875 1.875 8.421875 -0.28125 L 8.421875 -2.0625 L 8.40625 -2.0625 C 8.0625 -1.351562 7.582031 -0.816406 6.96875 -0.453125 C 6.363281 -0.0976562 5.65625 0.078125 4.84375 0.078125 C 3.476562 0.078125 2.472656 -0.367188 1.828125 -1.265625 C 1.191406 -2.171875 0.875 -3.59375 0.875 -5.53125 C 0.875 -7.488281 1.21875 -8.929688 1.90625 -9.859375 C 2.59375 -10.796875 3.640625 -11.265625 5.046875 -11.265625 C 5.828125 -11.265625 6.503906 -11.082031 7.078125 -10.71875 C 7.660156 -10.363281 8.109375 -9.859375 8.421875 -9.203125 L 8.453125 -9.203125 C 8.453125 -9.398438 8.460938 -9.75 8.484375 -10.25 C 8.515625 -10.757812 8.546875 -11.039062 8.578125 -11.09375 L 10.328125 -11.09375 C 10.285156 -10.726562 10.265625 -9.960938 10.265625 -8.796875 L 10.265625 -0.3125 C 10.265625 2.800781 8.71875 4.359375 5.625 4.359375 Z M 8.421875 -5.546875 C 8.421875 -6.453125 8.296875 -7.226562 8.046875 -7.875 C 7.804688 -8.53125 7.460938 -9.03125 7.015625 -9.375 C 6.566406 -9.71875 6.0625 -9.890625 5.5 -9.890625 C 4.550781 -9.890625 3.863281 -9.546875 3.4375 -8.859375 C 3.007812 -8.179688 2.796875 -7.078125 2.796875 -5.546875 C 2.796875 -4.023438 2.992188 -2.929688 3.390625 -2.265625 C 3.796875 -1.609375 4.488281 -1.28125 5.46875 -1.28125 C 6.050781 -1.28125 6.566406 -1.453125 7.015625 -1.796875 C 7.460938 -2.140625 7.804688 -2.628906 8.046875 -3.265625 C 8.296875 -3.898438 8.421875 -4.660156 8.421875 -5.546875 Z M 8.421875 -5.546875 "/></g></g></g><g fill="#053d57" fill-opacity="1"><g transform="translate(86.915893, 209.606432)"><g><path d="M 1.40625 -13.453125 L 1.40625 -15.21875 L 3.25 -15.21875 L 3.25 -13.453125 Z M 1.40625 0 L 1.40625 -11.09375 L 3.25 -11.09375 L 3.25 0 Z M 1.40625 0 "/></g></g></g><g fill="#053d57" fill-opacity="1"><g transform="translate(91.578822, 209.606432)"><g><path d="M 2.8125 -5.59375 C 2.8125 -4.125 3.046875 -3.03125 3.515625 -2.3125 C 3.984375 -1.601562 4.6875 -1.25 5.625 -1.25 C 6.28125 -1.25 6.828125 -1.425781 7.265625 -1.78125 C 7.703125 -2.132812 7.972656 -2.679688 8.078125 -3.421875 L 9.953125 -3.296875 C 9.804688 -2.234375 9.347656 -1.382812 8.578125 -0.75 C 7.816406 -0.113281 6.847656 0.203125 5.671875 0.203125 C 4.117188 0.203125 2.929688 -0.285156 2.109375 -1.265625 C 1.296875 -2.242188 0.890625 -3.675781 0.890625 -5.5625 C 0.890625 -7.425781 1.300781 -8.847656 2.125 -9.828125 C 2.945312 -10.804688 4.125 -11.296875 5.65625 -11.296875 C 6.789062 -11.296875 7.726562 -11 8.46875 -10.40625 C 9.21875 -9.820312 9.691406 -9.015625 9.890625 -7.984375 L 7.984375 -7.84375 C 7.890625 -8.457031 7.644531 -8.945312 7.25 -9.3125 C 6.863281 -9.675781 6.3125 -9.859375 5.59375 -9.859375 C 4.613281 -9.859375 3.90625 -9.53125 3.46875 -8.875 C 3.03125 -8.226562 2.8125 -7.132812 2.8125 -5.59375 Z M 2.8125 -5.59375 "/></g></g></g><g fill="#053d57" fill-opacity="1"><g transform="translate(102.072961, 209.606432)"><g/></g></g><g fill="#053d57" fill-opacity="1"><g transform="translate(107.904183, 209.606432)"><g><path d="M 5.6875 -0.078125 C 5.070312 0.0859375 4.445312 0.171875 3.8125 0.171875 C 2.332031 0.171875 1.59375 -0.664062 1.59375 -2.34375 L 1.59375 -9.75 L 0.3125 -9.75 L 0.3125 -11.09375 L 1.671875 -11.09375 L 2.21875 -13.578125 L 3.453125 -13.578125 L 3.453125 -11.09375 L 5.5 -11.09375 L 5.5 -9.75 L 3.453125 -9.75 L 3.453125 -2.75 C 3.453125 -2.21875 3.535156 -1.84375 3.703125 -1.625 C 3.878906 -1.40625 4.179688 -1.296875 4.609375 -1.296875 C 4.859375 -1.296875 5.21875 -1.347656 5.6875 -1.453125 Z M 5.6875 -0.078125 "/></g></g></g><g fill="#053d57" fill-opacity="1"><g transform="translate(113.735405, 209.606432)"><g><path d="M 10.796875 -5.5625 C 10.796875 -3.613281 10.367188 -2.164062 9.515625 -1.21875 C 8.660156 -0.269531 7.421875 0.203125 5.796875 0.203125 C 4.171875 0.203125 2.941406 -0.289062 2.109375 -1.28125 C 1.285156 -2.269531 0.875 -3.695312 0.875 -5.5625 C 0.875 -9.382812 2.535156 -11.296875 5.859375 -11.296875 C 7.546875 -11.296875 8.789062 -10.828125 9.59375 -9.890625 C 10.394531 -8.960938 10.796875 -7.519531 10.796875 -5.5625 Z M 8.859375 -5.5625 C 8.859375 -7.09375 8.628906 -8.203125 8.171875 -8.890625 C 7.722656 -9.585938 6.960938 -9.9375 5.890625 -9.9375 C 4.804688 -9.9375 4.019531 -9.582031 3.53125 -8.875 C 3.050781 -8.164062 2.8125 -7.0625 2.8125 -5.5625 C 2.8125 -4.09375 3.050781 -2.988281 3.53125 -2.25 C 4.007812 -1.519531 4.753906 -1.15625 5.765625 -1.15625 C 6.878906 -1.15625 7.671875 -1.507812 8.140625 -2.21875 C 8.617188 -2.9375 8.859375 -4.050781 8.859375 -5.5625 Z M 8.859375 -5.5625 "/></g></g></g><g fill="#053d57" fill-opacity="1"><g transform="translate(125.408091, 209.606432)"><g/></g></g><g fill="#053d57" fill-opacity="1"><g transform="translate(131.239312, 209.606432)"><g><path d="M 4.25 0.203125 C 3.132812 0.203125 2.296875 -0.0859375 1.734375 -0.671875 C 1.171875 -1.265625 0.890625 -2.070312 0.890625 -3.09375 C 0.890625 -4.238281 1.265625 -5.117188 2.015625 -5.734375 C 2.773438 -6.359375 4 -6.691406 5.6875 -6.734375 L 8.171875 -6.765625 L 8.171875 -7.375 C 8.171875 -8.269531 7.976562 -8.910156 7.59375 -9.296875 C 7.21875 -9.691406 6.617188 -9.890625 5.796875 -9.890625 C 4.960938 -9.890625 4.359375 -9.75 3.984375 -9.46875 C 3.609375 -9.1875 3.382812 -8.738281 3.3125 -8.125 L 1.390625 -8.3125 C 1.703125 -10.300781 3.179688 -11.296875 5.828125 -11.296875 C 7.222656 -11.296875 8.269531 -10.972656 8.96875 -10.328125 C 9.675781 -9.691406 10.03125 -8.769531 10.03125 -7.5625 L 10.03125 -2.796875 C 10.03125 -2.242188 10.101562 -1.828125 10.25 -1.546875 C 10.394531 -1.273438 10.671875 -1.140625 11.078125 -1.140625 C 11.253906 -1.140625 11.453125 -1.160156 11.671875 -1.203125 L 11.671875 -0.0625 C 11.210938 0.0507812 10.738281 0.109375 10.25 0.109375 C 9.570312 0.109375 9.078125 -0.0664062 8.765625 -0.421875 C 8.453125 -0.785156 8.273438 -1.351562 8.234375 -2.125 L 8.171875 -2.125 C 7.703125 -1.269531 7.15625 -0.664062 6.53125 -0.3125 C 5.90625 0.03125 5.144531 0.203125 4.25 0.203125 Z M 4.671875 -1.171875 C 5.347656 -1.171875 5.945312 -1.328125 6.46875 -1.640625 C 7 -1.953125 7.414062 -2.375 7.71875 -2.90625 C 8.019531 -3.445312 8.171875 -4 8.171875 -4.5625 L 8.171875 -5.46875 L 6.15625 -5.4375 C 5.28125 -5.425781 4.617188 -5.335938 4.171875 -5.171875 C 3.722656 -5.003906 3.378906 -4.75 3.140625 -4.40625 C 2.910156 -4.0625 2.796875 -3.613281 2.796875 -3.0625 C 2.796875 -2.457031 2.957031 -1.988281 3.28125 -1.65625 C 3.601562 -1.332031 4.066406 -1.171875 4.671875 -1.171875 Z M 4.671875 -1.171875 "/></g></g></g><g fill="#053d57" fill-opacity="1"><g transform="translate(142.911998, 209.606432)"><g><path d="M 2.8125 -5.59375 C 2.8125 -4.125 3.046875 -3.03125 3.515625 -2.3125 C 3.984375 -1.601562 4.6875 -1.25 5.625 -1.25 C 6.28125 -1.25 6.828125 -1.425781 7.265625 -1.78125 C 7.703125 -2.132812 7.972656 -2.679688 8.078125 -3.421875 L 9.953125 -3.296875 C 9.804688 -2.234375 9.347656 -1.382812 8.578125 -0.75 C 7.816406 -0.113281 6.847656 0.203125 5.671875 0.203125 C 4.117188 0.203125 2.929688 -0.285156 2.109375 -1.265625 C 1.296875 -2.242188 0.890625 -3.675781 0.890625 -5.5625 C 0.890625 -7.425781 1.300781 -8.847656 2.125 -9.828125 C 2.945312 -10.804688 4.125 -11.296875 5.65625 -11.296875 C 6.789062 -11.296875 7.726562 -11 8.46875 -10.40625 C 9.21875 -9.820312 9.691406 -9.015625 9.890625 -7.984375 L 7.984375 -7.84375 C 7.890625 -8.457031 7.644531 -8.945312 7.25 -9.3125 C 6.863281 -9.675781 6.3125 -9.859375 5.59375 -9.859375 C 4.613281 -9.859375 3.90625 -9.53125 3.46875 -8.875 C 3.03125 -8.226562 2.8125 -7.132812 2.8125 -5.59375 Z M 2.8125 -5.59375 "/></g></g></g><g fill="#053d57" fill-opacity="1"><g transform="translate(153.406138, 209.606432)"><g><path d="M 3.25 -9.203125 C 3.644531 -9.921875 4.117188 -10.445312 4.671875 -10.78125 C 5.234375 -11.125 5.941406 -11.296875 6.796875 -11.296875 C 8.003906 -11.296875 8.890625 -10.992188 9.453125 -10.390625 C 10.023438 -9.796875 10.3125 -8.796875 10.3125 -7.390625 L 10.3125 0 L 8.453125 0 L 8.453125 -7.03125 C 8.453125 -7.8125 8.378906 -8.390625 8.234375 -8.765625 C 8.097656 -9.148438 7.863281 -9.429688 7.53125 -9.609375 C 7.207031 -9.785156 6.753906 -9.875 6.171875 -9.875 C 5.304688 -9.875 4.609375 -9.570312 4.078125 -8.96875 C 3.554688 -8.363281 3.296875 -7.554688 3.296875 -6.546875 L 3.296875 0 L 1.453125 0 L 1.453125 -15.21875 L 3.296875 -15.21875 L 3.296875 -11.265625 C 3.296875 -10.847656 3.285156 -10.414062 3.265625 -9.96875 C 3.242188 -9.519531 3.226562 -9.265625 3.21875 -9.203125 Z M 3.25 -9.203125 "/></g></g></g><g fill="#053d57" fill-opacity="1"><g transform="translate(165.078824, 209.606432)"><g><path d="M 1.40625 -13.453125 L 1.40625 -15.21875 L 3.25 -15.21875 L 3.25 -13.453125 Z M 1.40625 0 L 1.40625 -11.09375 L 3.25 -11.09375 L 3.25 0 Z M 1.40625 0 "/></g></g></g><g fill="#053d57" fill-opacity="1"><g transform="translate(169.741753, 209.606432)"><g><path d="M 2.828125 -5.15625 C 2.828125 -3.882812 3.085938 -2.898438 3.609375 -2.203125 C 4.140625 -1.515625 4.910156 -1.171875 5.921875 -1.171875 C 6.722656 -1.171875 7.363281 -1.332031 7.84375 -1.65625 C 8.332031 -1.976562 8.660156 -2.382812 8.828125 -2.875 L 10.453125 -2.421875 C 9.785156 -0.671875 8.273438 0.203125 5.921875 0.203125 C 4.285156 0.203125 3.035156 -0.285156 2.171875 -1.265625 C 1.316406 -2.242188 0.890625 -3.695312 0.890625 -5.625 C 0.890625 -7.457031 1.316406 -8.859375 2.171875 -9.828125 C 3.035156 -10.804688 4.265625 -11.296875 5.859375 -11.296875 C 9.117188 -11.296875 10.75 -9.332031 10.75 -5.40625 L 10.75 -5.15625 Z M 8.84375 -6.578125 C 8.738281 -7.742188 8.4375 -8.59375 7.9375 -9.125 C 7.445312 -9.664062 6.742188 -9.9375 5.828125 -9.9375 C 4.929688 -9.9375 4.21875 -9.632812 3.6875 -9.03125 C 3.164062 -8.4375 2.882812 -7.617188 2.84375 -6.578125 Z M 8.84375 -6.578125 "/></g></g></g><g fill="#053d57" fill-opacity="1"><g transform="translate(181.414439, 209.606432)"><g><path d="M 6.28125 0 L 4.109375 0 L 0.078125 -11.09375 L 2.046875 -11.09375 L 4.484375 -3.875 C 4.566406 -3.601562 4.800781 -2.796875 5.1875 -1.453125 L 5.546875 -2.640625 L 5.953125 -3.859375 L 8.46875 -11.09375 L 10.421875 -11.09375 Z M 6.28125 0 "/></g></g></g><g fill="#053d57" fill-opacity="1"><g transform="translate(191.908578, 209.606432)"><g><path d="M 2.828125 -5.15625 C 2.828125 -3.882812 3.085938 -2.898438 3.609375 -2.203125 C 4.140625 -1.515625 4.910156 -1.171875 5.921875 -1.171875 C 6.722656 -1.171875 7.363281 -1.332031 7.84375 -1.65625 C 8.332031 -1.976562 8.660156 -2.382812 8.828125 -2.875 L 10.453125 -2.421875 C 9.785156 -0.671875 8.273438 0.203125 5.921875 0.203125 C 4.285156 0.203125 3.035156 -0.285156 2.171875 -1.265625 C 1.316406 -2.242188 0.890625 -3.695312 0.890625 -5.625 C 0.890625 -7.457031 1.316406 -8.859375 2.171875 -9.828125 C 3.035156 -10.804688 4.265625 -11.296875 5.859375 -11.296875 C 9.117188 -11.296875 10.75 -9.332031 10.75 -5.40625 L 10.75 -5.15625 Z M 8.84375 -6.578125 C 8.738281 -7.742188 8.4375 -8.59375 7.9375 -9.125 C 7.445312 -9.664062 6.742188 -9.9375 5.828125 -9.9375 C 4.929688 -9.9375 4.21875 -9.632812 3.6875 -9.03125 C 3.164062 -8.4375 2.882812 -7.617188 2.84375 -6.578125 Z M 8.84375 -6.578125 "/></g></g></g><g fill="#053d57" fill-opacity="1"><g transform="translate(58.895873, 238.856428)"><g><path d="M 3.21875 -11.09375 L 3.21875 -4.0625 C 3.21875 -3.332031 3.289062 -2.765625 3.4375 -2.359375 C 3.582031 -1.953125 3.8125 -1.660156 4.125 -1.484375 C 4.4375 -1.304688 4.894531 -1.21875 5.5 -1.21875 C 6.394531 -1.21875 7.097656 -1.519531 7.609375 -2.125 C 8.117188 -2.738281 8.375 -3.585938 8.375 -4.671875 L 8.375 -11.09375 L 10.21875 -11.09375 L 10.21875 -2.375 C 10.21875 -1.082031 10.238281 -0.289062 10.28125 0 L 8.546875 0 C 8.535156 -0.03125 8.523438 -0.117188 8.515625 -0.265625 C 8.515625 -0.421875 8.507812 -0.597656 8.5 -0.796875 C 8.488281 -0.992188 8.472656 -1.359375 8.453125 -1.890625 L 8.421875 -1.890625 C 8.003906 -1.128906 7.515625 -0.585938 6.953125 -0.265625 C 6.398438 0.046875 5.707031 0.203125 4.875 0.203125 C 3.664062 0.203125 2.773438 -0.0976562 2.203125 -0.703125 C 1.640625 -1.304688 1.359375 -2.304688 1.359375 -3.703125 L 1.359375 -11.09375 Z M 3.21875 -11.09375 "/></g></g></g><g fill="#053d57" fill-opacity="1"><g transform="translate(70.568559, 238.856428)"><g><path d="M 8.453125 0 L 8.453125 -7.03125 C 8.453125 -7.757812 8.378906 -8.328125 8.234375 -8.734375 C 8.097656 -9.140625 7.867188 -9.429688 7.546875 -9.609375 C 7.234375 -9.785156 6.773438 -9.875 6.171875 -9.875 C 5.285156 -9.875 4.582031 -9.566406 4.0625 -8.953125 C 3.550781 -8.347656 3.296875 -7.503906 3.296875 -6.421875 L 3.296875 0 L 1.453125 0 L 1.453125 -8.71875 C 1.453125 -10.019531 1.429688 -10.8125 1.390625 -11.09375 L 3.140625 -11.09375 C 3.140625 -11.0625 3.144531 -10.96875 3.15625 -10.8125 C 3.164062 -10.664062 3.175781 -10.492188 3.1875 -10.296875 C 3.195312 -10.109375 3.207031 -9.742188 3.21875 -9.203125 L 3.25 -9.203125 C 3.675781 -9.960938 4.164062 -10.5 4.71875 -10.8125 C 5.28125 -11.132812 5.972656 -11.296875 6.796875 -11.296875 C 8.015625 -11.296875 8.90625 -10.992188 9.46875 -10.390625 C 10.03125 -9.785156 10.3125 -8.785156 10.3125 -7.390625 L 10.3125 0 Z M 8.453125 0 "/></g></g></g><g fill="#053d57" fill-opacity="1"><g transform="translate(82.241245, 238.856428)"><g><path d="M 1.40625 -13.453125 L 1.40625 -15.21875 L 3.25 -15.21875 L 3.25 -13.453125 Z M 1.40625 0 L 1.40625 -11.09375 L 3.25 -11.09375 L 3.25 0 Z M 1.40625 0 "/></g></g></g><g fill="#053d57" fill-opacity="1"><g transform="translate(86.904174, 238.856428)"><g><path d="M 4.96875 0.203125 C 3.550781 0.203125 2.515625 -0.269531 1.859375 -1.21875 C 1.203125 -2.164062 0.875 -3.59375 0.875 -5.5 C 0.875 -9.363281 2.238281 -11.296875 4.96875 -11.296875 C 5.800781 -11.296875 6.488281 -11.144531 7.03125 -10.84375 C 7.582031 -10.550781 8.046875 -10.0625 8.421875 -9.375 L 8.4375 -9.375 C 8.4375 -9.582031 8.445312 -9.9375 8.46875 -10.4375 C 8.5 -10.9375 8.53125 -11.203125 8.5625 -11.234375 L 10.34375 -11.234375 C 10.289062 -10.835938 10.265625 -9.832031 10.265625 -8.21875 L 10.265625 4.359375 L 8.421875 4.359375 L 8.421875 -0.140625 L 8.453125 -1.828125 L 8.4375 -1.828125 C 8.070312 -1.097656 7.617188 -0.578125 7.078125 -0.265625 C 6.535156 0.046875 5.832031 0.203125 4.96875 0.203125 Z M 8.421875 -5.6875 C 8.421875 -7.125 8.179688 -8.191406 7.703125 -8.890625 C 7.234375 -9.585938 6.484375 -9.9375 5.453125 -9.9375 C 4.515625 -9.9375 3.835938 -9.585938 3.421875 -8.890625 C 3.015625 -8.191406 2.8125 -7.082031 2.8125 -5.5625 C 2.8125 -4.007812 3.019531 -2.894531 3.4375 -2.21875 C 3.851562 -1.550781 4.519531 -1.21875 5.4375 -1.21875 C 6.476562 -1.21875 7.234375 -1.585938 7.703125 -2.328125 C 8.179688 -3.078125 8.421875 -4.195312 8.421875 -5.6875 Z M 8.421875 -5.6875 "/></g></g></g><g fill="#053d57" fill-opacity="1"><g transform="translate(98.57686, 238.856428)"><g><path d="M 3.21875 -11.09375 L 3.21875 -4.0625 C 3.21875 -3.332031 3.289062 -2.765625 3.4375 -2.359375 C 3.582031 -1.953125 3.8125 -1.660156 4.125 -1.484375 C 4.4375 -1.304688 4.894531 -1.21875 5.5 -1.21875 C 6.394531 -1.21875 7.097656 -1.519531 7.609375 -2.125 C 8.117188 -2.738281 8.375 -3.585938 8.375 -4.671875 L 8.375 -11.09375 L 10.21875 -11.09375 L 10.21875 -2.375 C 10.21875 -1.082031 10.238281 -0.289062 10.28125 0 L 8.546875 0 C 8.535156 -0.03125 8.523438 -0.117188 8.515625 -0.265625 C 8.515625 -0.421875 8.507812 -0.597656 8.5 -0.796875 C 8.488281 -0.992188 8.472656 -1.359375 8.453125 -1.890625 L 8.421875 -1.890625 C 8.003906 -1.128906 7.515625 -0.585938 6.953125 -0.265625 C 6.398438 0.046875 5.707031 0.203125 4.875 0.203125 C 3.664062 0.203125 2.773438 -0.0976562 2.203125 -0.703125 C 1.640625 -1.304688 1.359375 -2.304688 1.359375 -3.703125 L 1.359375 -11.09375 Z M 3.21875 -11.09375 "/></g></g></g><g fill="#053d57" fill-opacity="1"><g transform="translate(110.249546, 238.856428)"><g><path d="M 2.828125 -5.15625 C 2.828125 -3.882812 3.085938 -2.898438 3.609375 -2.203125 C 4.140625 -1.515625 4.910156 -1.171875 5.921875 -1.171875 C 6.722656 -1.171875 7.363281 -1.332031 7.84375 -1.65625 C 8.332031 -1.976562 8.660156 -2.382812 8.828125 -2.875 L 10.453125 -2.421875 C 9.785156 -0.671875 8.273438 0.203125 5.921875 0.203125 C 4.285156 0.203125 3.035156 -0.285156 2.171875 -1.265625 C 1.316406 -2.242188 0.890625 -3.695312 0.890625 -5.625 C 0.890625 -7.457031 1.316406 -8.859375 2.171875 -9.828125 C 3.035156 -10.804688 4.265625 -11.296875 5.859375 -11.296875 C 9.117188 -11.296875 10.75 -9.332031 10.75 -5.40625 L 10.75 -5.15625 Z M 8.84375 -6.578125 C 8.738281 -7.742188 8.4375 -8.59375 7.9375 -9.125 C 7.445312 -9.664062 6.742188 -9.9375 5.828125 -9.9375 C 4.929688 -9.9375 4.21875 -9.632812 3.6875 -9.03125 C 3.164062 -8.4375 2.882812 -7.617188 2.84375 -6.578125 Z M 8.84375 -6.578125 "/></g></g></g><g fill="#053d57" fill-opacity="1"><g transform="translate(121.922232, 238.856428)"><g/></g></g><g fill="#053d57" fill-opacity="1"><g transform="translate(127.753454, 238.856428)"><g><path d="M 12.234375 0.125 C 11.023438 0.125 10.003906 -0.304688 9.171875 -1.171875 C 8.660156 -0.734375 8.078125 -0.394531 7.421875 -0.15625 C 6.765625 0.0820312 6.078125 0.203125 5.359375 0.203125 C 3.890625 0.203125 2.75 -0.148438 1.9375 -0.859375 C 1.132812 -1.566406 0.734375 -2.546875 0.734375 -3.796875 C 0.734375 -5.703125 1.90625 -7.171875 4.25 -8.203125 C 4.03125 -8.628906 3.835938 -9.128906 3.671875 -9.703125 C 3.503906 -10.285156 3.421875 -10.816406 3.421875 -11.296875 C 3.421875 -12.328125 3.734375 -13.125 4.359375 -13.6875 C 4.984375 -14.25 5.875 -14.53125 7.03125 -14.53125 C 8.0625 -14.53125 8.890625 -14.269531 9.515625 -13.75 C 10.148438 -13.226562 10.46875 -12.519531 10.46875 -11.625 C 10.46875 -10.8125 10.15625 -10.085938 9.53125 -9.453125 C 8.90625 -8.828125 7.820312 -8.207031 6.28125 -7.59375 C 7.03125 -6.195312 8.03125 -4.789062 9.28125 -3.375 C 10.050781 -4.507812 10.632812 -5.910156 11.03125 -7.578125 L 12.515625 -7.140625 C 12.085938 -5.429688 11.363281 -3.828125 10.34375 -2.328125 C 11 -1.660156 11.710938 -1.328125 12.484375 -1.328125 C 12.960938 -1.328125 13.359375 -1.378906 13.671875 -1.484375 L 13.671875 -0.109375 C 13.296875 0.046875 12.816406 0.125 12.234375 0.125 Z M 8.90625 -11.625 C 8.90625 -12.113281 8.734375 -12.515625 8.390625 -12.828125 C 8.054688 -13.140625 7.59375 -13.296875 7 -13.296875 C 6.34375 -13.296875 5.84375 -13.117188 5.5 -12.765625 C 5.164062 -12.410156 5 -11.921875 5 -11.296875 C 5 -10.515625 5.21875 -9.679688 5.65625 -8.796875 C 6.550781 -9.160156 7.207031 -9.472656 7.625 -9.734375 C 8.050781 -10.003906 8.367188 -10.289062 8.578125 -10.59375 C 8.796875 -10.90625 8.90625 -11.25 8.90625 -11.625 Z M 8.15625 -2.21875 C 6.800781 -3.820312 5.707031 -5.382812 4.875 -6.90625 C 3.269531 -6.226562 2.46875 -5.203125 2.46875 -3.828125 C 2.46875 -2.992188 2.726562 -2.335938 3.25 -1.859375 C 3.78125 -1.378906 4.503906 -1.140625 5.421875 -1.140625 C 5.910156 -1.140625 6.394531 -1.234375 6.875 -1.421875 C 7.363281 -1.609375 7.789062 -1.875 8.15625 -2.21875 Z M 8.15625 -2.21875 "/></g></g></g><g fill="#053d57" fill-opacity="1"><g transform="translate(141.752471, 238.856428)"><g/></g></g><g fill="#053d57" fill-opacity="1"><g transform="translate(147.583693, 238.856428)"><g><path d="M 3.21875 -11.09375 L 3.21875 -4.0625 C 3.21875 -3.332031 3.289062 -2.765625 3.4375 -2.359375 C 3.582031 -1.953125 3.8125 -1.660156 4.125 -1.484375 C 4.4375 -1.304688 4.894531 -1.21875 5.5 -1.21875 C 6.394531 -1.21875 7.097656 -1.519531 7.609375 -2.125 C 8.117188 -2.738281 8.375 -3.585938 8.375 -4.671875 L 8.375 -11.09375 L 10.21875 -11.09375 L 10.21875 -2.375 C 10.21875 -1.082031 10.238281 -0.289062 10.28125 0 L 8.546875 0 C 8.535156 -0.03125 8.523438 -0.117188 8.515625 -0.265625 C 8.515625 -0.421875 8.507812 -0.597656 8.5 -0.796875 C 8.488281 -0.992188 8.472656 -1.359375 8.453125 -1.890625 L 8.421875 -1.890625 C 8.003906 -1.128906 7.515625 -0.585938 6.953125 -0.265625 C 6.398438 0.046875 5.707031 0.203125 4.875 0.203125 C 3.664062 0.203125 2.773438 -0.0976562 2.203125 -0.703125 C 1.640625 -1.304688 1.359375 -2.304688 1.359375 -3.703125 L 1.359375 -11.09375 Z M 3.21875 -11.09375 "/></g></g></g><g fill="#053d57" fill-opacity="1"><g transform="translate(159.256379, 238.856428)"><g><path d="M 9.734375 -3.0625 C 9.734375 -2.019531 9.335938 -1.210938 8.546875 -0.640625 C 7.765625 -0.078125 6.660156 0.203125 5.234375 0.203125 C 3.859375 0.203125 2.796875 -0.0195312 2.046875 -0.46875 C 1.296875 -0.925781 0.804688 -1.640625 0.578125 -2.609375 L 2.21875 -2.921875 C 2.375 -2.328125 2.695312 -1.890625 3.1875 -1.609375 C 3.675781 -1.335938 4.359375 -1.203125 5.234375 -1.203125 C 6.171875 -1.203125 6.859375 -1.34375 7.296875 -1.625 C 7.734375 -1.914062 7.953125 -2.347656 7.953125 -2.921875 C 7.953125 -3.359375 7.800781 -3.710938 7.5 -3.984375 C 7.195312 -4.265625 6.710938 -4.492188 6.046875 -4.671875 L 4.71875 -5.015625 C 3.65625 -5.285156 2.898438 -5.550781 2.453125 -5.8125 C 2.003906 -6.082031 1.65625 -6.40625 1.40625 -6.78125 C 1.15625 -7.15625 1.03125 -7.613281 1.03125 -8.15625 C 1.03125 -9.175781 1.390625 -9.945312 2.109375 -10.46875 C 2.828125 -11 3.878906 -11.265625 5.265625 -11.265625 C 6.484375 -11.265625 7.453125 -11.050781 8.171875 -10.625 C 8.898438 -10.195312 9.359375 -9.503906 9.546875 -8.546875 L 7.890625 -8.34375 C 7.785156 -8.832031 7.507812 -9.207031 7.0625 -9.46875 C 6.613281 -9.738281 6.015625 -9.875 5.265625 -9.875 C 4.429688 -9.875 3.8125 -9.742188 3.40625 -9.484375 C 3.007812 -9.234375 2.8125 -8.851562 2.8125 -8.34375 C 2.8125 -8.03125 2.894531 -7.769531 3.0625 -7.5625 C 3.226562 -7.363281 3.472656 -7.191406 3.796875 -7.046875 C 4.117188 -6.898438 4.796875 -6.703125 5.828125 -6.453125 C 6.804688 -6.203125 7.507812 -5.972656 7.9375 -5.765625 C 8.363281 -5.554688 8.703125 -5.328125 8.953125 -5.078125 C 9.203125 -4.828125 9.394531 -4.535156 9.53125 -4.203125 C 9.664062 -3.867188 9.734375 -3.488281 9.734375 -3.0625 Z M 9.734375 -3.0625 "/></g></g></g><g fill="#053d57" fill-opacity="1"><g transform="translate(169.750518, 238.856428)"><g><path d="M 2.828125 -5.15625 C 2.828125 -3.882812 3.085938 -2.898438 3.609375 -2.203125 C 4.140625 -1.515625 4.910156 -1.171875 5.921875 -1.171875 C 6.722656 -1.171875 7.363281 -1.332031 7.84375 -1.65625 C 8.332031 -1.976562 8.660156 -2.382812 8.828125 -2.875 L 10.453125 -2.421875 C 9.785156 -0.671875 8.273438 0.203125 5.921875 0.203125 C 4.285156 0.203125 3.035156 -0.285156 2.171875 -1.265625 C 1.316406 -2.242188 0.890625 -3.695312 0.890625 -5.625 C 0.890625 -7.457031 1.316406 -8.859375 2.171875 -9.828125 C 3.035156 -10.804688 4.265625 -11.296875 5.859375 -11.296875 C 9.117188 -11.296875 10.75 -9.332031 10.75 -5.40625 L 10.75 -5.15625 Z M 8.84375 -6.578125 C 8.738281 -7.742188 8.4375 -8.59375 7.9375 -9.125 C 7.445312 -9.664062 6.742188 -9.9375 5.828125 -9.9375 C 4.929688 -9.9375 4.21875 -9.632812 3.6875 -9.03125 C 3.164062 -8.4375 2.882812 -7.617188 2.84375 -6.578125 Z M 8.84375 -6.578125 "/></g></g></g><g fill="#053d57" fill-opacity="1"><g transform="translate(181.423204, 238.856428)"><g><path d="M 3.703125 -9.75 L 3.703125 0 L 1.859375 0 L 1.859375 -9.75 L 0.296875 -9.75 L 0.296875 -11.09375 L 1.859375 -11.09375 L 1.859375 -12.34375 C 1.859375 -13.351562 2.078125 -14.082031 2.515625 -14.53125 C 2.960938 -14.976562 3.644531 -15.203125 4.5625 -15.203125 C 5.070312 -15.203125 5.503906 -15.160156 5.859375 -15.078125 L 5.859375 -13.671875 C 5.554688 -13.722656 5.285156 -13.75 5.046875 -13.75 C 4.578125 -13.75 4.234375 -13.628906 4.015625 -13.390625 C 3.804688 -13.148438 3.703125 -12.71875 3.703125 -12.09375 L 3.703125 -11.09375 L 5.859375 -11.09375 L 5.859375 -9.75 Z M 3.703125 -9.75 "/></g></g></g><g fill="#053d57" fill-opacity="1"><g transform="translate(187.254426, 238.856428)"><g><path d="M 3.21875 -11.09375 L 3.21875 -4.0625 C 3.21875 -3.332031 3.289062 -2.765625 3.4375 -2.359375 C 3.582031 -1.953125 3.8125 -1.660156 4.125 -1.484375 C 4.4375 -1.304688 4.894531 -1.21875 5.5 -1.21875 C 6.394531 -1.21875 7.097656 -1.519531 7.609375 -2.125 C 8.117188 -2.738281 8.375 -3.585938 8.375 -4.671875 L 8.375 -11.09375 L 10.21875 -11.09375 L 10.21875 -2.375 C 10.21875 -1.082031 10.238281 -0.289062 10.28125 0 L 8.546875 0 C 8.535156 -0.03125 8.523438 -0.117188 8.515625 -0.265625 C 8.515625 -0.421875 8.507812 -0.597656 8.5 -0.796875 C 8.488281 -0.992188 8.472656 -1.359375 8.453125 -1.890625 L 8.421875 -1.890625 C 8.003906 -1.128906 7.515625 -0.585938 6.953125 -0.265625 C 6.398438 0.046875 5.707031 0.203125 4.875 0.203125 C 3.664062 0.203125 2.773438 -0.0976562 2.203125 -0.703125 C 1.640625 -1.304688 1.359375 -2.304688 1.359375 -3.703125 L 1.359375 -11.09375 Z M 3.21875 -11.09375 "/></g></g></g><g fill="#053d57" fill-opacity="1"><g transform="translate(198.927112, 238.856428)"><g><path d="M 1.421875 0 L 1.421875 -15.21875 L 3.265625 -15.21875 L 3.265625 0 Z M 1.421875 0 "/></g></g></g><g fill="#053d57" fill-opacity="1"><g transform="translate(86.915401, 268.106424)"><g><path d="M 9.734375 -3.0625 C 9.734375 -2.019531 9.335938 -1.210938 8.546875 -0.640625 C 7.765625 -0.078125 6.660156 0.203125 5.234375 0.203125 C 3.859375 0.203125 2.796875 -0.0195312 2.046875 -0.46875 C 1.296875 -0.925781 0.804688 -1.640625 0.578125 -2.609375 L 2.21875 -2.921875 C 2.375 -2.328125 2.695312 -1.890625 3.1875 -1.609375 C 3.675781 -1.335938 4.359375 -1.203125 5.234375 -1.203125 C 6.171875 -1.203125 6.859375 -1.34375 7.296875 -1.625 C 7.734375 -1.914062 7.953125 -2.347656 7.953125 -2.921875 C 7.953125 -3.359375 7.800781 -3.710938 7.5 -3.984375 C 7.195312 -4.265625 6.710938 -4.492188 6.046875 -4.671875 L 4.71875 -5.015625 C 3.65625 -5.285156 2.898438 -5.550781 2.453125 -5.8125 C 2.003906 -6.082031 1.65625 -6.40625 1.40625 -6.78125 C 1.15625 -7.15625 1.03125 -7.613281 1.03125 -8.15625 C 1.03125 -9.175781 1.390625 -9.945312 2.109375 -10.46875 C 2.828125 -11 3.878906 -11.265625 5.265625 -11.265625 C 6.484375 -11.265625 7.453125 -11.050781 8.171875 -10.625 C 8.898438 -10.195312 9.359375 -9.503906 9.546875 -8.546875 L 7.890625 -8.34375 C 7.785156 -8.832031 7.507812 -9.207031 7.0625 -9.46875 C 6.613281 -9.738281 6.015625 -9.875 5.265625 -9.875 C 4.429688 -9.875 3.8125 -9.742188 3.40625 -9.484375 C 3.007812 -9.234375 2.8125 -8.851562 2.8125 -8.34375 C 2.8125 -8.03125 2.894531 -7.769531 3.0625 -7.5625 C 3.226562 -7.363281 3.472656 -7.191406 3.796875 -7.046875 C 4.117188 -6.898438 4.796875 -6.703125 5.828125 -6.453125 C 6.804688 -6.203125 7.507812 -5.972656 7.9375 -5.765625 C 8.363281 -5.554688 8.703125 -5.328125 8.953125 -5.078125 C 9.203125 -4.828125 9.394531 -4.535156 9.53125 -4.203125 C 9.664062 -3.867188 9.734375 -3.488281 9.734375 -3.0625 Z M 9.734375 -3.0625 "/></g></g></g><g fill="#053d57" fill-opacity="1"><g transform="translate(97.40954, 268.106424)"><g><path d="M 10.796875 -5.5625 C 10.796875 -3.613281 10.367188 -2.164062 9.515625 -1.21875 C 8.660156 -0.269531 7.421875 0.203125 5.796875 0.203125 C 4.171875 0.203125 2.941406 -0.289062 2.109375 -1.28125 C 1.285156 -2.269531 0.875 -3.695312 0.875 -5.5625 C 0.875 -9.382812 2.535156 -11.296875 5.859375 -11.296875 C 7.546875 -11.296875 8.789062 -10.828125 9.59375 -9.890625 C 10.394531 -8.960938 10.796875 -7.519531 10.796875 -5.5625 Z M 8.859375 -5.5625 C 8.859375 -7.09375 8.628906 -8.203125 8.171875 -8.890625 C 7.722656 -9.585938 6.960938 -9.9375 5.890625 -9.9375 C 4.804688 -9.9375 4.019531 -9.582031 3.53125 -8.875 C 3.050781 -8.164062 2.8125 -7.0625 2.8125 -5.5625 C 2.8125 -4.09375 3.050781 -2.988281 3.53125 -2.25 C 4.007812 -1.519531 4.753906 -1.15625 5.765625 -1.15625 C 6.878906 -1.15625 7.671875 -1.507812 8.140625 -2.21875 C 8.617188 -2.9375 8.859375 -4.050781 8.859375 -5.5625 Z M 8.859375 -5.5625 "/></g></g></g><g fill="#053d57" fill-opacity="1"><g transform="translate(109.082226, 268.106424)"><g><path d="M 1.421875 0 L 1.421875 -15.21875 L 3.265625 -15.21875 L 3.265625 0 Z M 1.421875 0 "/></g></g></g><g fill="#053d57" fill-opacity="1"><g transform="translate(113.745155, 268.106424)"><g><path d="M 3.21875 -11.09375 L 3.21875 -4.0625 C 3.21875 -3.332031 3.289062 -2.765625 3.4375 -2.359375 C 3.582031 -1.953125 3.8125 -1.660156 4.125 -1.484375 C 4.4375 -1.304688 4.894531 -1.21875 5.5 -1.21875 C 6.394531 -1.21875 7.097656 -1.519531 7.609375 -2.125 C 8.117188 -2.738281 8.375 -3.585938 8.375 -4.671875 L 8.375 -11.09375 L 10.21875 -11.09375 L 10.21875 -2.375 C 10.21875 -1.082031 10.238281 -0.289062 10.28125 0 L 8.546875 0 C 8.535156 -0.03125 8.523438 -0.117188 8.515625 -0.265625 C 8.515625 -0.421875 8.507812 -0.597656 8.5 -0.796875 C 8.488281 -0.992188 8.472656 -1.359375 8.453125 -1.890625 L 8.421875 -1.890625 C 8.003906 -1.128906 7.515625 -0.585938 6.953125 -0.265625 C 6.398438 0.046875 5.707031 0.203125 4.875 0.203125 C 3.664062 0.203125 2.773438 -0.0976562 2.203125 -0.703125 C 1.640625 -1.304688 1.359375 -2.304688 1.359375 -3.703125 L 1.359375 -11.09375 Z M 3.21875 -11.09375 "/></g></g></g><g fill="#053d57" fill-opacity="1"><g transform="translate(125.417841, 268.106424)"><g><path d="M 5.6875 -0.078125 C 5.070312 0.0859375 4.445312 0.171875 3.8125 0.171875 C 2.332031 0.171875 1.59375 -0.664062 1.59375 -2.34375 L 1.59375 -9.75 L 0.3125 -9.75 L 0.3125 -11.09375 L 1.671875 -11.09375 L 2.21875 -13.578125 L 3.453125 -13.578125 L 3.453125 -11.09375 L 5.5 -11.09375 L 5.5 -9.75 L 3.453125 -9.75 L 3.453125 -2.75 C 3.453125 -2.21875 3.535156 -1.84375 3.703125 -1.625 C 3.878906 -1.40625 4.179688 -1.296875 4.609375 -1.296875 C 4.859375 -1.296875 5.21875 -1.347656 5.6875 -1.453125 Z M 5.6875 -0.078125 "/></g></g></g><g fill="#053d57" fill-opacity="1"><g transform="translate(131.249063, 268.106424)"><g><path d="M 1.40625 -13.453125 L 1.40625 -15.21875 L 3.25 -15.21875 L 3.25 -13.453125 Z M 1.40625 0 L 1.40625 -11.09375 L 3.25 -11.09375 L 3.25 0 Z M 1.40625 0 "/></g></g></g><g fill="#053d57" fill-opacity="1"><g transform="translate(135.911992, 268.106424)"><g><path d="M 10.796875 -5.5625 C 10.796875 -3.613281 10.367188 -2.164062 9.515625 -1.21875 C 8.660156 -0.269531 7.421875 0.203125 5.796875 0.203125 C 4.171875 0.203125 2.941406 -0.289062 2.109375 -1.28125 C 1.285156 -2.269531 0.875 -3.695312 0.875 -5.5625 C 0.875 -9.382812 2.535156 -11.296875 5.859375 -11.296875 C 7.546875 -11.296875 8.789062 -10.828125 9.59375 -9.890625 C 10.394531 -8.960938 10.796875 -7.519531 10.796875 -5.5625 Z M 8.859375 -5.5625 C 8.859375 -7.09375 8.628906 -8.203125 8.171875 -8.890625 C 7.722656 -9.585938 6.960938 -9.9375 5.890625 -9.9375 C 4.804688 -9.9375 4.019531 -9.582031 3.53125 -8.875 C 3.050781 -8.164062 2.8125 -7.0625 2.8125 -5.5625 C 2.8125 -4.09375 3.050781 -2.988281 3.53125 -2.25 C 4.007812 -1.519531 4.753906 -1.15625 5.765625 -1.15625 C 6.878906 -1.15625 7.671875 -1.507812 8.140625 -2.21875 C 8.617188 -2.9375 8.859375 -4.050781 8.859375 -5.5625 Z M 8.859375 -5.5625 "/></g></g></g><g fill="#053d57" fill-opacity="1"><g transform="translate(147.584678, 268.106424)"><g><path d="M 8.453125 0 L 8.453125 -7.03125 C 8.453125 -7.757812 8.378906 -8.328125 8.234375 -8.734375 C 8.097656 -9.140625 7.867188 -9.429688 7.546875 -9.609375 C 7.234375 -9.785156 6.773438 -9.875 6.171875 -9.875 C 5.285156 -9.875 4.582031 -9.566406 4.0625 -8.953125 C 3.550781 -8.347656 3.296875 -7.503906 3.296875 -6.421875 L 3.296875 0 L 1.453125 0 L 1.453125 -8.71875 C 1.453125 -10.019531 1.429688 -10.8125 1.390625 -11.09375 L 3.140625 -11.09375 C 3.140625 -11.0625 3.144531 -10.96875 3.15625 -10.8125 C 3.164062 -10.664062 3.175781 -10.492188 3.1875 -10.296875 C 3.195312 -10.109375 3.207031 -9.742188 3.21875 -9.203125 L 3.25 -9.203125 C 3.675781 -9.960938 4.164062 -10.5 4.71875 -10.8125 C 5.28125 -11.132812 5.972656 -11.296875 6.796875 -11.296875 C 8.015625 -11.296875 8.90625 -10.992188 9.46875 -10.390625 C 10.03125 -9.785156 10.3125 -8.785156 10.3125 -7.390625 L 10.3125 0 Z M 8.453125 0 "/></g></g></g><g fill="#053d57" fill-opacity="1"><g transform="translate(159.257364, 268.106424)"><g><path d="M 9.734375 -3.0625 C 9.734375 -2.019531 9.335938 -1.210938 8.546875 -0.640625 C 7.765625 -0.078125 6.660156 0.203125 5.234375 0.203125 C 3.859375 0.203125 2.796875 -0.0195312 2.046875 -0.46875 C 1.296875 -0.925781 0.804688 -1.640625 0.578125 -2.609375 L 2.21875 -2.921875 C 2.375 -2.328125 2.695312 -1.890625 3.1875 -1.609375 C 3.675781 -1.335938 4.359375 -1.203125 5.234375 -1.203125 C 6.171875 -1.203125 6.859375 -1.34375 7.296875 -1.625 C 7.734375 -1.914062 7.953125 -2.347656 7.953125 -2.921875 C 7.953125 -3.359375 7.800781 -3.710938 7.5 -3.984375 C 7.195312 -4.265625 6.710938 -4.492188 6.046875 -4.671875 L 4.71875 -5.015625 C 3.65625 -5.285156 2.898438 -5.550781 2.453125 -5.8125 C 2.003906 -6.082031 1.65625 -6.40625 1.40625 -6.78125 C 1.15625 -7.15625 1.03125 -7.613281 1.03125 -8.15625 C 1.03125 -9.175781 1.390625 -9.945312 2.109375 -10.46875 C 2.828125 -11 3.878906 -11.265625 5.265625 -11.265625 C 6.484375 -11.265625 7.453125 -11.050781 8.171875 -10.625 C 8.898438 -10.195312 9.359375 -9.503906 9.546875 -8.546875 L 7.890625 -8.34375 C 7.785156 -8.832031 7.507812 -9.207031 7.0625 -9.46875 C 6.613281 -9.738281 6.015625 -9.875 5.265625 -9.875 C 4.429688 -9.875 3.8125 -9.742188 3.40625 -9.484375 C 3.007812 -9.234375 2.8125 -8.851562 2.8125 -8.34375 C 2.8125 -8.03125 2.894531 -7.769531 3.0625 -7.5625 C 3.226562 -7.363281 3.472656 -7.191406 3.796875 -7.046875 C 4.117188 -6.898438 4.796875 -6.703125 5.828125 -6.453125 C 6.804688 -6.203125 7.507812 -5.972656 7.9375 -5.765625 C 8.363281 -5.554688 8.703125 -5.328125 8.953125 -5.078125 C 9.203125 -4.828125 9.394531 -4.535156 9.53125 -4.203125 C 9.664062 -3.867188 9.734375 -3.488281 9.734375 -3.0625 Z M 9.734375 -3.0625 "/></g></g></g><g fill="#053d57" fill-opacity="1"><g transform="translate(169.751503, 268.106424)"><g><path d="M 1.921875 0 L 1.921875 -2.25 L 3.921875 -2.25 L 3.921875 0 Z M 1.921875 0 "/></g></g></g></svg>