<svg xmlns="http://www.w3.org/2000/svg" xmlns:xlink="http://www.w3.org/1999/xlink" width="350" zoomAndPan="magnify" viewBox="0 0 262.5 374.999991" height="500" preserveAspectRatio="xMidYMid meet" version="1.0"><defs><clipPath id="id1"><path d="M 14.910156 0.355469 L 247.410156 0.355469 L 247.410156 374.640625 L 14.910156 374.640625 Z M 14.910156 0.355469 " clip-rule="nonzero"/></clipPath><clipPath id="id2"><path d="M 14.910156 0.359375 L 247.410156 0.359375 L 247.410156 374.640625 L 14.910156 374.640625 Z M 14.910156 0.359375 " clip-rule="nonzero"/></clipPath><clipPath id="id3"><path d="M 247.410156 14.609375 L 247.410156 361.09375 C 247.410156 368.964844 241.027344 375.34375 233.152344 375.34375 L 29.171875 375.34375 C 21.296875 375.34375 14.910156 368.964844 14.910156 361.09375 L 14.910156 14.609375 C 14.910156 6.738281 21.296875 0.359375 29.171875 0.359375 L 233.152344 0.359375 C 241.027344 0.359375 247.410156 6.738281 247.410156 14.609375 " clip-rule="nonzero"/></clipPath><clipPath id="id4"><path d="M 33.644531 23.023438 L 228.644531 23.023438 L 228.644531 353.023438 L 33.644531 353.023438 Z M 33.644531 23.023438 " clip-rule="nonzero"/></clipPath><clipPath id="id5"><path d="M 33.644531 23.023438 L 228.644531 23.023438 L 228.644531 353.023438 L 33.644531 353.023438 Z M 33.644531 23.023438 " clip-rule="nonzero"/></clipPath><clipPath id="id6"><path d="M 228.644531 37.289062 L 228.644531 338.753906 C 228.644531 346.632812 222.257812 353.019531 214.382812 353.019531 L 47.910156 353.019531 C 40.03125 353.019531 33.644531 346.632812 33.644531 338.753906 L 33.644531 37.289062 C 33.644531 29.410156 40.03125 23.023438 47.910156 23.023438 L 214.382812 23.023438 C 222.257812 23.023438 228.644531 29.410156 228.644531 37.289062 " clip-rule="nonzero"/></clipPath></defs><g clip-path="url(#id1)"><path fill="#053d57" d="M 247.410156 14.609375 L 247.410156 361.09375 C 247.410156 368.964844 241.027344 375.34375 233.152344 375.34375 L 29.171875 375.34375 C 21.296875 375.34375 14.910156 368.964844 14.910156 361.09375 L 14.910156 14.609375 C 14.910156 6.738281 21.296875 0.359375 29.171875 0.359375 L 233.152344 0.359375 C 241.027344 0.359375 247.410156 6.738281 247.410156 14.609375 " fill-opacity="1" fill-rule="nonzero"/></g><g clip-path="url(#id2)"><g clip-path="url(#id3)"><path stroke-linecap="butt" transform="matrix(0.000000000000000046, 0.75, -0.750567, 0.000000000000000046, 247.412078, 0.359556)" fill="none" stroke-linejoin="miter" d="M 18.999761 0.00256062 L 480.978989 0.00256062 C 491.473782 0.00256062 499.978991 8.506543 499.978991 18.998605 L 499.978991 290.766952 C 499.978991 301.259014 491.473782 309.768201 480.978989 309.768201 L 18.999761 309.768201 C 8.504968 309.768201 -0.000241185 301.259014 -0.000241185 290.766952 L -0.000241185 18.998605 C -0.000241185 8.506543 8.504968 0.00256062 18.999761 0.00256062 " stroke="#000000" stroke-width="2" stroke-opacity="1" stroke-miterlimit="4"/></g></g><g clip-path="url(#id4)"><path fill="#006884" d="M 228.644531 37.289062 L 228.644531 338.753906 C 228.644531 346.632812 222.257812 353.019531 214.382812 353.019531 L 47.910156 353.019531 C 40.03125 353.019531 33.644531 346.632812 33.644531 338.753906 L 33.644531 37.289062 C 33.644531 29.410156 40.03125 23.023438 47.910156 23.023438 L 214.382812 23.023438 C 222.257812 23.023438 228.644531 29.410156 228.644531 37.289062 " fill-opacity="1" fill-rule="nonzero"/></g><g clip-path="url(#id5)"><g clip-path="url(#id6)"><path stroke-linecap="butt" transform="matrix(0.000000000000000046, 0.750773, -0.750767, 0.000000000000000046, 228.645807, 23.024662)" fill="none" stroke-linejoin="miter" d="M 18.999618 0.00169877 L 420.538875 0.00169877 C 431.033266 0.00169877 439.540123 8.508625 439.540123 18.997899 L 439.540123 240.734701 C 439.540123 251.229178 431.033266 259.736105 420.538875 259.736105 L 18.999618 259.736105 C 8.505226 259.736105 -0.00163048 251.229178 -0.00163048 240.734701 L -0.00163048 18.997899 C -0.00163048 8.508625 8.505226 0.00169877 18.999618 0.00169877 " stroke="#fd7702" stroke-width="6" stroke-opacity="1" stroke-miterlimit="4"/></g></g><path fill="#f2f1ef" d="M 119.585938 152.230469 L 143.578125 128.238281 C 143.578125 128.238281 167.570312 104.242188 191.566406 128.238281 C 215.558594 152.230469 191.566406 176.222656 191.566406 176.222656 L 159.574219 208.214844 C 159.574219 208.214844 135.582031 232.207031 111.589844 208.214844 C 107.089844 203.714844 104.300781 197.738281 104.300781 197.738281 L 117.710938 184.347656 C 117.710938 184.347656 117.171875 189.804688 123.585938 196.21875 C 123.585938 196.21875 135.582031 208.214844 147.578125 196.21875 L 179.566406 164.226562 C 179.566406 164.226562 191.566406 152.230469 179.566406 140.234375 C 167.570312 128.238281 155.574219 140.234375 155.574219 140.234375 L 140.664062 155.144531 C 140.664062 155.144531 133.25 149.0625 118.085938 153.730469 Z M 119.585938 152.230469 " fill-opacity="1" fill-rule="nonzero"/><path fill="#f2f1ef" d="M 142.957031 224.207031 L 118.964844 248.203125 C 118.964844 248.203125 94.972656 272.195312 70.980469 248.203125 C 46.988281 224.207031 70.980469 200.214844 70.980469 200.214844 L 102.972656 168.226562 C 102.972656 168.226562 126.964844 144.230469 150.957031 168.226562 C 155.457031 172.722656 158.242188 178.703125 158.242188 178.703125 L 144.832031 192.09375 C 144.832031 192.09375 145.371094 186.636719 138.957031 180.222656 C 138.957031 180.222656 126.960938 168.226562 114.964844 180.222656 L 82.972656 212.210938 C 82.972656 212.210938 70.976562 224.207031 82.972656 236.203125 C 94.96875 248.203125 106.964844 236.203125 106.964844 236.203125 L 121.878906 221.292969 C 121.878906 221.292969 129.289062 227.375 144.453125 222.710938 Z M 142.957031 224.207031 " fill-opacity="1" fill-rule="nonzero"/></svg>