<svg xmlns="http://www.w3.org/2000/svg" xmlns:xlink="http://www.w3.org/1999/xlink" width="350" zoomAndPan="magnify" viewBox="0 0 262.5 374.999991" height="500" preserveAspectRatio="xMidYMid meet" version="1.0"><defs><clipPath id="id1"><path d="M 14.910156 0.355469 L 247.410156 0.355469 L 247.410156 374.640625 L 14.910156 374.640625 Z M 14.910156 0.355469 " clip-rule="nonzero"/></clipPath><clipPath id="id2"><path d="M 14.910156 0.359375 L 247.410156 0.359375 L 247.410156 374.640625 L 14.910156 374.640625 Z M 14.910156 0.359375 " clip-rule="nonzero"/></clipPath><clipPath id="id3"><path d="M 247.410156 14.609375 L 247.410156 361.09375 C 247.410156 368.964844 241.027344 375.34375 233.152344 375.34375 L 29.171875 375.34375 C 21.296875 375.34375 14.910156 368.964844 14.910156 361.09375 L 14.910156 14.609375 C 14.910156 6.738281 21.296875 0.359375 29.171875 0.359375 L 233.152344 0.359375 C 241.027344 0.359375 247.410156 6.738281 247.410156 14.609375 " clip-rule="nonzero"/></clipPath><clipPath id="id4"><path d="M 33.644531 23.023438 L 228.644531 23.023438 L 228.644531 353.023438 L 33.644531 353.023438 Z M 33.644531 23.023438 " clip-rule="nonzero"/></clipPath><clipPath id="id5"><path d="M 33.644531 23.023438 L 228.644531 23.023438 L 228.644531 353.023438 L 33.644531 353.023438 Z M 33.644531 23.023438 " clip-rule="nonzero"/></clipPath><clipPath id="id6"><path d="M 228.644531 37.289062 L 228.644531 338.753906 C 228.644531 346.632812 222.257812 353.019531 214.382812 353.019531 L 47.910156 353.019531 C 40.03125 353.019531 33.644531 346.632812 33.644531 338.753906 L 33.644531 37.289062 C 33.644531 29.410156 40.03125 23.023438 47.910156 23.023438 L 214.382812 23.023438 C 222.257812 23.023438 228.644531 29.410156 228.644531 37.289062 " clip-rule="nonzero"/></clipPath><clipPath id="id7"><path d="M 66.628906 101.445312 L 196.21875 101.445312 L 196.21875 273.945312 L 66.628906 273.945312 Z M 66.628906 101.445312 " clip-rule="nonzero"/></clipPath></defs><g clip-path="url(#id1)"><path fill="#053d57" d="M 247.410156 14.609375 L 247.410156 361.09375 C 247.410156 368.964844 241.027344 375.34375 233.152344 375.34375 L 29.171875 375.34375 C 21.296875 375.34375 14.910156 368.964844 14.910156 361.09375 L 14.910156 14.609375 C 14.910156 6.738281 21.296875 0.359375 29.171875 0.359375 L 233.152344 0.359375 C 241.027344 0.359375 247.410156 6.738281 247.410156 14.609375 " fill-opacity="1" fill-rule="nonzero"/></g><g clip-path="url(#id2)"><g clip-path="url(#id3)"><path stroke-linecap="butt" transform="matrix(0.000000000000000046, 0.75, -0.750567, 0.000000000000000046, 247.412078, 0.359462)" fill="none" stroke-linejoin="miter" d="M 18.999886 0.00256062 L 480.979114 0.00256062 C 491.473907 0.00256062 499.979116 8.506543 499.979116 18.998605 L 499.979116 290.766952 C 499.979116 301.259014 491.473907 309.768201 480.979114 309.768201 L 18.999886 309.768201 C 8.505093 309.768201 -0.00011601 301.259014 -0.00011601 290.766952 L -0.00011601 18.998605 C -0.00011601 8.506543 8.505093 0.00256062 18.999886 0.00256062 " stroke="#000000" stroke-width="2" stroke-opacity="1" stroke-miterlimit="4"/></g></g><g clip-path="url(#id4)"><path fill="#f2f1ef" d="M 228.644531 37.289062 L 228.644531 338.753906 C 228.644531 346.632812 222.257812 353.019531 214.382812 353.019531 L 47.910156 353.019531 C 40.03125 353.019531 33.644531 346.632812 33.644531 338.753906 L 33.644531 37.289062 C 33.644531 29.410156 40.03125 23.023438 47.910156 23.023438 L 214.382812 23.023438 C 222.257812 23.023438 228.644531 29.410156 228.644531 37.289062 " fill-opacity="1" fill-rule="nonzero"/></g><g clip-path="url(#id5)"><g clip-path="url(#id6)"><path stroke-linecap="butt" transform="matrix(0.000000000000000046, 0.750773, -0.750767, 0.000000000000000046, 228.645807, 23.024733)" fill="none" stroke-linejoin="miter" d="M 18.999523 0.00169877 L 420.53878 0.00169877 C 431.033172 0.00169877 439.540029 8.508625 439.540029 18.997899 L 439.540029 240.734701 C 439.540029 251.229178 431.033172 259.736105 420.53878 259.736105 L 18.999523 259.736105 C 8.505132 259.736105 -0.00172525 251.229178 -0.00172525 240.734701 L -0.00172525 18.997899 C -0.00172525 8.508625 8.505132 0.00169877 18.999523 0.00169877 " stroke="#fd7702" stroke-width="4" stroke-opacity="1" stroke-miterlimit="4"/></g></g><g clip-path="url(#id7)"><path fill="#e9eae9" d="M 196.21875 273.949219 L 66.628906 273.949219 L 66.628906 101.445312 L 196.21875 101.445312 L 196.21875 273.949219 " fill-opacity="1" fill-rule="nonzero"/></g><path fill="#d3d4d3" d="M 194.519531 264.363281 C 194.519531 267.167969 192.214844 269.464844 189.394531 269.464844 L 140.753906 269.464844 C 137.9375 269.464844 135.632812 267.167969 135.632812 264.363281 L 135.632812 129.625 C 135.632812 126.820312 137.9375 124.523438 140.753906 124.523438 L 189.394531 124.523438 C 192.214844 124.523438 194.519531 126.820312 194.519531 129.625 L 194.519531 264.363281 " fill-opacity="1" fill-rule="nonzero"/><path fill="#e9eae9" d="M 189.484375 171.910156 C 189.484375 174.714844 187.179688 177.007812 184.363281 177.007812 L 145.789062 177.007812 C 142.96875 177.007812 140.664062 174.714844 140.664062 171.910156 L 140.664062 134.386719 C 140.664062 131.578125 142.96875 129.285156 145.789062 129.285156 L 184.363281 129.285156 C 187.179688 129.285156 189.484375 131.578125 189.484375 134.386719 L 189.484375 171.910156 " fill-opacity="1" fill-rule="nonzero"/><path fill="#8f9295" d="M 107.269531 129.285156 L 74.011719 129.285156 L 74.011719 128.035156 L 107.269531 128.035156 L 107.269531 129.285156 " fill-opacity="1" fill-rule="nonzero"/><path fill="#8f9295" d="M 118.375 135.109375 L 87.542969 135.109375 L 87.542969 133.859375 L 118.375 133.859375 L 118.375 135.109375 " fill-opacity="1" fill-rule="nonzero"/><path fill="#8f9295" d="M 104.644531 140.621094 L 78.523438 140.621094 L 78.523438 139.371094 L 104.644531 139.371094 L 104.644531 140.621094 " fill-opacity="1" fill-rule="nonzero"/><path fill="#8f9295" d="M 112.722656 152.242188 L 86.601562 152.246094 L 86.601562 150.996094 L 112.722656 150.996094 L 112.722656 152.242188 " fill-opacity="1" fill-rule="nonzero"/><path fill="#8f9295" d="M 118.847656 145.820312 L 90.640625 145.820312 L 90.640625 144.574219 L 118.847656 144.574219 L 118.847656 145.820312 " fill-opacity="1" fill-rule="nonzero"/><path fill="#8f9295" d="M 112.621094 167.628906 L 81.25 167.628906 L 81.25 166.382812 L 112.621094 166.382812 L 112.621094 167.628906 " fill-opacity="1" fill-rule="nonzero"/><path fill="#8f9295" d="M 112.316406 175.253906 L 74.011719 175.253906 L 74.011719 174.003906 L 112.316406 174.003906 L 112.316406 175.253906 " fill-opacity="1" fill-rule="nonzero"/><path fill="#8f9295" d="M 117.769531 180.753906 L 86.601562 180.753906 L 86.601562 179.503906 L 117.769531 179.503906 L 117.769531 180.753906 " fill-opacity="1" fill-rule="nonzero"/><path fill="#8f9295" d="M 108.613281 188.476562 L 77.582031 188.476562 L 77.582031 187.230469 L 108.613281 187.230469 L 108.613281 188.476562 " fill-opacity="1" fill-rule="nonzero"/><path fill="#8f9295" d="M 117.703125 195.515625 L 86.667969 195.515625 L 86.667969 194.265625 L 117.703125 194.265625 L 117.703125 195.515625 " fill-opacity="1" fill-rule="nonzero"/><path fill="#8f9295" d="M 165.933594 188.320312 L 141.902344 188.320312 L 141.902344 187.074219 L 165.933594 187.074219 L 165.933594 188.320312 " fill-opacity="1" fill-rule="nonzero"/><path fill="#8f9295" d="M 185.765625 194.109375 L 161.734375 194.109375 L 161.734375 192.863281 L 185.765625 192.863281 L 185.765625 194.109375 " fill-opacity="1" fill-rule="nonzero"/><path fill="#8f9295" d="M 165.933594 199.898438 L 141.902344 199.898438 L 141.902344 198.648438 L 165.933594 198.652344 L 165.933594 199.898438 " fill-opacity="1" fill-rule="nonzero"/><path fill="#211c1d" d="M 190.796875 205.6875 L 141.902344 205.6875 L 141.902344 204.4375 L 190.796875 204.4375 L 190.796875 205.6875 " fill-opacity="1" fill-rule="nonzero"/><path fill="#211c1d" d="M 125.746094 159.171875 L 76.851562 159.171875 L 76.851562 157.921875 L 125.746094 157.921875 L 125.746094 159.171875 " fill-opacity="1" fill-rule="nonzero"/><path fill="#211c1d" d="M 125.746094 205.175781 L 76.851562 205.175781 L 76.851562 203.925781 L 125.746094 203.925781 L 125.746094 205.175781 " fill-opacity="1" fill-rule="nonzero"/><path fill="#211c1d" d="M 125.746094 251.179688 L 76.851562 251.179688 L 76.851562 249.929688 L 125.746094 249.929688 L 125.746094 251.179688 " fill-opacity="1" fill-rule="nonzero"/><path fill="#8f9295" d="M 165.933594 211.476562 L 141.902344 211.476562 L 141.902344 210.226562 L 165.933594 210.226562 L 165.933594 211.476562 " fill-opacity="1" fill-rule="nonzero"/><path fill="#8f9295" d="M 174.421875 217.261719 L 141.902344 217.261719 L 141.902344 216.015625 L 174.421875 216.015625 L 174.421875 217.261719 " fill-opacity="1" fill-rule="nonzero"/><path fill="#8f9295" d="M 179.925781 223.050781 L 155.890625 223.050781 L 155.890625 221.804688 L 179.925781 221.804688 L 179.925781 223.050781 " fill-opacity="1" fill-rule="nonzero"/><path fill="#8f9295" d="M 179.785156 228.839844 L 155.75 228.839844 L 155.75 227.589844 L 179.785156 227.589844 L 179.785156 228.839844 " fill-opacity="1" fill-rule="nonzero"/><path fill="#8f9295" d="M 165.933594 234.625 L 141.902344 234.625 L 141.902344 233.378906 L 165.933594 233.378906 L 165.933594 234.625 " fill-opacity="1" fill-rule="nonzero"/><path fill="#211c1d" d="M 190.796875 240.414062 L 141.902344 240.414062 L 141.902344 239.167969 L 190.796875 239.167969 L 190.796875 240.414062 " fill-opacity="1" fill-rule="nonzero"/><path fill="#8f9295" d="M 165.933594 246.203125 L 141.902344 246.203125 L 141.902344 244.957031 L 165.933594 244.957031 L 165.933594 246.203125 " fill-opacity="1" fill-rule="nonzero"/><path fill="#8f9295" d="M 171.375 251.992188 L 147.339844 251.992188 L 147.339844 250.742188 L 171.375 250.742188 L 171.375 251.992188 " fill-opacity="1" fill-rule="nonzero"/><path fill="#8f9295" d="M 181.632812 257.78125 L 157.601562 257.78125 L 157.601562 256.53125 L 181.632812 256.53125 L 181.632812 257.78125 " fill-opacity="1" fill-rule="nonzero"/><path fill="#8f9295" d="M 165.933594 263.566406 L 141.902344 263.566406 L 141.902344 262.320312 L 165.933594 262.320312 L 165.933594 263.566406 " fill-opacity="1" fill-rule="nonzero"/><path fill="#8f9295" d="M 115.347656 217.371094 L 87.476562 217.371094 L 87.476562 216.125 L 115.347656 216.125 L 115.347656 217.371094 " fill-opacity="1" fill-rule="nonzero"/><path fill="#8f9295" d="M 111.511719 223.050781 L 80.140625 223.050781 L 80.140625 221.800781 L 111.511719 221.800781 L 111.511719 223.050781 " fill-opacity="1" fill-rule="nonzero"/><path fill="#8f9295" d="M 116.574219 211.34375 L 85.203125 211.34375 L 85.203125 210.09375 L 116.574219 210.09375 L 116.574219 211.34375 " fill-opacity="1" fill-rule="nonzero"/><path fill="#8f9295" d="M 115.886719 228.5 L 76.773438 228.5 L 76.773438 227.25 L 115.886719 227.25 L 115.886719 228.5 " fill-opacity="1" fill-rule="nonzero"/><path fill="#8f9295" d="M 120.394531 236.402344 L 77.917969 236.402344 L 77.917969 235.15625 L 120.394531 235.15625 L 120.394531 236.402344 " fill-opacity="1" fill-rule="nonzero"/><path fill="#8f9295" d="M 123.359375 243.058594 L 93.164062 243.058594 L 93.164062 241.8125 L 123.359375 241.8125 L 123.359375 243.058594 " fill-opacity="1" fill-rule="nonzero"/><path fill="#100f0d" d="M 98.109375 114.386719 L 99.976562 114.386719 C 101.925781 114.386719 103.160156 113.324219 103.160156 111.71875 C 103.160156 109.902344 101.839844 109.109375 99.914062 109.089844 C 99.03125 109.089844 98.402344 109.171875 98.109375 109.253906 Z M 96.285156 107.984375 C 97.207031 107.792969 98.527344 107.691406 99.785156 107.691406 C 101.734375 107.691406 102.992188 108.046875 103.875 108.839844 C 104.585938 109.464844 104.984375 110.421875 104.984375 111.507812 C 104.984375 113.367188 103.8125 114.597656 102.324219 115.097656 L 102.324219 115.160156 C 103.414062 115.535156 104.0625 116.539062 104.398438 118 C 104.859375 119.960938 105.195312 121.316406 105.488281 121.859375 L 103.601562 121.859375 C 103.371094 121.464844 103.058594 120.253906 102.65625 118.5 C 102.238281 116.558594 101.484375 115.828125 99.828125 115.765625 L 98.109375 115.765625 L 98.109375 121.859375 L 96.285156 121.859375 L 96.285156 107.984375 " fill-opacity="1" fill-rule="nonzero"/><path fill="#100f0d" d="M 114.878906 115.265625 L 109.386719 115.265625 L 109.386719 120.335938 L 115.507812 120.335938 L 115.507812 121.859375 L 107.5625 121.859375 L 107.5625 107.792969 L 115.191406 107.792969 L 115.191406 109.320312 L 109.386719 109.320312 L 109.386719 113.761719 L 114.878906 113.761719 L 114.878906 115.265625 " fill-opacity="1" fill-rule="nonzero"/><path fill="#100f0d" d="M 117.625 119.648438 C 118.441406 120.148438 119.636719 120.566406 120.894531 120.566406 C 122.757812 120.566406 123.847656 119.585938 123.847656 118.164062 C 123.847656 116.851562 123.09375 116.097656 121.1875 115.371094 C 118.878906 114.554688 117.457031 113.367188 117.457031 111.382812 C 117.457031 109.191406 119.277344 107.566406 122.023438 107.566406 C 123.472656 107.566406 124.519531 107.898438 125.148438 108.253906 L 124.644531 109.734375 C 124.183594 109.484375 123.242188 109.066406 121.960938 109.066406 C 120.035156 109.066406 119.300781 110.214844 119.300781 111.175781 C 119.300781 112.488281 120.160156 113.136719 122.109375 113.886719 C 124.5 114.804688 125.714844 115.953125 125.714844 118.019531 C 125.714844 120.191406 124.101562 122.066406 120.765625 122.066406 C 119.40625 122.066406 117.917969 121.671875 117.160156 121.171875 L 117.625 119.648438 " fill-opacity="1" fill-rule="nonzero"/><path fill="#100f0d" d="M 130.03125 107.792969 L 130.03125 116.121094 C 130.03125 119.273438 131.4375 120.605469 133.320312 120.605469 C 135.417969 120.605469 136.761719 119.230469 136.761719 116.121094 L 136.761719 107.792969 L 138.605469 107.792969 L 138.605469 115.996094 C 138.605469 120.316406 136.320312 122.089844 133.257812 122.089844 C 130.367188 122.089844 128.1875 120.441406 128.1875 116.078125 L 128.1875 107.792969 L 130.03125 107.792969 " fill-opacity="1" fill-rule="nonzero"/><path fill="#100f0d" d="M 153.675781 115.683594 C 153.570312 113.722656 153.445312 111.363281 153.464844 109.609375 L 153.402344 109.609375 C 152.921875 111.257812 152.332031 113.011719 151.621094 114.953125 L 149.125 121.773438 L 147.742188 121.773438 L 145.457031 115.078125 C 144.785156 113.09375 144.222656 111.28125 143.824219 109.609375 L 143.78125 109.609375 C 143.738281 111.363281 143.632812 113.722656 143.507812 115.828125 L 143.132812 121.859375 L 141.390625 121.859375 L 142.375 107.792969 L 144.703125 107.792969 L 147.113281 114.597656 C 147.699219 116.328125 148.183594 117.875 148.539062 119.335938 L 148.601562 119.335938 C 148.957031 117.914062 149.460938 116.371094 150.089844 114.597656 L 152.605469 107.792969 L 154.933594 107.792969 L 155.8125 121.859375 L 154.03125 121.859375 L 153.675781 115.683594 " fill-opacity="1" fill-rule="nonzero"/><path fill="#100f0d" d="M 165.9375 115.265625 L 160.445312 115.265625 L 160.445312 120.335938 L 166.566406 120.335938 L 166.566406 121.859375 L 158.621094 121.859375 L 158.621094 107.792969 L 166.25 107.792969 L 166.25 109.320312 L 160.445312 109.320312 L 160.445312 113.761719 L 165.9375 113.761719 L 165.9375 115.265625 " fill-opacity="1" fill-rule="nonzero"/><path fill="#e9eae9" d="M 189.484375 174.402344 C 189.484375 177.207031 187.179688 179.503906 184.363281 179.503906 L 145.789062 179.503906 C 142.96875 179.503906 140.664062 177.210938 140.664062 174.402344 L 140.664062 134.386719 C 140.664062 131.578125 142.96875 129.285156 145.789062 129.285156 L 184.363281 129.285156 C 187.179688 129.285156 189.484375 131.578125 189.484375 134.386719 L 189.484375 174.402344 " fill-opacity="1" fill-rule="nonzero"/><path fill="#d3d4d3" d="M 173.21875 167.804688 L 172.574219 162.070312 C 174.230469 160.449219 175.566406 158.300781 176.433594 155.820312 C 176.691406 156.40625 176.996094 156.742188 177.324219 156.742188 C 178.257812 156.742188 179.011719 154.027344 179.011719 150.675781 C 179.011719 147.324219 178.257812 144.609375 177.324219 144.609375 C 177.226562 144.609375 177.125 144.640625 177.027344 144.703125 C 175.523438 138.003906 170.742188 133.105469 165.074219 133.105469 C 159.410156 133.105469 154.628906 138.003906 153.121094 144.703125 C 153.023438 144.640625 152.925781 144.609375 152.824219 144.609375 C 151.894531 144.609375 151.136719 147.324219 151.136719 150.675781 C 151.136719 154.027344 151.894531 156.742188 152.824219 156.742188 C 153.152344 156.742188 153.460938 156.40625 153.71875 155.820312 C 154.582031 158.300781 155.917969 160.449219 157.578125 162.070312 L 156.933594 167.804688 L 143.253906 167.804688 L 143.253906 175.550781 L 186.894531 175.550781 L 186.894531 167.804688 L 173.21875 167.804688 " fill-opacity="1" fill-rule="nonzero"/><path fill="#bbbcbd" d="M 149.132812 153.101562 C 149.355469 153.160156 149.636719 153.183594 149.976562 153.183594 C 151.207031 153.183594 151.960938 152.585938 151.960938 151.503906 C 151.960938 150.464844 151.222656 149.960938 150.097656 149.960938 C 149.648438 149.960938 149.308594 149.996094 149.132812 150.042969 Z M 148.113281 149.308594 C 148.605469 149.226562 149.25 149.15625 150.070312 149.15625 C 151.078125 149.15625 151.820312 149.390625 152.289062 149.808594 C 152.722656 150.183594 152.980469 150.753906 152.980469 151.453125 C 152.980469 152.167969 152.769531 152.726562 152.371094 153.136719 C 151.832031 153.707031 150.953125 154 149.953125 154 C 149.648438 154 149.367188 153.988281 149.132812 153.929688 L 149.132812 157.078125 L 148.113281 157.078125 L 148.113281 149.308594 " fill-opacity="1" fill-rule="nonzero"/><path fill="#bbbcbd" d="M 155.371094 149.214844 L 155.371094 152.503906 L 159.191406 152.503906 L 159.191406 149.214844 L 160.222656 149.214844 L 160.222656 157.078125 L 159.191406 157.078125 L 159.191406 153.390625 L 155.371094 153.390625 L 155.371094 157.078125 L 154.351562 157.078125 L 154.351562 149.214844 L 155.371094 149.214844 " fill-opacity="1" fill-rule="nonzero"/><path fill="#bbbcbd" d="M 162.613281 153.195312 C 162.613281 154.875 163.527344 156.378906 165.132812 156.378906 C 166.75 156.378906 167.664062 154.898438 167.664062 153.113281 C 167.664062 151.546875 166.84375 149.914062 165.144531 149.914062 C 163.457031 149.914062 162.613281 151.46875 162.613281 153.195312 Z M 168.742188 153.066406 C 168.742188 155.773438 167.089844 157.207031 165.074219 157.207031 C 162.988281 157.207031 161.523438 155.597656 161.523438 153.21875 C 161.523438 150.71875 163.082031 149.085938 165.191406 149.085938 C 167.347656 149.085938 168.742188 150.730469 168.742188 153.066406 " fill-opacity="1" fill-rule="nonzero"/><path fill="#bbbcbd" d="M 171.277344 150.078125 L 168.875 150.078125 L 168.875 149.214844 L 174.722656 149.214844 L 174.722656 150.078125 L 172.308594 150.078125 L 172.308594 157.078125 L 171.277344 157.078125 L 171.277344 150.078125 " fill-opacity="1" fill-rule="nonzero"/><path fill="#bbbcbd" d="M 175.90625 153.195312 C 175.90625 154.875 176.820312 156.378906 178.425781 156.378906 C 180.042969 156.378906 180.957031 154.898438 180.957031 153.113281 C 180.957031 151.546875 180.136719 149.914062 178.4375 149.914062 C 176.75 149.914062 175.90625 151.46875 175.90625 153.195312 Z M 182.035156 153.066406 C 182.035156 155.773438 180.382812 157.207031 178.367188 157.207031 C 176.28125 157.207031 174.816406 155.597656 174.816406 153.21875 C 174.816406 150.71875 176.375 149.085938 178.484375 149.085938 C 180.640625 149.085938 182.035156 150.730469 182.035156 153.066406 " fill-opacity="1" fill-rule="nonzero"/></svg>