<svg xmlns="http://www.w3.org/2000/svg" xmlns:xlink="http://www.w3.org/1999/xlink" width="350" zoomAndPan="magnify" viewBox="0 0 262.5 374.999991" height="500" preserveAspectRatio="xMidYMid meet" version="1.0"><defs><filter x="0%" y="0%" width="100%" height="100%" id="id1"><feColorMatrix values="0 0 0 0 1 0 0 0 0 1 0 0 0 0 1 0 0 0 1 0" color-interpolation-filters="sRGB"/></filter><g/><clipPath id="id2"><path d="M 14.910156 0.355469 L 247.410156 0.355469 L 247.410156 374.640625 L 14.910156 374.640625 Z M 14.910156 0.355469 " clip-rule="nonzero"/></clipPath><clipPath id="id3"><path d="M 14.910156 0.359375 L 247.410156 0.359375 L 247.410156 374.640625 L 14.910156 374.640625 Z M 14.910156 0.359375 " clip-rule="nonzero"/></clipPath><clipPath id="id4"><path d="M 247.410156 14.609375 L 247.410156 361.09375 C 247.410156 368.964844 241.027344 375.34375 233.152344 375.34375 L 29.171875 375.34375 C 21.296875 375.34375 14.910156 368.964844 14.910156 361.09375 L 14.910156 14.609375 C 14.910156 6.738281 21.296875 0.359375 29.171875 0.359375 L 233.152344 0.359375 C 241.027344 0.359375 247.410156 6.738281 247.410156 14.609375 " clip-rule="nonzero"/></clipPath><clipPath id="id5"><path d="M 33.644531 23.023438 L 228.644531 23.023438 L 228.644531 353.023438 L 33.644531 353.023438 Z M 33.644531 23.023438 " clip-rule="nonzero"/></clipPath><clipPath id="id6"><path d="M 33.644531 23.023438 L 228.644531 23.023438 L 228.644531 353.023438 L 33.644531 353.023438 Z M 33.644531 23.023438 " clip-rule="nonzero"/></clipPath><clipPath id="id7"><path d="M 228.644531 37.289062 L 228.644531 338.753906 C 228.644531 346.632812 222.257812 353.019531 214.382812 353.019531 L 47.910156 353.019531 C 40.03125 353.019531 33.644531 346.632812 33.644531 338.753906 L 33.644531 37.289062 C 33.644531 29.410156 40.03125 23.023438 47.910156 23.023438 L 214.382812 23.023438 C 222.257812 23.023438 228.644531 29.410156 228.644531 37.289062 " clip-rule="nonzero"/></clipPath><mask id="id8"><g filter="url(#id1)"><rect x="-26.25" width="315" fill="#000000" y="-37.499999" height="449.999989" fill-opacity="0.8"/></g></mask><clipPath id="id9"><path d="M 6 0.3125 L 160 0.3125 L 160 173.5625 L 6 173.5625 Z M 6 0.3125 " clip-rule="nonzero"/></clipPath><clipPath id="id10"><rect x="0" width="167" y="0" height="174"/></clipPath></defs><g clip-path="url(#id2)"><path fill="#053d57" d="M 247.410156 14.609375 L 247.410156 361.09375 C 247.410156 368.964844 241.027344 375.34375 233.152344 375.34375 L 29.171875 375.34375 C 21.296875 375.34375 14.910156 368.964844 14.910156 361.09375 L 14.910156 14.609375 C 14.910156 6.738281 21.296875 0.359375 29.171875 0.359375 L 233.152344 0.359375 C 241.027344 0.359375 247.410156 6.738281 247.410156 14.609375 " fill-opacity="1" fill-rule="nonzero"/></g><g clip-path="url(#id3)"><g clip-path="url(#id4)"><path stroke-linecap="butt" transform="matrix(0.000000000000000046, 0.75, -0.750567, 0.000000000000000046, 247.412078, 0.359462)" fill="none" stroke-linejoin="miter" d="M 18.999886 0.00256062 L 480.979114 0.00256062 C 491.473907 0.00256062 499.979116 8.506543 499.979116 18.998605 L 499.979116 290.766952 C 499.979116 301.259014 491.473907 309.768201 480.979114 309.768201 L 18.999886 309.768201 C 8.505093 309.768201 -0.00011601 301.259014 -0.00011601 290.766952 L -0.00011601 18.998605 C -0.00011601 8.506543 8.505093 0.00256062 18.999886 0.00256062 " stroke="#000000" stroke-width="2" stroke-opacity="1" stroke-miterlimit="4"/></g></g><g clip-path="url(#id5)"><path fill="#f2f1ef" d="M 228.644531 37.289062 L 228.644531 338.753906 C 228.644531 346.632812 222.257812 353.019531 214.382812 353.019531 L 47.910156 353.019531 C 40.03125 353.019531 33.644531 346.632812 33.644531 338.753906 L 33.644531 37.289062 C 33.644531 29.410156 40.03125 23.023438 47.910156 23.023438 L 214.382812 23.023438 C 222.257812 23.023438 228.644531 29.410156 228.644531 37.289062 " fill-opacity="1" fill-rule="nonzero"/></g><g clip-path="url(#id6)"><g clip-path="url(#id7)"><path stroke-linecap="butt" transform="matrix(0.000000000000000046, 0.750773, -0.750767, 0.000000000000000046, 228.645807, 23.024733)" fill="none" stroke-linejoin="miter" d="M 18.999523 0.00169877 L 420.53878 0.00169877 C 431.033172 0.00169877 439.540029 8.508625 439.540029 18.997899 L 439.540029 240.734701 C 439.540029 251.229178 431.033172 259.736105 420.53878 259.736105 L 18.999523 259.736105 C 8.505132 259.736105 -0.00172525 251.229178 -0.00172525 240.734701 L -0.00172525 18.997899 C -0.00172525 8.508625 8.505132 0.00169877 18.999523 0.00169877 " stroke="#fd7702" stroke-width="4" stroke-opacity="1" stroke-miterlimit="4"/></g></g><g mask="url(#id8)"><g transform="matrix(1, 0, 0, 1, 48, 101)"><g clip-path="url(#id10)"><g clip-path="url(#id9)"><path fill="#000000" d="M 39.660156 173.5625 C 70.804688 166.621094 74.152344 148.328125 76.503906 114.683594 C 71.089844 123.671875 61.253906 130.304688 45.195312 130.25 C 18.796875 130.160156 1.113281 114.761719 7.40625 81.523438 C 13.75 48.011719 61.253906 35.019531 82.847656 0.3125 C 104.441406 35.019531 151.945312 48.011719 158.289062 81.523438 C 164.578125 114.761719 147.625 130.15625 120.5 130.25 C 104.441406 130.304688 94.601562 123.671875 89.191406 114.683594 C 91.539062 148.328125 94.890625 166.621094 126.035156 173.5625 Z M 39.660156 173.5625 " fill-opacity="1" fill-rule="nonzero"/></g></g></g></g><g fill="#ffffff" fill-opacity="1"><g transform="translate(87.022835, 200.885485)"><g><path d="M 23.546875 -7.203125 C 23.546875 -4.796875 22.601562 -2.929688 20.71875 -1.609375 C 18.832031 -0.285156 16.179688 0.375 12.765625 0.375 C 6.410156 0.375 2.726562 -1.832031 1.71875 -6.25 L 5.140625 -6.9375 C 5.535156 -5.375 6.375 -4.222656 7.65625 -3.484375 C 8.945312 -2.753906 10.695312 -2.390625 12.90625 -2.390625 C 15.1875 -2.390625 16.945312 -2.78125 18.1875 -3.5625 C 19.425781 -4.34375 20.046875 -5.492188 20.046875 -7.015625 C 20.046875 -7.867188 19.847656 -8.5625 19.453125 -9.09375 C 19.066406 -9.625 18.519531 -10.0625 17.8125 -10.40625 C 17.113281 -10.75 16.273438 -11.035156 15.296875 -11.265625 C 14.328125 -11.503906 13.25 -11.757812 12.0625 -12.03125 C 10.007812 -12.488281 8.445312 -12.941406 7.375 -13.390625 C 6.3125 -13.847656 5.46875 -14.359375 4.84375 -14.921875 C 4.226562 -15.484375 3.753906 -16.140625 3.421875 -16.890625 C 3.097656 -17.648438 2.9375 -18.515625 2.9375 -19.484375 C 2.9375 -21.722656 3.789062 -23.445312 5.5 -24.65625 C 7.207031 -25.863281 9.65625 -26.46875 12.84375 -26.46875 C 15.800781 -26.46875 18.0625 -26.015625 19.625 -25.109375 C 21.195312 -24.203125 22.300781 -22.65625 22.9375 -20.46875 L 19.453125 -19.859375 C 19.066406 -21.242188 18.335938 -22.242188 17.265625 -22.859375 C 16.191406 -23.484375 14.707031 -23.796875 12.8125 -23.796875 C 10.726562 -23.796875 9.132812 -23.453125 8.03125 -22.765625 C 6.9375 -22.078125 6.390625 -21.046875 6.390625 -19.671875 C 6.390625 -18.867188 6.597656 -18.207031 7.015625 -17.6875 C 7.441406 -17.164062 8.054688 -16.722656 8.859375 -16.359375 C 9.660156 -15.992188 11.257812 -15.546875 13.65625 -15.015625 C 14.457031 -14.828125 15.253906 -14.632812 16.046875 -14.4375 C 16.847656 -14.25 17.613281 -14.019531 18.34375 -13.75 C 19.070312 -13.488281 19.753906 -13.179688 20.390625 -12.828125 C 21.023438 -12.472656 21.578125 -12.035156 22.046875 -11.515625 C 22.515625 -10.992188 22.878906 -10.378906 23.140625 -9.671875 C 23.410156 -8.972656 23.546875 -8.148438 23.546875 -7.203125 Z M 23.546875 -7.203125 "/></g></g><g transform="translate(112.303478, 200.885485)"><g><path d="M 15.109375 0 L 8.328125 -9.140625 L 5.890625 -7.125 L 5.890625 0 L 2.546875 0 L 2.546875 -27.46875 L 5.890625 -27.46875 L 5.890625 -10.3125 L 14.671875 -20.03125 L 18.578125 -20.03125 L 10.453125 -11.421875 L 19.015625 0 Z M 15.109375 0 "/></g></g><g transform="translate(131.254707, 200.885485)"><g><path d="M 2.53125 -24.28125 L 2.53125 -27.46875 L 5.875 -27.46875 L 5.875 -24.28125 Z M 2.53125 0 L 2.53125 -20.03125 L 5.875 -20.03125 L 5.875 0 Z M 2.53125 0 "/></g></g><g transform="translate(139.675419, 200.885485)"><g><path d="M 2.546875 0 L 2.546875 -27.46875 L 5.890625 -27.46875 L 5.890625 0 Z M 2.546875 0 "/></g></g><g transform="translate(148.096132, 200.885485)"><g><path d="M 2.546875 0 L 2.546875 -27.46875 L 5.890625 -27.46875 L 5.890625 0 Z M 2.546875 0 "/></g></g><g transform="translate(156.516844, 200.885485)"><g><path d="M 17.578125 -5.53125 C 17.578125 -3.644531 16.863281 -2.1875 15.4375 -1.15625 C 14.019531 -0.132812 12.023438 0.375 9.453125 0.375 C 6.960938 0.375 5.039062 -0.0351562 3.6875 -0.859375 C 2.34375 -1.679688 1.46875 -2.960938 1.0625 -4.703125 L 4 -5.28125 C 4.28125 -4.207031 4.863281 -3.421875 5.75 -2.921875 C 6.644531 -2.421875 7.878906 -2.171875 9.453125 -2.171875 C 11.148438 -2.171875 12.390625 -2.425781 13.171875 -2.9375 C 13.953125 -3.457031 14.34375 -4.238281 14.34375 -5.28125 C 14.34375 -6.0625 14.070312 -6.695312 13.53125 -7.1875 C 12.988281 -7.6875 12.113281 -8.097656 10.90625 -8.421875 L 8.515625 -9.046875 C 6.597656 -9.546875 5.234375 -10.03125 4.421875 -10.5 C 3.617188 -10.976562 2.988281 -11.554688 2.53125 -12.234375 C 2.070312 -12.910156 1.84375 -13.742188 1.84375 -14.734375 C 1.84375 -16.554688 2.492188 -17.945312 3.796875 -18.90625 C 5.097656 -19.863281 7 -20.34375 9.5 -20.34375 C 11.707031 -20.34375 13.460938 -19.953125 14.765625 -19.171875 C 16.066406 -18.398438 16.890625 -17.15625 17.234375 -15.4375 L 14.234375 -15.0625 C 14.046875 -15.957031 13.546875 -16.640625 12.734375 -17.109375 C 11.929688 -17.585938 10.851562 -17.828125 9.5 -17.828125 C 7.988281 -17.828125 6.875 -17.597656 6.15625 -17.140625 C 5.445312 -16.679688 5.09375 -15.988281 5.09375 -15.0625 C 5.09375 -14.5 5.238281 -14.03125 5.53125 -13.65625 C 5.832031 -13.289062 6.269531 -12.976562 6.84375 -12.71875 C 7.425781 -12.457031 8.648438 -12.097656 10.515625 -11.640625 C 12.273438 -11.191406 13.539062 -10.78125 14.3125 -10.40625 C 15.09375 -10.03125 15.707031 -9.613281 16.15625 -9.15625 C 16.613281 -8.707031 16.960938 -8.179688 17.203125 -7.578125 C 17.453125 -6.984375 17.578125 -6.300781 17.578125 -5.53125 Z M 17.578125 -5.53125 "/></g></g></g></svg>