<svg xmlns="http://www.w3.org/2000/svg" xmlns:xlink="http://www.w3.org/1999/xlink" width="350" zoomAndPan="magnify" viewBox="0 0 262.5 374.999991" height="500" preserveAspectRatio="xMidYMid meet" version="1.0"><defs><clipPath id="id1"><path d="M 14.910156 0.355469 L 247.410156 0.355469 L 247.410156 374.640625 L 14.910156 374.640625 Z M 14.910156 0.355469 " clip-rule="nonzero"/></clipPath><clipPath id="id2"><path d="M 14.910156 0.359375 L 247.410156 0.359375 L 247.410156 374.640625 L 14.910156 374.640625 Z M 14.910156 0.359375 " clip-rule="nonzero"/></clipPath><clipPath id="id3"><path d="M 247.410156 14.609375 L 247.410156 361.09375 C 247.410156 368.964844 241.027344 375.34375 233.152344 375.34375 L 29.171875 375.34375 C 21.296875 375.34375 14.910156 368.964844 14.910156 361.09375 L 14.910156 14.609375 C 14.910156 6.738281 21.296875 0.359375 29.171875 0.359375 L 233.152344 0.359375 C 241.027344 0.359375 247.410156 6.738281 247.410156 14.609375 " clip-rule="nonzero"/></clipPath><clipPath id="id4"><path d="M 33.644531 23.023438 L 228.644531 23.023438 L 228.644531 353.023438 L 33.644531 353.023438 Z M 33.644531 23.023438 " clip-rule="nonzero"/></clipPath><clipPath id="id5"><path d="M 33.644531 23.023438 L 228.644531 23.023438 L 228.644531 353.023438 L 33.644531 353.023438 Z M 33.644531 23.023438 " clip-rule="nonzero"/></clipPath><clipPath id="id6"><path d="M 228.644531 37.289062 L 228.644531 338.753906 C 228.644531 346.632812 222.257812 353.019531 214.382812 353.019531 L 47.910156 353.019531 C 40.03125 353.019531 33.644531 346.632812 33.644531 338.753906 L 33.644531 37.289062 C 33.644531 29.410156 40.03125 23.023438 47.910156 23.023438 L 214.382812 23.023438 C 222.257812 23.023438 228.644531 29.410156 228.644531 37.289062 " clip-rule="nonzero"/></clipPath></defs><g clip-path="url(#id1)"><path fill="#053d57" d="M 247.410156 14.609375 L 247.410156 361.09375 C 247.410156 368.964844 241.027344 375.34375 233.152344 375.34375 L 29.171875 375.34375 C 21.296875 375.34375 14.910156 368.964844 14.910156 361.09375 L 14.910156 14.609375 C 14.910156 6.738281 21.296875 0.359375 29.171875 0.359375 L 233.152344 0.359375 C 241.027344 0.359375 247.410156 6.738281 247.410156 14.609375 " fill-opacity="1" fill-rule="nonzero"/></g><g clip-path="url(#id2)"><g clip-path="url(#id3)"><path stroke-linecap="butt" transform="matrix(0.000000000000000046, 0.75, -0.750567, 0.000000000000000046, 247.412078, 0.359579)" fill="none" stroke-linejoin="miter" d="M 18.999731 0.00256062 L 480.978958 0.00256062 C 491.473751 0.00256062 499.97896 8.506543 499.97896 18.998605 L 499.97896 290.766952 C 499.97896 301.259014 491.473751 309.768201 480.978958 309.768201 L 18.999731 309.768201 C 8.504937 309.768201 -0.000271963 301.259014 -0.000271963 290.766952 L -0.000271963 18.998605 C -0.000271963 8.506543 8.504937 0.00256062 18.999731 0.00256062 " stroke="#000000" stroke-width="2" stroke-opacity="1" stroke-miterlimit="4"/></g></g><g clip-path="url(#id4)"><path fill="#006884" d="M 228.644531 37.289062 L 228.644531 338.753906 C 228.644531 346.632812 222.257812 353.019531 214.382812 353.019531 L 47.910156 353.019531 C 40.03125 353.019531 33.644531 346.632812 33.644531 338.753906 L 33.644531 37.289062 C 33.644531 29.410156 40.03125 23.023438 47.910156 23.023438 L 214.382812 23.023438 C 222.257812 23.023438 228.644531 29.410156 228.644531 37.289062 " fill-opacity="1" fill-rule="nonzero"/></g><g clip-path="url(#id5)"><g clip-path="url(#id6)"><path stroke-linecap="butt" transform="matrix(0.000000000000000046, 0.750773, -0.750767, 0.000000000000000046, 228.645807, 23.024616)" fill="none" stroke-linejoin="miter" d="M 18.999679 0.00169877 L 420.538936 0.00169877 C 431.033327 0.00169877 439.540184 8.508625 439.540184 18.997899 L 439.540184 240.734701 C 439.540184 251.229178 431.033327 259.736105 420.538936 259.736105 L 18.999679 259.736105 C 8.505287 259.736105 -0.00156954 251.229178 -0.00156954 240.734701 L -0.00156954 18.997899 C -0.00156954 8.508625 8.505287 0.00169877 18.999679 0.00169877 " stroke="#fd7702" stroke-width="6" stroke-opacity="1" stroke-miterlimit="4"/></g></g><path fill="#fd7702" d="M 119.585938 151.800781 L 143.578125 127.808594 C 143.578125 127.808594 167.570312 103.8125 191.566406 127.808594 C 215.558594 151.800781 191.566406 175.792969 191.566406 175.792969 L 159.574219 207.78125 C 159.574219 207.78125 135.582031 231.777344 111.589844 207.78125 C 107.089844 203.285156 104.300781 197.304688 104.300781 197.304688 L 117.710938 183.917969 C 117.710938 183.917969 117.171875 189.371094 123.585938 195.785156 C 123.585938 195.785156 135.582031 207.78125 147.578125 195.785156 L 179.566406 163.796875 C 179.566406 163.796875 191.566406 151.800781 179.566406 139.804688 C 167.570312 127.808594 155.574219 139.804688 155.574219 139.804688 L 140.664062 154.714844 C 140.664062 154.714844 133.25 148.632812 118.085938 153.300781 Z M 119.585938 151.800781 " fill-opacity="1" fill-rule="nonzero"/><path fill="#fd7702" d="M 142.957031 223.777344 L 118.964844 247.769531 C 118.964844 247.769531 94.972656 271.765625 70.980469 247.769531 C 46.988281 223.777344 70.980469 199.785156 70.980469 199.785156 L 102.972656 167.792969 C 102.972656 167.792969 126.964844 143.800781 150.957031 167.792969 C 155.457031 172.292969 158.242188 178.273438 158.242188 178.273438 L 144.832031 191.664062 C 144.832031 191.664062 145.371094 186.207031 138.957031 179.792969 C 138.957031 179.792969 126.960938 167.792969 114.964844 179.792969 L 82.972656 211.78125 C 82.972656 211.78125 70.976562 223.777344 82.972656 235.773438 C 94.96875 247.769531 106.964844 235.773438 106.964844 235.773438 L 121.878906 220.863281 C 121.878906 220.863281 129.289062 226.945312 144.453125 222.277344 Z M 142.957031 223.777344 " fill-opacity="1" fill-rule="nonzero"/></svg>