<svg xmlns="http://www.w3.org/2000/svg" xmlns:xlink="http://www.w3.org/1999/xlink" width="350" zoomAndPan="magnify" viewBox="0 0 262.5 374.999991" height="500" preserveAspectRatio="xMidYMid meet" version="1.0"><defs><clipPath id="id1"><path d="M 14.910156 0.355469 L 247.410156 0.355469 L 247.410156 374.640625 L 14.910156 374.640625 Z M 14.910156 0.355469 " clip-rule="nonzero"/></clipPath><clipPath id="id2"><path d="M 14.910156 0.359375 L 247.410156 0.359375 L 247.410156 374.640625 L 14.910156 374.640625 Z M 14.910156 0.359375 " clip-rule="nonzero"/></clipPath><clipPath id="id3"><path d="M 247.410156 14.609375 L 247.410156 361.09375 C 247.410156 368.964844 241.027344 375.34375 233.152344 375.34375 L 29.171875 375.34375 C 21.296875 375.34375 14.910156 368.964844 14.910156 361.09375 L 14.910156 14.609375 C 14.910156 6.738281 21.296875 0.359375 29.171875 0.359375 L 233.152344 0.359375 C 241.027344 0.359375 247.410156 6.738281 247.410156 14.609375 " clip-rule="nonzero"/></clipPath><clipPath id="id4"><path d="M 33.644531 23.023438 L 228.644531 23.023438 L 228.644531 353.023438 L 33.644531 353.023438 Z M 33.644531 23.023438 " clip-rule="nonzero"/></clipPath><clipPath id="id5"><path d="M 33.644531 23.023438 L 228.644531 23.023438 L 228.644531 353.023438 L 33.644531 353.023438 Z M 33.644531 23.023438 " clip-rule="nonzero"/></clipPath><clipPath id="id6"><path d="M 228.644531 37.289062 L 228.644531 338.753906 C 228.644531 346.632812 222.257812 353.019531 214.382812 353.019531 L 47.910156 353.019531 C 40.03125 353.019531 33.644531 346.632812 33.644531 338.753906 L 33.644531 37.289062 C 33.644531 29.410156 40.03125 23.023438 47.910156 23.023438 L 214.382812 23.023438 C 222.257812 23.023438 228.644531 29.410156 228.644531 37.289062 " clip-rule="nonzero"/></clipPath><clipPath id="id7"><path d="M 57 115.253906 L 205 115.253906 L 205 260.753906 L 57 260.753906 Z M 57 115.253906 " clip-rule="nonzero"/></clipPath></defs><g clip-path="url(#id1)"><path fill="#053d57" d="M 247.410156 14.609375 L 247.410156 361.09375 C 247.410156 368.964844 241.027344 375.34375 233.152344 375.34375 L 29.171875 375.34375 C 21.296875 375.34375 14.910156 368.964844 14.910156 361.09375 L 14.910156 14.609375 C 14.910156 6.738281 21.296875 0.359375 29.171875 0.359375 L 233.152344 0.359375 C 241.027344 0.359375 247.410156 6.738281 247.410156 14.609375 " fill-opacity="1" fill-rule="nonzero"/></g><g clip-path="url(#id2)"><g clip-path="url(#id3)"><path stroke-linecap="butt" transform="matrix(0.000000000000000046, 0.75, -0.750567, 0.000000000000000046, 247.412078, 0.359462)" fill="none" stroke-linejoin="miter" d="M 18.999886 0.00256062 L 480.979114 0.00256062 C 491.473907 0.00256062 499.979116 8.506543 499.979116 18.998605 L 499.979116 290.766952 C 499.979116 301.259014 491.473907 309.768201 480.979114 309.768201 L 18.999886 309.768201 C 8.505093 309.768201 -0.00011601 301.259014 -0.00011601 290.766952 L -0.00011601 18.998605 C -0.00011601 8.506543 8.505093 0.00256062 18.999886 0.00256062 " stroke="#000000" stroke-width="2" stroke-opacity="1" stroke-miterlimit="4"/></g></g><g clip-path="url(#id4)"><path fill="#f2f1ef" d="M 228.644531 37.289062 L 228.644531 338.753906 C 228.644531 346.632812 222.257812 353.019531 214.382812 353.019531 L 47.910156 353.019531 C 40.03125 353.019531 33.644531 346.632812 33.644531 338.753906 L 33.644531 37.289062 C 33.644531 29.410156 40.03125 23.023438 47.910156 23.023438 L 214.382812 23.023438 C 222.257812 23.023438 228.644531 29.410156 228.644531 37.289062 " fill-opacity="1" fill-rule="nonzero"/></g><g clip-path="url(#id5)"><g clip-path="url(#id6)"><path stroke-linecap="butt" transform="matrix(0.000000000000000046, 0.750773, -0.750767, 0.000000000000000046, 228.645807, 23.024733)" fill="none" stroke-linejoin="miter" d="M 18.999523 0.00169877 L 420.53878 0.00169877 C 431.033172 0.00169877 439.540029 8.508625 439.540029 18.997899 L 439.540029 240.734701 C 439.540029 251.229178 431.033172 259.736105 420.53878 259.736105 L 18.999523 259.736105 C 8.505132 259.736105 -0.00172525 251.229178 -0.00172525 240.734701 L -0.00172525 18.997899 C -0.00172525 8.508625 8.505132 0.00169877 18.999523 0.00169877 " stroke="#fd7702" stroke-width="4" stroke-opacity="1" stroke-miterlimit="4"/></g></g><g clip-path="url(#id7)"><path fill="#0072ff" d="M 154.492188 259.949219 C 155.867188 259.492188 157.222656 258.992188 158.566406 258.453125 C 159.910156 257.910156 161.238281 257.332031 162.546875 256.714844 C 163.855469 256.097656 165.144531 255.441406 166.417969 254.746094 C 167.6875 254.050781 168.9375 253.320312 170.164062 252.550781 C 171.394531 251.785156 172.597656 250.980469 173.777344 250.140625 C 174.960938 249.300781 176.117188 248.429688 177.246094 247.523438 C 178.375 246.613281 179.476562 245.675781 180.554688 244.703125 C 181.628906 243.730469 182.675781 242.726562 183.691406 241.691406 C 184.707031 240.660156 185.691406 239.59375 186.644531 238.503906 C 187.601562 237.410156 188.523438 236.292969 189.410156 235.144531 C 190.300781 234 191.152344 232.828125 191.972656 231.628906 C 192.792969 230.433594 193.578125 229.214844 194.328125 227.96875 C 195.074219 226.726562 195.785156 225.460938 196.460938 224.175781 C 197.136719 222.890625 197.773438 221.589844 198.371094 220.265625 C 198.96875 218.941406 199.527344 217.601562 200.050781 216.246094 C 200.570312 214.890625 201.050781 213.519531 201.488281 212.136719 C 201.929688 210.753906 202.328125 209.355469 202.6875 207.949219 C 203.042969 206.542969 203.359375 205.125 203.636719 203.699219 C 203.910156 202.273438 204.144531 200.839844 204.335938 199.398438 C 204.527344 197.957031 204.675781 196.515625 204.785156 195.066406 C 204.890625 193.617188 204.957031 192.164062 204.976562 190.714844 C 205 189.261719 204.980469 187.808594 204.917969 186.355469 C 204.851562 184.90625 204.746094 183.457031 204.601562 182.011719 C 204.453125 180.566406 204.261719 179.125 204.03125 177.691406 C 203.796875 176.257812 203.523438 174.832031 203.210938 173.414062 C 202.894531 171.996094 202.539062 170.589844 202.140625 169.191406 C 201.742188 167.796875 201.304688 166.410156 200.824219 165.039062 C 200.347656 163.667969 199.828125 162.3125 199.269531 160.972656 C 198.710938 159.632812 198.117188 158.308594 197.480469 157.003906 C 196.84375 155.699219 196.171875 154.414062 195.460938 153.148438 C 194.75 151.882812 194.003906 150.640625 193.21875 149.417969 C 192.4375 148.195312 191.617188 147 190.765625 145.824219 C 189.910156 144.652344 189.023438 143.503906 188.101562 142.382812 C 187.183594 141.261719 186.230469 140.171875 185.246094 139.105469 C 184.261719 138.042969 183.246094 137.007812 182.199219 136.003906 C 181.15625 134.996094 180.082031 134.023438 178.980469 133.082031 C 177.878906 132.140625 176.75 131.234375 175.59375 130.359375 C 174.4375 129.484375 173.257812 128.644531 172.054688 127.839844 C 170.851562 127.035156 169.625 126.265625 168.375 125.53125 C 167.125 124.796875 165.855469 124.101562 164.566406 123.445312 C 163.277344 122.789062 161.96875 122.167969 160.640625 121.585938 C 159.316406 121.007812 157.972656 120.464844 156.617188 119.964844 C 155.257812 119.460938 153.886719 119 152.5 118.582031 C 151.117188 118.160156 149.71875 117.78125 148.3125 117.441406 C 146.90625 117.105469 145.492188 116.808594 144.066406 116.554688 C 142.640625 116.296875 141.210938 116.085938 139.773438 115.914062 C 138.335938 115.746094 136.898438 115.617188 135.453125 115.53125 C 134.007812 115.445312 132.5625 115.402344 131.117188 115.402344 C 129.667969 115.402344 128.222656 115.445312 126.777344 115.53125 C 125.335938 115.617188 123.894531 115.746094 122.457031 115.914062 C 121.019531 116.085938 119.589844 116.296875 118.164062 116.554688 C 116.742188 116.808594 115.324219 117.105469 113.917969 117.441406 C 112.511719 117.78125 111.113281 118.160156 109.730469 118.582031 C 108.34375 119 106.972656 119.460938 105.617188 119.964844 C 104.257812 120.464844 102.914062 121.007812 101.589844 121.585938 C 100.261719 122.167969 98.953125 122.789062 97.664062 123.445312 C 96.375 124.101562 95.105469 124.796875 93.855469 125.53125 C 92.605469 126.265625 91.378906 127.035156 90.175781 127.839844 C 88.972656 128.644531 87.792969 129.484375 86.636719 130.359375 C 85.480469 131.234375 84.351562 132.140625 83.25 133.082031 C 82.148438 134.023438 81.074219 134.996094 80.03125 136.003906 C 78.984375 137.007812 77.96875 138.042969 76.984375 139.105469 C 76 140.171875 75.046875 141.261719 74.128906 142.382812 C 73.207031 143.503906 72.320312 144.652344 71.464844 145.824219 C 70.613281 147 69.792969 148.195312 69.011719 149.417969 C 68.226562 150.640625 67.480469 151.882812 66.769531 153.148438 C 66.058594 154.414062 65.386719 155.699219 64.75 157.003906 C 64.117188 158.308594 63.519531 159.632812 62.960938 160.972656 C 62.402344 162.3125 61.882812 163.667969 61.40625 165.039062 C 60.925781 166.410156 60.488281 167.796875 60.089844 169.191406 C 59.691406 170.589844 59.335938 171.996094 59.019531 173.414062 C 58.707031 174.832031 58.433594 176.257812 58.199219 177.691406 C 57.96875 179.125 57.777344 180.566406 57.628906 182.011719 C 57.484375 183.457031 57.378906 184.90625 57.316406 186.355469 C 57.25 187.808594 57.230469 189.261719 57.253906 190.714844 C 57.277344 192.164062 57.339844 193.617188 57.445312 195.066406 C 57.554688 196.515625 57.703125 197.957031 57.894531 199.398438 C 58.085938 200.839844 58.320312 202.273438 58.59375 203.699219 C 58.871094 205.125 59.1875 206.542969 59.542969 207.949219 C 59.902344 209.355469 60.300781 210.753906 60.742188 212.136719 C 61.183594 213.523438 61.660156 214.890625 62.183594 216.246094 C 62.703125 217.601562 63.261719 218.941406 63.859375 220.265625 C 64.457031 221.589844 65.09375 222.890625 65.769531 224.175781 C 66.445312 225.460938 67.15625 226.726562 67.90625 227.96875 C 68.652344 229.214844 69.4375 230.433594 70.257812 231.628906 C 71.078125 232.828125 71.933594 234 72.820312 235.144531 C 73.710938 236.292969 74.628906 237.410156 75.585938 238.503906 C 76.539062 239.597656 77.523438 240.660156 78.539062 241.691406 C 79.558594 242.726562 80.601562 243.730469 81.675781 244.703125 C 82.753906 245.675781 83.855469 246.613281 84.984375 247.523438 C 86.117188 248.429688 87.269531 249.300781 88.453125 250.140625 C 89.632812 250.980469 90.835938 251.785156 92.066406 252.550781 C 93.292969 253.320312 94.542969 254.050781 95.816406 254.746094 C 97.085938 255.441406 98.375 256.097656 99.683594 256.714844 C 100.996094 257.332031 102.320312 257.910156 103.664062 258.453125 C 105.007812 258.992188 106.363281 259.492188 107.738281 259.949219 C 111.445312 260.632812 112.769531 258.339844 112.769531 256.355469 C 112.769531 255.019531 112.769531 252.042969 112.769531 248.011719 C 112.765625 247.75 112.734375 247.488281 112.675781 247.230469 C 112.617188 246.976562 112.53125 246.726562 112.421875 246.488281 C 112.308594 246.25 112.175781 246.027344 112.019531 245.816406 C 111.859375 245.605469 111.683594 245.414062 111.484375 245.242188 C 111.285156 245.070312 111.070312 244.917969 110.84375 244.792969 C 110.613281 244.664062 110.371094 244.5625 110.121094 244.484375 C 109.871094 244.410156 109.613281 244.359375 109.355469 244.335938 C 109.09375 244.316406 108.832031 244.320312 108.570312 244.351562 C 91.585938 246.183594 87.847656 233.683594 87.847656 233.683594 C 84.484375 225.09375 79.632812 222.800781 79.632812 222.800781 C 72.933594 218.179688 80.128906 218.273438 80.128906 218.273438 C 81.300781 218.433594 82.441406 218.730469 83.546875 219.15625 C 84.648438 219.582031 85.691406 220.128906 86.671875 220.792969 C 87.652344 221.460938 88.542969 222.230469 89.347656 223.105469 C 90.152344 223.976562 90.847656 224.929688 91.429688 225.960938 C 91.867188 226.808594 92.378906 227.605469 92.960938 228.355469 C 93.546875 229.105469 94.195312 229.796875 94.910156 230.421875 C 95.625 231.050781 96.390625 231.605469 97.207031 232.089844 C 98.023438 232.574219 98.878906 232.976562 99.773438 233.296875 C 100.667969 233.621094 101.582031 233.855469 102.519531 234.003906 C 103.453125 234.15625 104.398438 234.214844 105.347656 234.1875 C 106.292969 234.160156 107.230469 234.042969 108.15625 233.839844 C 109.085938 233.632812 109.984375 233.34375 110.855469 232.972656 C 111.472656 232.746094 111.996094 232.386719 112.421875 231.890625 C 112.851562 231.394531 113.132812 230.824219 113.265625 230.179688 C 113.535156 228.984375 113.914062 227.828125 114.40625 226.707031 C 114.535156 226.445312 114.628906 226.175781 114.691406 225.894531 C 114.757812 225.609375 114.789062 225.324219 114.789062 225.035156 C 114.789062 224.746094 114.757812 224.460938 114.691406 224.179688 C 114.625 223.898438 114.53125 223.625 114.402344 223.367188 C 114.277344 223.105469 114.125 222.863281 113.941406 222.640625 C 113.761719 222.414062 113.554688 222.214844 113.328125 222.035156 C 113.101562 221.855469 112.859375 221.707031 112.597656 221.585938 C 112.335938 221.460938 112.066406 221.371094 111.78125 221.3125 C 97.359375 218.488281 83.988281 210.550781 83.988281 185.398438 C 83.945312 182.332031 84.375 179.332031 85.285156 176.398438 C 86.191406 173.46875 87.53125 170.753906 89.300781 168.25 C 89.957031 167.359375 90.398438 166.375 90.632812 165.292969 C 90.863281 164.210938 90.863281 163.128906 90.628906 162.046875 C 89.929688 158.53125 89.929688 155.019531 90.628906 151.503906 C 90.71875 151.035156 90.859375 150.585938 91.046875 150.148438 C 91.230469 149.710938 91.460938 149.296875 91.734375 148.910156 C 92.003906 148.519531 92.3125 148.164062 92.660156 147.839844 C 93.007812 147.515625 93.382812 147.230469 93.789062 146.984375 C 94.195312 146.738281 94.621094 146.539062 95.066406 146.382812 C 95.515625 146.226562 95.972656 146.117188 96.445312 146.058594 C 96.914062 146 97.382812 145.988281 97.855469 146.03125 C 98.328125 146.070312 98.792969 146.15625 99.246094 146.292969 C 103.039062 147.539062 106.613281 149.257812 109.960938 151.441406 C 110.859375 151.984375 111.828125 152.335938 112.867188 152.496094 C 113.902344 152.65625 114.929688 152.617188 115.953125 152.371094 C 120.960938 151.25 126.03125 150.6875 131.160156 150.6875 C 136.292969 150.6875 141.363281 151.25 146.371094 152.371094 C 147.390625 152.617188 148.421875 152.65625 149.457031 152.496094 C 150.496094 152.335938 151.460938 151.984375 152.363281 151.441406 C 155.621094 149.320312 159.089844 147.636719 162.769531 146.386719 C 163.246094 146.242188 163.734375 146.148438 164.234375 146.105469 C 164.730469 146.066406 165.226562 146.082031 165.722656 146.148438 C 166.214844 146.214844 166.699219 146.332031 167.167969 146.503906 C 167.636719 146.675781 168.082031 146.894531 168.503906 147.164062 C 168.925781 147.429688 169.316406 147.742188 169.671875 148.09375 C 170.027344 148.445312 170.339844 148.832031 170.613281 149.25 C 170.886719 149.671875 171.109375 150.117188 171.289062 150.585938 C 171.464844 151.050781 171.589844 151.535156 171.664062 152.03125 C 172.308594 155.402344 172.308594 158.769531 171.664062 162.140625 C 171.429688 163.222656 171.429688 164.304688 171.660156 165.386719 C 171.894531 166.46875 172.335938 167.453125 172.992188 168.34375 C 174.761719 170.84375 176.101562 173.5625 177.007812 176.492188 C 177.914062 179.421875 178.347656 182.421875 178.304688 185.492188 C 178.304688 210.703125 164.902344 218.582031 150.507812 221.371094 C 150.230469 221.425781 149.960938 221.511719 149.699219 221.625 C 149.441406 221.742188 149.195312 221.882812 148.96875 222.054688 C 148.742188 222.226562 148.535156 222.421875 148.351562 222.640625 C 148.167969 222.859375 148.011719 223.09375 147.882812 223.347656 C 147.753906 223.601562 147.652344 223.867188 147.585938 224.144531 C 147.515625 224.421875 147.476562 224.703125 147.472656 224.988281 C 147.46875 225.277344 147.496094 225.558594 147.554688 225.835938 C 147.613281 226.117188 147.703125 226.386719 147.824219 226.644531 C 149.113281 229.609375 149.730469 232.710938 149.675781 235.949219 L 149.675781 256.386719 C 149.675781 256.386719 150.726562 260.570312 154.492188 259.949219 Z M 154.492188 259.949219 " fill-opacity="1" fill-rule="nonzero"/></g></svg>