<svg xmlns="http://www.w3.org/2000/svg" xmlns:xlink="http://www.w3.org/1999/xlink" width="350" zoomAndPan="magnify" viewBox="0 0 262.5 374.999991" height="500" preserveAspectRatio="xMidYMid meet" version="1.0"><defs><filter x="0%" y="0%" width="100%" height="100%" id="id1"><feColorMatrix values="0 0 0 0 1 0 0 0 0 1 0 0 0 0 1 0 0 0 1 0" color-interpolation-filters="sRGB"/></filter><g/><clipPath id="id2"><path d="M 14.910156 0.355469 L 247.410156 0.355469 L 247.410156 374.640625 L 14.910156 374.640625 Z M 14.910156 0.355469 " clip-rule="nonzero"/></clipPath><clipPath id="id3"><path d="M 14.910156 0.359375 L 247.410156 0.359375 L 247.410156 374.640625 L 14.910156 374.640625 Z M 14.910156 0.359375 " clip-rule="nonzero"/></clipPath><clipPath id="id4"><path d="M 247.410156 14.609375 L 247.410156 361.09375 C 247.410156 368.964844 241.027344 375.34375 233.152344 375.34375 L 29.171875 375.34375 C 21.296875 375.34375 14.910156 368.964844 14.910156 361.09375 L 14.910156 14.609375 C 14.910156 6.738281 21.296875 0.359375 29.171875 0.359375 L 233.152344 0.359375 C 241.027344 0.359375 247.410156 6.738281 247.410156 14.609375 " clip-rule="nonzero"/></clipPath><clipPath id="id5"><path d="M 33.644531 23.023438 L 228.644531 23.023438 L 228.644531 353.023438 L 33.644531 353.023438 Z M 33.644531 23.023438 " clip-rule="nonzero"/></clipPath><clipPath id="id6"><path d="M 33.644531 23.023438 L 228.644531 23.023438 L 228.644531 353.023438 L 33.644531 353.023438 Z M 33.644531 23.023438 " clip-rule="nonzero"/></clipPath><clipPath id="id7"><path d="M 228.644531 37.289062 L 228.644531 338.753906 C 228.644531 346.632812 222.257812 353.019531 214.382812 353.019531 L 47.910156 353.019531 C 40.03125 353.019531 33.644531 346.632812 33.644531 338.753906 L 33.644531 37.289062 C 33.644531 29.410156 40.03125 23.023438 47.910156 23.023438 L 214.382812 23.023438 C 222.257812 23.023438 228.644531 29.410156 228.644531 37.289062 " clip-rule="nonzero"/></clipPath><mask id="id8"><g filter="url(#id1)"><rect x="-26.25" width="315" fill="#000000" y="-37.499999" height="449.999989" fill-opacity="0.898"/></g></mask><clipPath id="id9"><path d="M 0.386719 0.367188 L 157.886719 0.367188 L 157.886719 221.589844 L 0.386719 221.589844 Z M 0.386719 0.367188 " clip-rule="nonzero"/></clipPath><clipPath id="id10"><rect x="0" width="159" y="0" height="222"/></clipPath></defs><g clip-path="url(#id2)"><path fill="#053d57" d="M 247.410156 14.609375 L 247.410156 361.09375 C 247.410156 368.964844 241.027344 375.34375 233.152344 375.34375 L 29.171875 375.34375 C 21.296875 375.34375 14.910156 368.964844 14.910156 361.09375 L 14.910156 14.609375 C 14.910156 6.738281 21.296875 0.359375 29.171875 0.359375 L 233.152344 0.359375 C 241.027344 0.359375 247.410156 6.738281 247.410156 14.609375 " fill-opacity="1" fill-rule="nonzero"/></g><g clip-path="url(#id3)"><g clip-path="url(#id4)"><path stroke-linecap="butt" transform="matrix(0.000000000000000046, 0.75, -0.750567, 0.000000000000000046, 247.412078, 0.359579)" fill="none" stroke-linejoin="miter" d="M 18.999731 0.00256062 L 480.978958 0.00256062 C 491.473751 0.00256062 499.97896 8.506543 499.97896 18.998605 L 499.97896 290.766952 C 499.97896 301.259014 491.473751 309.768201 480.978958 309.768201 L 18.999731 309.768201 C 8.504937 309.768201 -0.000271963 301.259014 -0.000271963 290.766952 L -0.000271963 18.998605 C -0.000271963 8.506543 8.504937 0.00256062 18.999731 0.00256062 " stroke="#000000" stroke-width="2" stroke-opacity="1" stroke-miterlimit="4"/></g></g><g clip-path="url(#id5)"><path fill="#f2f1ef" d="M 228.644531 37.289062 L 228.644531 338.753906 C 228.644531 346.632812 222.257812 353.019531 214.382812 353.019531 L 47.910156 353.019531 C 40.03125 353.019531 33.644531 346.632812 33.644531 338.753906 L 33.644531 37.289062 C 33.644531 29.410156 40.03125 23.023438 47.910156 23.023438 L 214.382812 23.023438 C 222.257812 23.023438 228.644531 29.410156 228.644531 37.289062 " fill-opacity="1" fill-rule="nonzero"/></g><g clip-path="url(#id6)"><g clip-path="url(#id7)"><path stroke-linecap="butt" transform="matrix(0.000000000000000046, 0.750773, -0.750767, 0.000000000000000046, 228.645807, 23.024733)" fill="none" stroke-linejoin="miter" d="M 18.999523 0.00169877 L 420.53878 0.00169877 C 431.033172 0.00169877 439.540029 8.508625 439.540029 18.997899 L 439.540029 240.734701 C 439.540029 251.229178 431.033172 259.736105 420.53878 259.736105 L 18.999523 259.736105 C 8.505132 259.736105 -0.00172525 251.229178 -0.00172525 240.734701 L -0.00172525 18.997899 C -0.00172525 8.508625 8.505132 0.00169877 18.999523 0.00169877 " stroke="#fd7702" stroke-width="4" stroke-opacity="1" stroke-miterlimit="4"/></g></g><g mask="url(#id8)"><g transform="matrix(1, 0, 0, 1, 52, 77)"><g clip-path="url(#id10)"><g clip-path="url(#id9)"><path fill="#c6302c" d="M 79.136719 0.449219 L 0.386719 110.992188 L 79.136719 221.53125 L 157.886719 110.992188 Z M 79.136719 0.449219 " fill-opacity="1" fill-rule="nonzero"/></g></g></g></g><g fill="#ffffff" fill-opacity="1"><g transform="translate(62.758601, 200.991734)"><g><path d="M 23.296875 -18.234375 C 23.296875 -15.765625 22.488281 -13.800781 20.875 -12.34375 C 19.269531 -10.894531 17.082031 -10.171875 14.3125 -10.171875 L 6.640625 -10.171875 L 6.640625 0 L 3.109375 0 L 3.109375 -26.09375 L 14.09375 -26.09375 C 17.019531 -26.09375 19.285156 -25.40625 20.890625 -24.03125 C 22.492188 -22.664062 23.296875 -20.734375 23.296875 -18.234375 Z M 19.734375 -18.203125 C 19.734375 -21.566406 17.710938 -23.25 13.671875 -23.25 L 6.640625 -23.25 L 6.640625 -12.96875 L 13.8125 -12.96875 C 17.757812 -12.96875 19.734375 -14.710938 19.734375 -18.203125 Z M 19.734375 -18.203125 "/></g></g><g transform="translate(88.05118, 200.991734)"><g><path d="M 2.625 0 L 2.625 -15.375 C 2.625 -16.78125 2.585938 -18.332031 2.515625 -20.03125 L 5.671875 -20.03125 C 5.765625 -17.757812 5.8125 -16.394531 5.8125 -15.9375 L 5.890625 -15.9375 C 6.421875 -17.65625 7.03125 -18.828125 7.71875 -19.453125 C 8.414062 -20.085938 9.390625 -20.40625 10.640625 -20.40625 C 11.085938 -20.40625 11.539062 -20.34375 12 -20.21875 L 12 -17.171875 C 11.550781 -17.285156 10.957031 -17.34375 10.21875 -17.34375 C 8.832031 -17.34375 7.773438 -16.75 7.046875 -15.5625 C 6.328125 -14.375 5.96875 -12.664062 5.96875 -10.4375 L 5.96875 0 Z M 2.625 0 "/></g></g><g transform="translate(100.678954, 200.991734)"><g><path d="M 19.5 -10.03125 C 19.5 -6.53125 18.726562 -3.921875 17.1875 -2.203125 C 15.644531 -0.484375 13.40625 0.375 10.46875 0.375 C 7.539062 0.375 5.328125 -0.515625 3.828125 -2.296875 C 2.335938 -4.085938 1.59375 -6.664062 1.59375 -10.03125 C 1.59375 -16.945312 4.585938 -20.40625 10.578125 -20.40625 C 13.640625 -20.40625 15.890625 -19.5625 17.328125 -17.875 C 18.773438 -16.1875 19.5 -13.570312 19.5 -10.03125 Z M 16 -10.03125 C 16 -12.800781 15.585938 -14.8125 14.765625 -16.0625 C 13.941406 -17.3125 12.5625 -17.9375 10.625 -17.9375 C 8.675781 -17.9375 7.265625 -17.296875 6.390625 -16.015625 C 5.523438 -14.742188 5.09375 -12.75 5.09375 -10.03125 C 5.09375 -7.394531 5.519531 -5.410156 6.375 -4.078125 C 7.238281 -2.753906 8.585938 -2.09375 10.421875 -2.09375 C 12.421875 -2.09375 13.847656 -2.734375 14.703125 -4.015625 C 15.566406 -5.296875 16 -7.300781 16 -10.03125 Z M 16 -10.03125 "/></g></g><g transform="translate(121.768448, 200.991734)"><g><path d="M 2.53125 -24.296875 L 2.53125 -27.484375 L 5.875 -27.484375 L 5.875 -24.296875 Z M 5.875 2.484375 C 5.875 4.367188 5.5 5.738281 4.75 6.59375 C 4.007812 7.445312 2.898438 7.875 1.421875 7.875 C 0.472656 7.875 -0.304688 7.816406 -0.921875 7.703125 L -0.921875 5.125 L 0.21875 5.234375 C 1.070312 5.234375 1.671875 5.007812 2.015625 4.5625 C 2.359375 4.125 2.53125 3.265625 2.53125 1.984375 L 2.53125 -20.03125 L 5.875 -20.03125 Z M 5.875 2.484375 "/></g></g><g transform="translate(130.193136, 200.991734)"><g><path d="M 5.109375 -9.3125 C 5.109375 -7.019531 5.582031 -5.25 6.53125 -4 C 7.488281 -2.75 8.878906 -2.125 10.703125 -2.125 C 12.148438 -2.125 13.304688 -2.414062 14.171875 -3 C 15.046875 -3.582031 15.632812 -4.316406 15.9375 -5.203125 L 18.875 -4.375 C 17.675781 -1.207031 14.953125 0.375 10.703125 0.375 C 7.742188 0.375 5.488281 -0.503906 3.9375 -2.265625 C 2.382812 -4.035156 1.609375 -6.660156 1.609375 -10.140625 C 1.609375 -13.453125 2.382812 -15.988281 3.9375 -17.75 C 5.488281 -19.519531 7.703125 -20.40625 10.578125 -20.40625 C 16.460938 -20.40625 19.40625 -16.859375 19.40625 -9.765625 L 19.40625 -9.3125 Z M 15.96875 -11.875 C 15.78125 -13.976562 15.238281 -15.515625 14.34375 -16.484375 C 13.457031 -17.453125 12.179688 -17.9375 10.515625 -17.9375 C 8.898438 -17.9375 7.617188 -17.394531 6.671875 -16.3125 C 5.734375 -15.238281 5.222656 -13.757812 5.140625 -11.875 Z M 15.96875 -11.875 "/></g></g><g transform="translate(151.282629, 200.991734)"><g><path d="M 5.09375 -10.109375 C 5.09375 -7.441406 5.507812 -5.46875 6.34375 -4.1875 C 7.1875 -2.90625 8.453125 -2.265625 10.140625 -2.265625 C 11.328125 -2.265625 12.316406 -2.582031 13.109375 -3.21875 C 13.910156 -3.863281 14.40625 -4.851562 14.59375 -6.1875 L 17.96875 -5.96875 C 17.707031 -4.039062 16.882812 -2.5 15.5 -1.34375 C 14.113281 -0.195312 12.359375 0.375 10.234375 0.375 C 7.429688 0.375 5.289062 -0.507812 3.8125 -2.28125 C 2.34375 -4.050781 1.609375 -6.632812 1.609375 -10.03125 C 1.609375 -13.40625 2.347656 -15.976562 3.828125 -17.75 C 5.316406 -19.519531 7.441406 -20.40625 10.203125 -20.40625 C 12.253906 -20.40625 13.953125 -19.875 15.296875 -18.8125 C 16.648438 -17.75 17.5 -16.285156 17.84375 -14.421875 L 14.421875 -14.171875 C 14.253906 -15.273438 13.816406 -16.15625 13.109375 -16.8125 C 12.398438 -17.46875 11.398438 -17.796875 10.109375 -17.796875 C 8.347656 -17.796875 7.070312 -17.207031 6.28125 -16.03125 C 5.488281 -14.863281 5.09375 -12.890625 5.09375 -10.109375 Z M 5.09375 -10.109375 "/></g></g><g transform="translate(170.242806, 200.991734)"><g><path d="M 10.265625 -0.140625 C 9.160156 0.148438 8.035156 0.296875 6.890625 0.296875 C 4.222656 0.296875 2.890625 -1.210938 2.890625 -4.234375 L 2.890625 -17.609375 L 0.578125 -17.609375 L 0.578125 -20.03125 L 3.015625 -20.03125 L 4 -24.515625 L 6.21875 -24.515625 L 6.21875 -20.03125 L 9.921875 -20.03125 L 9.921875 -17.609375 L 6.21875 -17.609375 L 6.21875 -4.96875 C 6.21875 -4 6.375 -3.320312 6.6875 -2.9375 C 7.007812 -2.550781 7.554688 -2.359375 8.328125 -2.359375 C 8.773438 -2.359375 9.421875 -2.441406 10.265625 -2.609375 Z M 10.265625 -0.140625 "/></g></g><g transform="translate(180.778295, 200.991734)"><g><path d="M 17.59375 -5.53125 C 17.59375 -3.644531 16.878906 -2.1875 15.453125 -1.15625 C 14.023438 -0.132812 12.03125 0.375 9.46875 0.375 C 6.96875 0.375 5.039062 -0.0351562 3.6875 -0.859375 C 2.34375 -1.679688 1.46875 -2.960938 1.0625 -4.703125 L 4 -5.28125 C 4.28125 -4.207031 4.863281 -3.421875 5.75 -2.921875 C 6.644531 -2.421875 7.882812 -2.171875 9.46875 -2.171875 C 11.15625 -2.171875 12.390625 -2.425781 13.171875 -2.9375 C 13.953125 -3.457031 14.34375 -4.238281 14.34375 -5.28125 C 14.34375 -6.070312 14.070312 -6.710938 13.53125 -7.203125 C 12.988281 -7.691406 12.113281 -8.097656 10.90625 -8.421875 L 8.515625 -9.046875 C 6.597656 -9.546875 5.234375 -10.03125 4.421875 -10.5 C 3.617188 -10.976562 2.988281 -11.554688 2.53125 -12.234375 C 2.082031 -12.921875 1.859375 -13.753906 1.859375 -14.734375 C 1.859375 -16.566406 2.507812 -17.957031 3.8125 -18.90625 C 5.113281 -19.863281 7.007812 -20.34375 9.5 -20.34375 C 11.707031 -20.34375 13.460938 -19.953125 14.765625 -19.171875 C 16.066406 -18.398438 16.890625 -17.15625 17.234375 -15.4375 L 14.234375 -15.078125 C 14.054688 -15.960938 13.5625 -16.640625 12.75 -17.109375 C 11.9375 -17.585938 10.851562 -17.828125 9.5 -17.828125 C 7.988281 -17.828125 6.875 -17.597656 6.15625 -17.140625 C 5.445312 -16.691406 5.09375 -16.003906 5.09375 -15.078125 C 5.09375 -14.503906 5.238281 -14.03125 5.53125 -13.65625 C 5.832031 -13.289062 6.269531 -12.976562 6.84375 -12.71875 C 7.425781 -12.457031 8.648438 -12.097656 10.515625 -11.640625 C 12.285156 -11.203125 13.554688 -10.789062 14.328125 -10.40625 C 15.109375 -10.03125 15.722656 -9.613281 16.171875 -9.15625 C 16.617188 -8.707031 16.96875 -8.179688 17.21875 -7.578125 C 17.46875 -6.984375 17.59375 -6.300781 17.59375 -5.53125 Z M 17.59375 -5.53125 "/></g></g></g></svg>