<svg xmlns="http://www.w3.org/2000/svg" xmlns:xlink="http://www.w3.org/1999/xlink" width="350" zoomAndPan="magnify" viewBox="0 0 262.5 374.999991" height="500" preserveAspectRatio="xMidYMid meet" version="1.0"><defs><clipPath id="id1"><path d="M 14.910156 0.355469 L 247.410156 0.355469 L 247.410156 374.640625 L 14.910156 374.640625 Z M 14.910156 0.355469 " clip-rule="nonzero"/></clipPath><clipPath id="id2"><path d="M 14.910156 0.359375 L 247.410156 0.359375 L 247.410156 374.640625 L 14.910156 374.640625 Z M 14.910156 0.359375 " clip-rule="nonzero"/></clipPath><clipPath id="id3"><path d="M 247.410156 14.609375 L 247.410156 361.09375 C 247.410156 368.964844 241.027344 375.34375 233.152344 375.34375 L 29.171875 375.34375 C 21.296875 375.34375 14.910156 368.964844 14.910156 361.09375 L 14.910156 14.609375 C 14.910156 6.738281 21.296875 0.359375 29.171875 0.359375 L 233.152344 0.359375 C 241.027344 0.359375 247.410156 6.738281 247.410156 14.609375 " clip-rule="nonzero"/></clipPath><clipPath id="id4"><path d="M 33.644531 23.023438 L 228.644531 23.023438 L 228.644531 353.023438 L 33.644531 353.023438 Z M 33.644531 23.023438 " clip-rule="nonzero"/></clipPath><clipPath id="id5"><path d="M 33.644531 23.023438 L 228.644531 23.023438 L 228.644531 353.023438 L 33.644531 353.023438 Z M 33.644531 23.023438 " clip-rule="nonzero"/></clipPath><clipPath id="id6"><path d="M 228.644531 37.289062 L 228.644531 338.753906 C 228.644531 346.632812 222.257812 353.019531 214.382812 353.019531 L 47.910156 353.019531 C 40.03125 353.019531 33.644531 346.632812 33.644531 338.753906 L 33.644531 37.289062 C 33.644531 29.410156 40.03125 23.023438 47.910156 23.023438 L 214.382812 23.023438 C 222.257812 23.023438 228.644531 29.410156 228.644531 37.289062 " clip-rule="nonzero"/></clipPath><clipPath id="id7"><path d="M 47 130.757812 L 215.566406 130.757812 L 215.566406 147 L 47 147 Z M 47 130.757812 " clip-rule="nonzero"/></clipPath><clipPath id="id8"><path d="M 47 179 L 215.566406 179 L 215.566406 196 L 47 196 Z M 47 179 " clip-rule="nonzero"/></clipPath><clipPath id="id9"><path d="M 47 228 L 215.566406 228 L 215.566406 244.757812 L 47 244.757812 Z M 47 228 " clip-rule="nonzero"/></clipPath></defs><g clip-path="url(#id1)"><path fill="#053d57" d="M 247.410156 14.609375 L 247.410156 361.09375 C 247.410156 368.964844 241.027344 375.34375 233.152344 375.34375 L 29.171875 375.34375 C 21.296875 375.34375 14.910156 368.964844 14.910156 361.09375 L 14.910156 14.609375 C 14.910156 6.738281 21.296875 0.359375 29.171875 0.359375 L 233.152344 0.359375 C 241.027344 0.359375 247.410156 6.738281 247.410156 14.609375 " fill-opacity="1" fill-rule="nonzero"/></g><g clip-path="url(#id2)"><g clip-path="url(#id3)"><path stroke-linecap="butt" transform="matrix(0.000000000000000046, 0.75, -0.750567, 0.000000000000000046, 247.412078, 0.359556)" fill="none" stroke-linejoin="miter" d="M 18.999761 0.00256062 L 480.978989 0.00256062 C 491.473782 0.00256062 499.978991 8.506543 499.978991 18.998605 L 499.978991 290.766952 C 499.978991 301.259014 491.473782 309.768201 480.978989 309.768201 L 18.999761 309.768201 C 8.504968 309.768201 -0.000241185 301.259014 -0.000241185 290.766952 L -0.000241185 18.998605 C -0.000241185 8.506543 8.504968 0.00256062 18.999761 0.00256062 " stroke="#000000" stroke-width="2" stroke-opacity="1" stroke-miterlimit="4"/></g></g><g clip-path="url(#id4)"><path fill="#006884" d="M 228.644531 37.289062 L 228.644531 338.753906 C 228.644531 346.632812 222.257812 353.019531 214.382812 353.019531 L 47.910156 353.019531 C 40.03125 353.019531 33.644531 346.632812 33.644531 338.753906 L 33.644531 37.289062 C 33.644531 29.410156 40.03125 23.023438 47.910156 23.023438 L 214.382812 23.023438 C 222.257812 23.023438 228.644531 29.410156 228.644531 37.289062 " fill-opacity="1" fill-rule="nonzero"/></g><g clip-path="url(#id5)"><g clip-path="url(#id6)"><path stroke-linecap="butt" transform="matrix(0.000000000000000046, 0.750773, -0.750767, 0.000000000000000046, 228.645807, 23.024662)" fill="none" stroke-linejoin="miter" d="M 18.999618 0.00169877 L 420.538875 0.00169877 C 431.033266 0.00169877 439.540123 8.508625 439.540123 18.997899 L 439.540123 240.734701 C 439.540123 251.229178 431.033266 259.736105 420.538875 259.736105 L 18.999618 259.736105 C 8.505226 259.736105 -0.00163048 251.229178 -0.00163048 240.734701 L -0.00163048 18.997899 C -0.00163048 8.508625 8.505226 0.00169877 18.999618 0.00169877 " stroke="#fd7702" stroke-width="6" stroke-opacity="1" stroke-miterlimit="4"/></g></g><g clip-path="url(#id7)"><path fill="#fd7702" d="M 55.476562 146.773438 L 206.902344 146.773438 C 211.378906 146.773438 215.011719 143.144531 215.011719 138.667969 C 215.011719 134.191406 211.378906 130.5625 206.902344 130.5625 L 55.476562 130.5625 C 50.996094 130.5625 47.367188 134.191406 47.367188 138.667969 C 47.367188 143.144531 50.996094 146.773438 55.476562 146.773438 Z M 55.476562 146.773438 " fill-opacity="1" fill-rule="nonzero"/></g><g clip-path="url(#id8)"><path fill="#fd7702" d="M 206.902344 179.382812 L 55.476562 179.382812 C 50.996094 179.382812 47.367188 183.011719 47.367188 187.488281 C 47.367188 191.964844 50.996094 195.589844 55.476562 195.589844 L 206.902344 195.589844 C 211.378906 195.589844 215.011719 191.964844 215.011719 187.488281 C 215.011719 183.011719 211.378906 179.382812 206.902344 179.382812 Z M 206.902344 179.382812 " fill-opacity="1" fill-rule="nonzero"/></g><g clip-path="url(#id9)"><path fill="#fd7702" d="M 206.902344 228.199219 L 55.476562 228.199219 C 50.996094 228.199219 47.367188 231.828125 47.367188 236.304688 C 47.367188 240.78125 50.996094 244.410156 55.476562 244.410156 L 206.902344 244.410156 C 211.378906 244.410156 215.011719 240.78125 215.011719 236.304688 C 215.011719 231.828125 211.378906 228.199219 206.902344 228.199219 Z M 206.902344 228.199219 " fill-opacity="1" fill-rule="nonzero"/></g></svg>