<svg xmlns="http://www.w3.org/2000/svg" xmlns:xlink="http://www.w3.org/1999/xlink" width="250" zoomAndPan="magnify" viewBox="0 0 187.5 374.999989" height="500" preserveAspectRatio="xMidYMid meet" version="1.0"><defs><filter x="0%" y="0%" width="100%" height="100%" id="id1"><feColorMatrix values="0 0 0 0 1 0 0 0 0 1 0 0 0 0 1 0 0 0 1 0" color-interpolation-filters="sRGB"/></filter><g/><mask id="id2"><g filter="url(#id1)"><rect x="-18.75" width="225" fill="#000000" y="-37.499999" height="449.999987" fill-opacity="0.698"/></g></mask><clipPath id="id3"><path d="M 0.140625 0.25 L 182 0.25 L 182 339.25 L 0.140625 339.25 Z M 0.140625 0.25 " clip-rule="nonzero"/></clipPath><clipPath id="id4"><rect x="0" width="182" y="0" height="340"/></clipPath><clipPath id="id5"><path d="M 138 364 L 170 364 L 170 374.5 L 138 374.5 Z M 138 364 " clip-rule="nonzero"/></clipPath></defs><g mask="url(#id2)"><g transform="matrix(1, 0, 0, 1, 5, 19)"><g clip-path="url(#id4)"><g clip-path="url(#id3)"><path fill="#000000" d="M 169.640625 0.25 C 129.542969 0.25 97 34.417969 97 76.523438 C 97.351562 103.019531 111.023438 125.410156 125.25 146.707031 C 109.390625 134.707031 91.765625 127.449219 72.785156 127.375 C 32.6875 127.375 0.140625 161.542969 0.140625 203.648438 C 0.140625 245.753906 32.6875 279.921875 72.785156 279.921875 C 105.269531 279.378906 131.25 256.652344 156.777344 237.546875 C 152.210938 294.613281 142.917969 326.65625 88.925781 339.25 L 250.359375 339.25 C 196.367188 326.652344 187.078125 294.613281 182.507812 237.546875 C 207.742188 259.175781 234.207031 277.527344 266.5 279.921875 C 306.601562 279.921875 339.144531 245.753906 339.144531 203.648438 C 339.144531 161.542969 306.601562 127.375 266.5 127.375 C 247.035156 127.371094 230.222656 136.328125 214.035156 146.707031 C 230.140625 125.628906 240.742188 102.886719 242.285156 76.523438 C 242.285156 34.417969 209.742188 0.25 169.644531 0.25 Z M 169.640625 0.25 " fill-opacity="1" fill-rule="nonzero"/></g></g></g></g><g fill="#ffffff" fill-opacity="1"><g transform="translate(176.27524, 248.487603)"><g><path d="M 0.4375 -10.09375 C 0.4375 -4.820312 -2.285156 -1.691406 -7.734375 -0.703125 L -8.421875 -4.84375 C -6.710938 -5.101562 -5.378906 -5.695312 -4.421875 -6.625 C -3.460938 -7.550781 -2.984375 -8.710938 -2.984375 -10.109375 C -2.984375 -11.640625 -3.507812 -12.847656 -4.5625 -13.734375 C -5.613281 -14.617188 -7.15625 -15.0625 -9.1875 -15.0625 L -27.671875 -15.0625 L -27.671875 -9.078125 L -31.125 -9.078125 L -31.125 -19.265625 L -9.28125 -19.265625 C -6.257812 -19.265625 -3.882812 -18.445312 -2.15625 -16.8125 C -0.425781 -15.175781 0.4375 -12.9375 0.4375 -10.09375 Z M 0.4375 -10.09375 "/></g></g></g><g fill="#ffffff" fill-opacity="1"><g transform="translate(176.27524, 225.870418)"><g><path d="M -15.703125 -33.015625 C -12.453125 -33.015625 -9.601562 -32.390625 -7.15625 -31.140625 C -4.707031 -29.898438 -2.828125 -28.117188 -1.515625 -25.796875 C -0.210938 -23.472656 0.4375 -20.726562 0.4375 -17.5625 C 0.4375 -14.363281 -0.207031 -11.601562 -1.5 -9.28125 C -2.800781 -6.96875 -4.675781 -5.195312 -7.125 -3.96875 C -9.570312 -2.75 -12.429688 -2.140625 -15.703125 -2.140625 C -20.679688 -2.140625 -24.570312 -3.5 -27.375 -6.21875 C -30.175781 -8.945312 -31.578125 -12.742188 -31.578125 -17.609375 C -31.578125 -20.773438 -30.945312 -23.519531 -29.6875 -25.84375 C -28.4375 -28.164062 -26.609375 -29.941406 -24.203125 -31.171875 C -21.804688 -32.398438 -18.972656 -33.015625 -15.703125 -33.015625 Z M -15.703125 -28.71875 C -19.578125 -28.71875 -22.617188 -27.75 -24.828125 -25.8125 C -27.035156 -23.875 -28.140625 -21.140625 -28.140625 -17.609375 C -28.140625 -14.046875 -27.046875 -11.289062 -24.859375 -9.34375 C -22.679688 -7.394531 -19.628906 -6.421875 -15.703125 -6.421875 C -11.796875 -6.421875 -8.695312 -7.40625 -6.40625 -9.375 C -4.125 -11.34375 -2.984375 -14.070312 -2.984375 -17.5625 C -2.984375 -21.15625 -4.085938 -23.910156 -6.296875 -25.828125 C -8.515625 -27.753906 -11.648438 -28.71875 -15.703125 -28.71875 Z M -15.703125 -28.71875 "/></g></g></g><g fill="#ffffff" fill-opacity="1"><g transform="translate(176.27524, 190.685675)"><g><path d="M 0.4375 -16.140625 C 0.4375 -13.597656 -0.0234375 -11.375 -0.953125 -9.46875 C -1.878906 -7.570312 -3.222656 -6.097656 -4.984375 -5.046875 C -6.753906 -4.003906 -8.863281 -3.484375 -11.3125 -3.484375 L -31.125 -3.484375 L -31.125 -7.703125 L -11.65625 -7.703125 C -8.820312 -7.703125 -6.664062 -8.421875 -5.1875 -9.859375 C -3.71875 -11.304688 -2.984375 -13.394531 -2.984375 -16.125 C -2.984375 -18.914062 -3.742188 -21.085938 -5.265625 -22.640625 C -6.785156 -24.203125 -9.015625 -24.984375 -11.953125 -24.984375 L -31.125 -24.984375 L -31.125 -29.171875 L -11.703125 -29.171875 C -9.179688 -29.171875 -7.007812 -28.632812 -5.1875 -27.5625 C -3.363281 -26.5 -1.96875 -24.992188 -1 -23.046875 C -0.0390625 -21.097656 0.4375 -18.796875 0.4375 -16.140625 Z M 0.4375 -16.140625 "/></g></g></g><g fill="#ffffff" fill-opacity="1"><g transform="translate(176.27524, 158.018861)"><g><path d="M 0 -25.703125 L -12.921875 -17.625 L -12.921875 -7.921875 L 0 -7.921875 L 0 -3.703125 L -31.125 -3.703125 L -31.125 -18.359375 C -31.125 -21.859375 -30.335938 -24.5625 -28.765625 -26.46875 C -27.203125 -28.375 -25.019531 -29.328125 -22.21875 -29.328125 C -19.90625 -29.328125 -17.960938 -28.65625 -16.390625 -27.3125 C -14.816406 -25.96875 -13.820312 -24.109375 -13.40625 -21.734375 L 0 -30.5625 Z M -22.171875 -25.09375 C -23.984375 -25.09375 -25.363281 -24.476562 -26.3125 -23.25 C -27.257812 -22.019531 -27.734375 -20.25 -27.734375 -17.9375 L -27.734375 -7.921875 L -16.25 -7.921875 L -16.25 -18.109375 C -16.25 -20.335938 -16.769531 -22.054688 -17.8125 -23.265625 C -18.851562 -24.484375 -20.304688 -25.09375 -22.171875 -25.09375 Z M -22.171875 -25.09375 "/></g></g></g><g fill="#ffffff" fill-opacity="1"><g transform="translate(176.27524, 125.352047)"><g><path d="M 0 -23.890625 L -26.5 -7.25 L -24.359375 -7.359375 L -20.671875 -7.46875 L 0 -7.46875 L 0 -3.703125 L -31.125 -3.703125 L -31.125 -8.609375 L -4.4375 -25.4375 C -7.320312 -25.257812 -9.414062 -25.171875 -10.71875 -25.171875 L -31.125 -25.171875 L -31.125 -28.984375 L 0 -28.984375 Z M 0 -23.890625 "/></g></g></g><g fill="#ffffff" fill-opacity="1"><g transform="translate(176.27524, 92.685232)"><g><path d="M 0 -3.703125 L -31.125 -3.703125 L -31.125 -27.328125 L -27.671875 -27.328125 L -27.671875 -7.921875 L -17.6875 -7.921875 L -17.6875 -26 L -14.296875 -26 L -14.296875 -7.921875 L -3.453125 -7.921875 L -3.453125 -28.234375 L 0 -28.234375 Z M 0 -3.703125 "/></g></g></g><g fill="#ffffff" fill-opacity="1"><g transform="translate(176.27524, 62.51426)"><g><path d="M -12.90625 -17.15625 L 0 -17.15625 L 0 -12.96875 L -12.90625 -12.96875 L -31.125 -1 L -31.125 -5.625 L -16.296875 -15.109375 L -31.125 -24.53125 L -31.125 -29.171875 Z M -12.90625 -17.15625 "/></g></g></g><g clip-path="url(#id5)"><g fill="#ffffff" fill-opacity="1"><g transform="translate(169.287906, 393.738943)"><g><path d="M -12.90625 -17.15625 L 0 -17.15625 L 0 -12.96875 L -12.90625 -12.96875 L -31.125 -1 L -31.125 -5.625 L -16.296875 -15.109375 L -31.125 -24.53125 L -31.125 -29.171875 Z M -12.90625 -17.15625 "/></g></g></g></g></svg>