<svg xmlns="http://www.w3.org/2000/svg" xmlns:xlink="http://www.w3.org/1999/xlink" width="250" zoomAndPan="magnify" viewBox="0 0 187.5 374.999989" height="500" preserveAspectRatio="xMidYMid meet" version="1.0"><defs><filter x="0%" y="0%" width="100%" height="100%" id="id1"><feColorMatrix values="0 0 0 0 1 0 0 0 0 1 0 0 0 0 1 0 0 0 1 0" color-interpolation-filters="sRGB"/></filter><g/><clipPath id="id2"><path d="M 18 0.5 L 187 0.5 L 187 374.5 L 18 374.5 Z M 18 0.5 " clip-rule="nonzero"/></clipPath><mask id="id3"><g filter="url(#id1)"><rect x="-18.75" width="225" fill="#000000" y="-37.499999" height="449.999987" fill-opacity="0.749"/></g></mask><clipPath id="id4"><path d="M 0.75 0.5 L 169 0.5 L 169 374.5 L 0.75 374.5 Z M 0.75 0.5 " clip-rule="nonzero"/></clipPath><clipPath id="id5"><rect x="0" width="169" y="0" height="375"/></clipPath></defs><g clip-path="url(#id2)"><g mask="url(#id3)"><g transform="matrix(1, 0, 0, 1, 18, 0.000000000000020151)"><g clip-path="url(#id5)"><g clip-path="url(#id4)"><path fill="#c6302c" d="M 134.625 0.640625 L 0.75 188 L 134.625 375.359375 L 268.5 188 Z M 134.625 0.640625 " fill-opacity="1" fill-rule="nonzero"/></g></g></g></g></g><g fill="#ffffff" fill-opacity="1"><g transform="translate(176.27524, 310.208648)"><g><path d="M -21.75 -27.78125 C -18.8125 -27.78125 -16.472656 -26.816406 -14.734375 -24.890625 C -12.992188 -22.972656 -12.125 -20.367188 -12.125 -17.078125 L -12.125 -7.921875 L 0 -7.921875 L 0 -3.703125 L -31.125 -3.703125 L -31.125 -16.8125 C -31.125 -20.300781 -30.304688 -23 -28.671875 -24.90625 C -27.035156 -26.820312 -24.726562 -27.78125 -21.75 -27.78125 Z M -21.71875 -23.546875 C -25.726562 -23.546875 -27.734375 -21.128906 -27.734375 -16.296875 L -27.734375 -7.921875 L -15.46875 -7.921875 L -15.46875 -16.484375 C -15.46875 -21.191406 -17.550781 -23.546875 -21.71875 -23.546875 Z M -21.71875 -23.546875 "/></g></g></g><g fill="#ffffff" fill-opacity="1"><g transform="translate(176.27524, 280.037676)"><g><path d="M 0 -25.703125 L -12.921875 -17.625 L -12.921875 -7.921875 L 0 -7.921875 L 0 -3.703125 L -31.125 -3.703125 L -31.125 -18.359375 C -31.125 -21.859375 -30.335938 -24.5625 -28.765625 -26.46875 C -27.203125 -28.375 -25.019531 -29.328125 -22.21875 -29.328125 C -19.90625 -29.328125 -17.960938 -28.65625 -16.390625 -27.3125 C -14.816406 -25.96875 -13.820312 -24.109375 -13.40625 -21.734375 L 0 -30.5625 Z M -22.171875 -25.09375 C -23.984375 -25.09375 -25.363281 -24.476562 -26.3125 -23.25 C -27.257812 -22.019531 -27.734375 -20.25 -27.734375 -17.9375 L -27.734375 -7.921875 L -16.25 -7.921875 L -16.25 -18.109375 C -16.25 -20.335938 -16.769531 -22.054688 -17.8125 -23.265625 C -18.851562 -24.484375 -20.304688 -25.09375 -22.171875 -25.09375 Z M -22.171875 -25.09375 "/></g></g></g><g fill="#ffffff" fill-opacity="1"><g transform="translate(176.27524, 247.370862)"><g><path d="M -15.703125 -33.015625 C -12.453125 -33.015625 -9.601562 -32.390625 -7.15625 -31.140625 C -4.707031 -29.898438 -2.828125 -28.117188 -1.515625 -25.796875 C -0.210938 -23.472656 0.4375 -20.726562 0.4375 -17.5625 C 0.4375 -14.363281 -0.207031 -11.601562 -1.5 -9.28125 C -2.800781 -6.96875 -4.675781 -5.195312 -7.125 -3.96875 C -9.570312 -2.75 -12.429688 -2.140625 -15.703125 -2.140625 C -20.679688 -2.140625 -24.570312 -3.5 -27.375 -6.21875 C -30.175781 -8.945312 -31.578125 -12.742188 -31.578125 -17.609375 C -31.578125 -20.773438 -30.945312 -23.519531 -29.6875 -25.84375 C -28.4375 -28.164062 -26.609375 -29.941406 -24.203125 -31.171875 C -21.804688 -32.398438 -18.972656 -33.015625 -15.703125 -33.015625 Z M -15.703125 -28.71875 C -19.578125 -28.71875 -22.617188 -27.75 -24.828125 -25.8125 C -27.035156 -23.875 -28.140625 -21.140625 -28.140625 -17.609375 C -28.140625 -14.046875 -27.046875 -11.289062 -24.859375 -9.34375 C -22.679688 -7.394531 -19.628906 -6.421875 -15.703125 -6.421875 C -11.796875 -6.421875 -8.695312 -7.40625 -6.40625 -9.375 C -4.125 -11.34375 -2.984375 -14.070312 -2.984375 -17.5625 C -2.984375 -21.15625 -4.085938 -23.910156 -6.296875 -25.828125 C -8.515625 -27.753906 -11.648438 -28.71875 -15.703125 -28.71875 Z M -15.703125 -28.71875 "/></g></g></g><g fill="#ffffff" fill-opacity="1"><g transform="translate(176.27524, 212.186119)"><g><path d="M 0.4375 -10.09375 C 0.4375 -4.820312 -2.285156 -1.691406 -7.734375 -0.703125 L -8.421875 -4.84375 C -6.710938 -5.101562 -5.378906 -5.695312 -4.421875 -6.625 C -3.460938 -7.550781 -2.984375 -8.710938 -2.984375 -10.109375 C -2.984375 -11.640625 -3.507812 -12.847656 -4.5625 -13.734375 C -5.613281 -14.617188 -7.15625 -15.0625 -9.1875 -15.0625 L -27.671875 -15.0625 L -27.671875 -9.078125 L -31.125 -9.078125 L -31.125 -19.265625 L -9.28125 -19.265625 C -6.257812 -19.265625 -3.882812 -18.445312 -2.15625 -16.8125 C -0.425781 -15.175781 0.4375 -12.9375 0.4375 -10.09375 Z M 0.4375 -10.09375 "/></g></g></g><g fill="#ffffff" fill-opacity="1"><g transform="translate(176.27524, 189.568934)"><g><path d="M 0 -3.703125 L -31.125 -3.703125 L -31.125 -27.328125 L -27.671875 -27.328125 L -27.671875 -7.921875 L -17.6875 -7.921875 L -17.6875 -26 L -14.296875 -26 L -14.296875 -7.921875 L -3.453125 -7.921875 L -3.453125 -28.234375 L 0 -28.234375 Z M 0 -3.703125 "/></g></g></g><g fill="#ffffff" fill-opacity="1"><g transform="translate(176.27524, 159.397962)"><g><path d="M -28.140625 -17.5 C -28.140625 -14.050781 -27.03125 -11.367188 -24.8125 -9.453125 C -22.59375 -7.535156 -19.554688 -6.578125 -15.703125 -6.578125 C -11.890625 -6.578125 -8.820312 -7.570312 -6.5 -9.5625 C -4.1875 -11.5625 -3.03125 -14.265625 -3.03125 -17.671875 C -3.03125 -22.023438 -5.1875 -25.300781 -9.5 -27.5 L -7.78125 -30.9375 C -5.09375 -29.65625 -3.050781 -27.851562 -1.65625 -25.53125 C -0.257812 -23.21875 0.4375 -20.53125 0.4375 -17.46875 C 0.4375 -14.332031 -0.210938 -11.617188 -1.515625 -9.328125 C -2.816406 -7.035156 -4.675781 -5.289062 -7.09375 -4.09375 C -9.519531 -2.894531 -12.390625 -2.296875 -15.703125 -2.296875 C -20.660156 -2.296875 -24.546875 -3.632812 -27.359375 -6.3125 C -30.171875 -9 -31.578125 -12.710938 -31.578125 -17.453125 C -31.578125 -20.765625 -30.929688 -23.53125 -29.640625 -25.75 C -28.347656 -27.976562 -26.425781 -29.613281 -23.875 -30.65625 L -22.546875 -26.65625 C -24.359375 -25.9375 -25.742188 -24.773438 -26.703125 -23.171875 C -27.660156 -21.578125 -28.140625 -19.6875 -28.140625 -17.5 Z M -28.140625 -17.5 "/></g></g></g><g fill="#ffffff" fill-opacity="1"><g transform="translate(176.27524, 126.731148)"><g><path d="M -27.671875 -15.90625 L 0 -15.90625 L 0 -11.703125 L -27.671875 -11.703125 L -27.671875 -1.015625 L -31.125 -1.015625 L -31.125 -26.59375 L -27.671875 -26.59375 Z M -27.671875 -15.90625 "/></g></g></g><g fill="#ffffff" fill-opacity="1"><g transform="translate(176.27524, 99.100191)"><g><path d="M -8.59375 -28.09375 C -5.71875 -28.09375 -3.492188 -26.96875 -1.921875 -24.71875 C -0.347656 -22.476562 0.4375 -19.316406 0.4375 -15.234375 C 0.4375 -7.648438 -2.195312 -3.253906 -7.46875 -2.046875 L -8.28125 -6.140625 C -6.414062 -6.609375 -5.039062 -7.609375 -4.15625 -9.140625 C -3.28125 -10.671875 -2.84375 -12.753906 -2.84375 -15.390625 C -2.84375 -18.117188 -3.3125 -20.222656 -4.25 -21.703125 C -5.1875 -23.179688 -6.5625 -23.921875 -8.375 -23.921875 C -9.382812 -23.921875 -10.207031 -23.6875 -10.84375 -23.21875 C -11.476562 -22.757812 -12 -22.109375 -12.40625 -21.265625 C -12.820312 -20.429688 -13.171875 -19.429688 -13.453125 -18.265625 C -13.734375 -17.097656 -14.035156 -15.8125 -14.359375 -14.40625 C -14.898438 -11.945312 -15.441406 -10.078125 -15.984375 -8.796875 C -16.535156 -7.523438 -17.144531 -6.519531 -17.8125 -5.78125 C -18.476562 -5.050781 -19.257812 -4.488281 -20.15625 -4.09375 C -21.0625 -3.707031 -22.09375 -3.515625 -23.25 -3.515625 C -25.914062 -3.515625 -27.96875 -4.53125 -29.40625 -6.5625 C -30.851562 -8.601562 -31.578125 -11.523438 -31.578125 -15.328125 C -31.578125 -18.859375 -31.035156 -21.554688 -29.953125 -23.421875 C -28.878906 -25.296875 -27.035156 -26.609375 -24.421875 -27.359375 L -23.703125 -23.21875 C -25.347656 -22.757812 -26.539062 -21.890625 -27.28125 -20.609375 C -28.03125 -19.328125 -28.40625 -17.550781 -28.40625 -15.28125 C -28.40625 -12.789062 -27.992188 -10.890625 -27.171875 -9.578125 C -26.347656 -8.273438 -25.117188 -7.625 -23.484375 -7.625 C -22.523438 -7.625 -21.734375 -7.875 -21.109375 -8.375 C -20.484375 -8.882812 -19.953125 -9.617188 -19.515625 -10.578125 C -19.078125 -11.535156 -18.539062 -13.441406 -17.90625 -16.296875 C -17.6875 -17.253906 -17.460938 -18.207031 -17.234375 -19.15625 C -17.003906 -20.101562 -16.734375 -21.007812 -16.421875 -21.875 C -16.109375 -22.75 -15.738281 -23.566406 -15.3125 -24.328125 C -14.882812 -25.085938 -14.359375 -25.742188 -13.734375 -26.296875 C -13.117188 -26.859375 -12.390625 -27.296875 -11.546875 -27.609375 C -10.710938 -27.929688 -9.726562 -28.09375 -8.59375 -28.09375 Z M -8.59375 -28.09375 "/></g></g></g></svg>