<svg xmlns="http://www.w3.org/2000/svg" xmlns:xlink="http://www.w3.org/1999/xlink" width="250" zoomAndPan="magnify" viewBox="0 0 187.5 374.999989" height="500" preserveAspectRatio="xMidYMid meet" version="1.0"><defs><filter x="0%" y="0%" width="100%" height="100%" id="id1"><feColorMatrix values="0 0 0 0 1 0 0 0 0 1 0 0 0 0 1 0 0 0 1 0" color-interpolation-filters="sRGB"/></filter><g/><mask id="id2"><g filter="url(#id1)"><rect x="-18.75" width="225" fill="#000000" y="-37.499999" height="449.999987" fill-opacity="0.749"/></g></mask><clipPath id="id3"><path d="M 3 25 L 187 25 L 187 334 L 3 334 Z M 3 25 " clip-rule="nonzero"/></clipPath><clipPath id="id4"><rect x="0" width="187" y="0" height="335"/></clipPath></defs><g mask="url(#id2)"><g transform="matrix(1, 0, 0, 1, 0, 19)"><g clip-path="url(#id4)"><g clip-path="url(#id3)"><path fill="#c6302c" d="M 344.804688 101.585938 C 325.515625 2.375 204.613281 0.714844 174.800781 93.464844 C 144.992188 0.71875 24.085938 2.375 4.800781 101.585938 C -12.699219 191.601562 174.800781 333.613281 174.800781 333.613281 C 174.800781 333.613281 362.300781 191.601562 344.804688 101.585938 Z M 344.804688 101.585938 " fill-opacity="1" fill-rule="nonzero"/></g></g></g></g><g fill="#ffffff" fill-opacity="1"><g transform="translate(176.274275, 251.471297)"><g><path d="M 0 -33.375 L 0 -28.34375 L -19.765625 -22.953125 C -21.003906 -22.597656 -23.222656 -22.082031 -26.421875 -21.40625 C -24.710938 -21.019531 -23.28125 -20.691406 -22.125 -20.421875 C -20.976562 -20.160156 -13.601562 -18.15625 0 -14.40625 L 0 -9.359375 L -31.125 -0.203125 L -31.125 -4.59375 L -11.359375 -10.1875 C -8.878906 -10.84375 -6.328125 -11.453125 -3.703125 -12.015625 C -5.328125 -12.367188 -7.097656 -12.773438 -9.015625 -13.234375 C -10.929688 -13.703125 -18.300781 -15.75 -31.125 -19.375 L -31.125 -23.40625 L -11.75 -28.828125 C -8.582031 -29.648438 -5.898438 -30.296875 -3.703125 -30.765625 L -4.484375 -30.96875 C -6.179688 -31.363281 -7.5625 -31.6875 -8.625 -31.9375 C -9.6875 -32.1875 -17.1875 -34.253906 -31.125 -38.140625 L -31.125 -42.546875 Z M 0 -33.375 "/></g></g></g><g fill="#ffffff" fill-opacity="1"><g transform="translate(176.274275, 208.776942)"><g><path d="M 0 -24.765625 L -14.421875 -24.765625 L -14.421875 -7.921875 L 0 -7.921875 L 0 -3.703125 L -31.125 -3.703125 L -31.125 -7.921875 L -17.953125 -7.921875 L -17.953125 -24.765625 L -31.125 -24.765625 L -31.125 -28.984375 L 0 -28.984375 Z M 0 -24.765625 "/></g></g></g><g fill="#ffffff" fill-opacity="1"><g transform="translate(176.274275, 176.110127)"><g><path d="M -12.90625 -17.15625 L 0 -17.15625 L 0 -12.96875 L -12.90625 -12.96875 L -31.125 -1 L -31.125 -5.625 L -16.296875 -15.109375 L -31.125 -24.53125 L -31.125 -29.171875 Z M -12.90625 -17.15625 "/></g></g></g></svg>