<svg xmlns="http://www.w3.org/2000/svg" xmlns:xlink="http://www.w3.org/1999/xlink" width="250" zoomAndPan="magnify" viewBox="0 0 187.5 374.999989" height="500" preserveAspectRatio="xMidYMid meet" version="1.0"><defs><filter x="0%" y="0%" width="100%" height="100%" id="id1"><feColorMatrix values="0 0 0 0 1 0 0 0 0 1 0 0 0 0 1 0 0 0 1 0" color-interpolation-filters="sRGB"/></filter><g/><mask id="id2"><g filter="url(#id1)"><rect x="-18.75" width="225" fill="#000000" y="-37.499999" height="449.999987" fill-opacity="0.8"/></g></mask><clipPath id="id3"><path d="M 96 4 L 187 4 L 187 168 L 96 168 Z M 96 4 " clip-rule="nonzero"/></clipPath><clipPath id="id4"><path d="M 12 98 L 187 98 L 187 245 L 12 245 Z M 12 98 " clip-rule="nonzero"/></clipPath><clipPath id="id5"><path d="M 158 68 L 187 68 L 187 200 L 158 200 Z M 158 68 " clip-rule="nonzero"/></clipPath><clipPath id="id6"><path d="M 102 180 L 187 180 L 187 260 L 102 260 Z M 102 180 " clip-rule="nonzero"/></clipPath><clipPath id="id7"><rect x="0" width="187" y="0" height="278"/></clipPath></defs><g mask="url(#id2)"><g transform="matrix(1, 0, 0, 1, 0, 45)"><g clip-path="url(#id7)"><g clip-path="url(#id3)"><path fill="#006884" d="M 98.074219 127.222656 C 98.074219 127.222656 88.9375 68.433594 111.457031 36.730469 C 133.972656 5.03125 158.984375 5.765625 179.128906 5.328125 C 199.277344 4.886719 227.164062 4.023438 229.429688 6.3125 C 231.699219 8.597656 227.4375 14.296875 227.4375 14.296875 C 227.4375 14.296875 207.589844 9.6875 196.542969 20.929688 C 185.496094 32.171875 166.949219 52.460938 189.066406 82.527344 L 211.1875 112.59375 L 180.054688 167.710938 Z M 98.074219 127.222656 " fill-opacity="1" fill-rule="nonzero"/></g><g clip-path="url(#id4)"><path fill="#053d57" d="M 108.378906 215.023438 C 108.378906 215.023438 79.949219 161.40625 52.390625 175.839844 C 24.828125 190.269531 24.390625 244.183594 24.390625 244.183594 L 17.898438 243.859375 C 17.898438 243.859375 6.320312 167.511719 18.113281 137.449219 C 29.910156 107.386719 54.667969 76.324219 121.804688 121.621094 C 188.945312 166.917969 194.636719 188.148438 194.636719 188.148438 Z M 108.378906 215.023438 " fill-opacity="1" fill-rule="nonzero"/></g><g clip-path="url(#id5)"><path fill="#2c5aa0" d="M 236.398438 180.652344 C 236.398438 180.652344 241.335938 123.460938 272.414062 122.15625 C 303.492188 120.851562 327.859375 157.761719 327.859375 157.761719 L 333.957031 151.988281 C 333.957031 151.988281 328.9375 106.703125 304.730469 85.34375 C 257.613281 43.78125 216.847656 86.996094 187.214844 114.398438 C 165.191406 134.761719 158.824219 199.816406 158.824219 199.816406 Z M 236.398438 180.652344 " fill-opacity="1" fill-rule="nonzero"/></g><g clip-path="url(#id6)"><path fill="#fd7702" d="M 112.28125 231.113281 C 109.992188 224.75 102.796875 213.175781 102.796875 213.175781 C 102.796875 213.175781 141.628906 194.304688 162.398438 188.988281 C 186.183594 182.894531 235.5625 180.472656 235.5625 180.472656 C 235.5625 180.472656 235.84375 197.0625 236.945312 205.265625 C 237.917969 212.558594 241.558594 226.851562 241.558594 226.851562 C 241.558594 226.851562 197.828125 228.609375 176.875 234.261719 C 156.277344 239.808594 118.257812 259.941406 118.257812 259.941406 C 117.972656 250.167969 115.605469 240.347656 112.285156 231.113281 Z M 112.28125 231.113281 " fill-opacity="1" fill-rule="nonzero"/></g><path fill="#fd7702" d="M 37.9375 248.621094 C 40.683594 258.871094 34.605469 269.410156 24.359375 272.160156 C 14.117188 274.910156 3.582031 268.828125 0.835938 258.578125 C -1.910156 248.324219 4.167969 237.785156 14.410156 235.035156 C 24.65625 232.285156 35.1875 238.367188 37.9375 248.621094 Z M 37.9375 248.621094 " fill-opacity="1" fill-rule="nonzero"/></g></g></g><g fill="#ffffff" fill-opacity="1"><g transform="translate(176.826665, 278.320043)"><g><path d="M -20.796875 -26.5625 C -17.984375 -26.5625 -15.742188 -25.640625 -14.078125 -23.796875 C -12.421875 -21.960938 -11.59375 -19.46875 -11.59375 -16.3125 L -11.59375 -7.578125 L 0 -7.578125 L 0 -3.546875 L -29.75 -3.546875 L -29.75 -16.0625 C -29.75 -19.394531 -28.96875 -21.976562 -27.40625 -23.8125 C -25.84375 -25.644531 -23.640625 -26.5625 -20.796875 -26.5625 Z M -20.75 -22.5 C -24.59375 -22.5 -26.515625 -20.191406 -26.515625 -15.578125 L -26.515625 -7.578125 L -14.78125 -7.578125 L -14.78125 -15.75 C -14.78125 -20.25 -16.769531 -22.5 -20.75 -22.5 Z M -20.75 -22.5 "/></g></g></g><g fill="#ffffff" fill-opacity="1"><g transform="translate(176.826665, 249.48566)"><g><path d="M 0 -24.640625 L -8.703125 -21.234375 L -8.703125 -7.6875 L 0 -4.265625 L 0 -0.078125 L -29.75 -12.21875 L -29.75 -16.796875 L 0 -28.75 Z M -26.703125 -14.453125 L -26.109375 -14.265625 C -24.941406 -13.921875 -23.445312 -13.398438 -21.625 -12.703125 L -11.84375 -8.90625 L -11.84375 -20.03125 L -21.65625 -16.21875 C -22.625 -15.820312 -23.722656 -15.425781 -24.953125 -15.03125 Z M -26.703125 -14.453125 "/></g></g></g><g fill="#ffffff" fill-opacity="1"><g transform="translate(176.826665, 220.651278)"><g><path d="M -8.21875 -26.859375 C -5.46875 -26.859375 -3.335938 -25.78125 -1.828125 -23.625 C -0.328125 -21.476562 0.421875 -18.457031 0.421875 -14.5625 C 0.421875 -7.3125 -2.097656 -3.113281 -7.140625 -1.96875 L -7.921875 -5.875 C -6.128906 -6.320312 -4.8125 -7.273438 -3.96875 -8.734375 C -3.132812 -10.203125 -2.71875 -12.195312 -2.71875 -14.71875 C -2.71875 -17.320312 -3.164062 -19.328125 -4.0625 -20.734375 C -4.957031 -22.148438 -6.269531 -22.859375 -8 -22.859375 C -8.96875 -22.859375 -9.753906 -22.632812 -10.359375 -22.1875 C -10.960938 -21.75 -11.460938 -21.128906 -11.859375 -20.328125 C -12.253906 -19.523438 -12.582031 -18.566406 -12.84375 -17.453125 C -13.113281 -16.347656 -13.40625 -15.117188 -13.71875 -13.765625 C -14.238281 -11.410156 -14.757812 -9.625 -15.28125 -8.40625 C -15.800781 -7.195312 -16.378906 -6.238281 -17.015625 -5.53125 C -17.660156 -4.820312 -18.410156 -4.28125 -19.265625 -3.90625 C -20.128906 -3.539062 -21.117188 -3.359375 -22.234375 -3.359375 C -24.773438 -3.359375 -26.734375 -4.332031 -28.109375 -6.28125 C -29.492188 -8.226562 -30.1875 -11.019531 -30.1875 -14.65625 C -30.1875 -18.03125 -29.664062 -20.609375 -28.625 -22.390625 C -27.59375 -24.179688 -25.832031 -25.4375 -23.34375 -26.15625 L -22.65625 -22.1875 C -24.226562 -21.75 -25.367188 -20.914062 -26.078125 -19.6875 C -26.785156 -18.46875 -27.140625 -16.773438 -27.140625 -14.609375 C -27.140625 -12.234375 -26.742188 -10.414062 -25.953125 -9.15625 C -25.171875 -7.90625 -24 -7.28125 -22.4375 -7.28125 C -21.519531 -7.28125 -20.765625 -7.519531 -20.171875 -8 C -19.578125 -8.488281 -19.070312 -9.191406 -18.65625 -10.109375 C -18.238281 -11.023438 -17.726562 -12.847656 -17.125 -15.578125 C -16.90625 -16.492188 -16.6875 -17.40625 -16.46875 -18.3125 C -16.257812 -19.21875 -16 -20.085938 -15.6875 -20.921875 C -15.382812 -21.753906 -15.03125 -22.53125 -14.625 -23.25 C -14.21875 -23.976562 -13.71875 -24.609375 -13.125 -25.140625 C -12.539062 -25.671875 -11.847656 -26.085938 -11.046875 -26.390625 C -10.242188 -26.703125 -9.300781 -26.859375 -8.21875 -26.859375 Z M -8.21875 -26.859375 "/></g></g></g><g fill="#ffffff" fill-opacity="1"><g transform="translate(176.826665, 191.816895)"><g><path d="M -8.21875 -26.859375 C -5.46875 -26.859375 -3.335938 -25.78125 -1.828125 -23.625 C -0.328125 -21.476562 0.421875 -18.457031 0.421875 -14.5625 C 0.421875 -7.3125 -2.097656 -3.113281 -7.140625 -1.96875 L -7.921875 -5.875 C -6.128906 -6.320312 -4.8125 -7.273438 -3.96875 -8.734375 C -3.132812 -10.203125 -2.71875 -12.195312 -2.71875 -14.71875 C -2.71875 -17.320312 -3.164062 -19.328125 -4.0625 -20.734375 C -4.957031 -22.148438 -6.269531 -22.859375 -8 -22.859375 C -8.96875 -22.859375 -9.753906 -22.632812 -10.359375 -22.1875 C -10.960938 -21.75 -11.460938 -21.128906 -11.859375 -20.328125 C -12.253906 -19.523438 -12.582031 -18.566406 -12.84375 -17.453125 C -13.113281 -16.347656 -13.40625 -15.117188 -13.71875 -13.765625 C -14.238281 -11.410156 -14.757812 -9.625 -15.28125 -8.40625 C -15.800781 -7.195312 -16.378906 -6.238281 -17.015625 -5.53125 C -17.660156 -4.820312 -18.410156 -4.28125 -19.265625 -3.90625 C -20.128906 -3.539062 -21.117188 -3.359375 -22.234375 -3.359375 C -24.773438 -3.359375 -26.734375 -4.332031 -28.109375 -6.28125 C -29.492188 -8.226562 -30.1875 -11.019531 -30.1875 -14.65625 C -30.1875 -18.03125 -29.664062 -20.609375 -28.625 -22.390625 C -27.59375 -24.179688 -25.832031 -25.4375 -23.34375 -26.15625 L -22.65625 -22.1875 C -24.226562 -21.75 -25.367188 -20.914062 -26.078125 -19.6875 C -26.785156 -18.46875 -27.140625 -16.773438 -27.140625 -14.609375 C -27.140625 -12.234375 -26.742188 -10.414062 -25.953125 -9.15625 C -25.171875 -7.90625 -24 -7.28125 -22.4375 -7.28125 C -21.519531 -7.28125 -20.765625 -7.519531 -20.171875 -8 C -19.578125 -8.488281 -19.070312 -9.191406 -18.65625 -10.109375 C -18.238281 -11.023438 -17.726562 -12.847656 -17.125 -15.578125 C -16.90625 -16.492188 -16.6875 -17.40625 -16.46875 -18.3125 C -16.257812 -19.21875 -16 -20.085938 -15.6875 -20.921875 C -15.382812 -21.753906 -15.03125 -22.53125 -14.625 -23.25 C -14.21875 -23.976562 -13.71875 -24.609375 -13.125 -25.140625 C -12.539062 -25.671875 -11.847656 -26.085938 -11.046875 -26.390625 C -10.242188 -26.703125 -9.300781 -26.859375 -8.21875 -26.859375 Z M -8.21875 -26.859375 "/></g></g></g><g fill="#ffffff" fill-opacity="1"><g transform="translate(176.826665, 162.982512)"><g><path d="M 0 -3.984375 L -29.75 -3.984375 L -29.75 -8.015625 L 0 -8.015625 Z M 0 -3.984375 "/></g></g></g><g fill="#ffffff" fill-opacity="1"><g transform="translate(176.826665, 150.971698)"><g><path d="M -15.015625 -31.5625 C -11.898438 -31.5625 -9.171875 -30.96875 -6.828125 -29.78125 C -4.492188 -28.59375 -2.703125 -26.882812 -1.453125 -24.65625 C -0.203125 -22.4375 0.421875 -19.8125 0.421875 -16.78125 C 0.421875 -13.726562 -0.195312 -11.09375 -1.4375 -8.875 C -2.675781 -6.65625 -4.46875 -4.960938 -6.8125 -3.796875 C -9.15625 -2.628906 -11.890625 -2.046875 -15.015625 -2.046875 C -19.765625 -2.046875 -23.476562 -3.347656 -26.15625 -5.953125 C -28.84375 -8.554688 -30.1875 -12.179688 -30.1875 -16.828125 C -30.1875 -19.847656 -29.582031 -22.46875 -28.375 -24.6875 C -27.175781 -26.914062 -25.429688 -28.617188 -23.140625 -29.796875 C -20.847656 -30.972656 -18.140625 -31.5625 -15.015625 -31.5625 Z M -15.015625 -27.4375 C -18.710938 -27.4375 -21.613281 -26.507812 -23.71875 -24.65625 C -25.832031 -22.8125 -26.890625 -20.203125 -26.890625 -16.828125 C -26.890625 -13.421875 -25.847656 -10.785156 -23.765625 -8.921875 C -21.679688 -7.066406 -18.765625 -6.140625 -15.015625 -6.140625 C -11.285156 -6.140625 -8.320312 -7.078125 -6.125 -8.953125 C -3.9375 -10.835938 -2.84375 -13.445312 -2.84375 -16.78125 C -2.84375 -20.21875 -3.898438 -22.851562 -6.015625 -24.6875 C -8.140625 -26.519531 -11.140625 -27.4375 -15.015625 -27.4375 Z M -15.015625 -27.4375 "/></g></g></g><g fill="#ffffff" fill-opacity="1"><g transform="translate(176.826665, 117.345652)"><g><path d="M 0 -22.84375 L -25.328125 -6.921875 L -23.28125 -7.03125 L -19.765625 -7.140625 L 0 -7.140625 L 0 -3.546875 L -29.75 -3.546875 L -29.75 -8.234375 L -4.25 -24.3125 C -7 -24.144531 -8.992188 -24.0625 -10.234375 -24.0625 L -29.75 -24.0625 L -29.75 -27.703125 L 0 -27.703125 Z M 0 -22.84375 "/></g></g></g><g fill="#ffffff" fill-opacity="1"><g transform="translate(176.826665, 86.125989)"><g><path d="M -8.21875 -26.859375 C -5.46875 -26.859375 -3.335938 -25.78125 -1.828125 -23.625 C -0.328125 -21.476562 0.421875 -18.457031 0.421875 -14.5625 C 0.421875 -7.3125 -2.097656 -3.113281 -7.140625 -1.96875 L -7.921875 -5.875 C -6.128906 -6.320312 -4.8125 -7.273438 -3.96875 -8.734375 C -3.132812 -10.203125 -2.71875 -12.195312 -2.71875 -14.71875 C -2.71875 -17.320312 -3.164062 -19.328125 -4.0625 -20.734375 C -4.957031 -22.148438 -6.269531 -22.859375 -8 -22.859375 C -8.96875 -22.859375 -9.753906 -22.632812 -10.359375 -22.1875 C -10.960938 -21.75 -11.460938 -21.128906 -11.859375 -20.328125 C -12.253906 -19.523438 -12.582031 -18.566406 -12.84375 -17.453125 C -13.113281 -16.347656 -13.40625 -15.117188 -13.71875 -13.765625 C -14.238281 -11.410156 -14.757812 -9.625 -15.28125 -8.40625 C -15.800781 -7.195312 -16.378906 -6.238281 -17.015625 -5.53125 C -17.660156 -4.820312 -18.410156 -4.28125 -19.265625 -3.90625 C -20.128906 -3.539062 -21.117188 -3.359375 -22.234375 -3.359375 C -24.773438 -3.359375 -26.734375 -4.332031 -28.109375 -6.28125 C -29.492188 -8.226562 -30.1875 -11.019531 -30.1875 -14.65625 C -30.1875 -18.03125 -29.664062 -20.609375 -28.625 -22.390625 C -27.59375 -24.179688 -25.832031 -25.4375 -23.34375 -26.15625 L -22.65625 -22.1875 C -24.226562 -21.75 -25.367188 -20.914062 -26.078125 -19.6875 C -26.785156 -18.46875 -27.140625 -16.773438 -27.140625 -14.609375 C -27.140625 -12.234375 -26.742188 -10.414062 -25.953125 -9.15625 C -25.171875 -7.90625 -24 -7.28125 -22.4375 -7.28125 C -21.519531 -7.28125 -20.765625 -7.519531 -20.171875 -8 C -19.578125 -8.488281 -19.070312 -9.191406 -18.65625 -10.109375 C -18.238281 -11.023438 -17.726562 -12.847656 -17.125 -15.578125 C -16.90625 -16.492188 -16.6875 -17.40625 -16.46875 -18.3125 C -16.257812 -19.21875 -16 -20.085938 -15.6875 -20.921875 C -15.382812 -21.753906 -15.03125 -22.53125 -14.625 -23.25 C -14.21875 -23.976562 -13.71875 -24.609375 -13.125 -25.140625 C -12.539062 -25.671875 -11.847656 -26.085938 -11.046875 -26.390625 C -10.242188 -26.703125 -9.300781 -26.859375 -8.21875 -26.859375 Z M -8.21875 -26.859375 "/></g></g></g></svg>