<svg xmlns="http://www.w3.org/2000/svg" xmlns:xlink="http://www.w3.org/1999/xlink" width="500" zoomAndPan="magnify" viewBox="0 0 375 374.999991" height="500" preserveAspectRatio="xMidYMid meet" version="1.0"><defs><g/></defs><g fill="#fd7702" fill-opacity="1"><g transform="translate(103.475557, 110.402339)"><g><path d="M 52.78125 -27.484375 C 52.78125 -21.921875 51.695312 -17.054688 49.53125 -12.890625 C 47.363281 -8.734375 44.289062 -5.546875 40.3125 -3.328125 C 36.34375 -1.109375 31.757812 0 26.5625 0 L 6.421875 0 L 6.421875 -53.84375 L 24.234375 -53.84375 C 33.347656 -53.84375 40.382812 -51.554688 45.34375 -46.984375 C 50.300781 -42.410156 52.78125 -35.910156 52.78125 -27.484375 Z M 45.4375 -27.484375 C 45.4375 -34.148438 43.609375 -39.234375 39.953125 -42.734375 C 36.296875 -46.242188 31.003906 -48 24.078125 -48 L 13.71875 -48 L 13.71875 -5.84375 L 25.71875 -5.84375 C 29.664062 -5.84375 33.132812 -6.707031 36.125 -8.4375 C 39.125 -10.175781 41.425781 -12.675781 43.03125 -15.9375 C 44.632812 -19.195312 45.4375 -23.046875 45.4375 -27.484375 Z M 45.4375 -27.484375 "/></g></g></g><g fill="#fd7702" fill-opacity="1"><g transform="translate(159.99621, 110.402339)"><g><path d="M 6.421875 0 L 6.421875 -53.84375 L 47.265625 -53.84375 L 47.265625 -47.890625 L 13.71875 -47.890625 L 13.71875 -30.609375 L 44.984375 -30.609375 L 44.984375 -24.71875 L 13.71875 -24.71875 L 13.71875 -5.96875 L 48.84375 -5.96875 L 48.84375 0 Z M 6.421875 0 "/></g></g></g><g fill="#fd7702" fill-opacity="1"><g transform="translate(212.198518, 110.402339)"><g><path d="M 29.890625 0 L 22.3125 0 L 0.34375 -53.84375 L 8.03125 -53.84375 L 22.921875 -15.9375 L 26.140625 -6.421875 L 29.34375 -15.9375 L 44.171875 -53.84375 L 51.859375 -53.84375 Z M 29.890625 0 "/></g></g></g><g fill="#fd7702" fill-opacity="1"><g transform="translate(54.379192, 206.667675)"><g><path d="M 48.078125 -15.171875 C 48.078125 -10.378906 46.332031 -6.648438 42.84375 -3.984375 C 39.351562 -1.328125 34.5 0 28.28125 0 L 6.421875 0 L 6.421875 -53.84375 L 25.984375 -53.84375 C 38.617188 -53.84375 44.9375 -49.488281 44.9375 -40.78125 C 44.9375 -37.59375 44.046875 -34.914062 42.265625 -32.75 C 40.484375 -30.582031 37.960938 -29.128906 34.703125 -28.390625 C 38.984375 -27.878906 42.28125 -26.445312 44.59375 -24.09375 C 46.914062 -21.738281 48.078125 -18.765625 48.078125 -15.171875 Z M 37.609375 -39.890625 C 37.609375 -42.796875 36.613281 -44.875 34.625 -46.125 C 32.632812 -47.375 29.753906 -48 25.984375 -48 L 13.71875 -48 L 13.71875 -30.953125 L 25.984375 -30.953125 C 29.878906 -30.953125 32.789062 -31.679688 34.71875 -33.140625 C 36.644531 -34.609375 37.609375 -36.859375 37.609375 -39.890625 Z M 40.703125 -15.75 C 40.703125 -22.09375 36.242188 -25.265625 27.328125 -25.265625 L 13.71875 -25.265625 L 13.71875 -5.84375 L 27.890625 -5.84375 C 32.347656 -5.84375 35.597656 -6.671875 37.640625 -8.328125 C 39.679688 -9.984375 40.703125 -12.457031 40.703125 -15.75 Z M 40.703125 -15.75 "/></g></g></g><g fill="#fd7702" fill-opacity="1"><g transform="translate(106.581499, 206.667675)"><g><path d="M 44.59375 0 L 38.4375 -15.75 L 13.90625 -15.75 L 7.71875 0 L 0.15625 0 L 22.125 -53.84375 L 30.421875 -53.84375 L 52.046875 0 Z M 26.171875 -48.34375 L 25.828125 -47.265625 C 25.191406 -45.148438 24.25 -42.441406 23 -39.140625 L 16.125 -21.4375 L 36.265625 -21.4375 L 29.34375 -39.203125 C 28.632812 -40.960938 27.921875 -42.953125 27.203125 -45.171875 Z M 26.171875 -48.34375 "/></g></g></g><g fill="#fd7702" fill-opacity="1"><g transform="translate(178.471634, 203.915499)"><g><path d="M 6.859375 -53.339844 L 4.15625 -53.339844 L 4.15625 16.210938 L 6.859375 16.210938 Z M 6.859375 -53.339844 "/></g></g></g><g fill="#fd7702" fill-opacity="1"><g transform="translate(203.964569, 206.667675)"><g><path d="M 57.125 -27.171875 C 57.125 -19.578125 55.210938 -13.332031 51.390625 -8.4375 C 47.578125 -3.550781 42.269531 -0.660156 35.46875 0.234375 C 36.507812 3.441406 37.875 5.757812 39.5625 7.1875 C 41.257812 8.613281 43.410156 9.328125 46.015625 9.328125 C 47.410156 9.328125 48.875 9.160156 50.40625 8.828125 L 50.40625 13.953125 C 48.039062 14.515625 45.773438 14.796875 43.609375 14.796875 C 39.753906 14.796875 36.582031 13.703125 34.09375 11.515625 C 31.613281 9.335938 29.585938 5.703125 28.015625 0.609375 C 22.972656 0.359375 18.625 -0.914062 14.96875 -3.21875 C 11.3125 -5.53125 8.519531 -8.742188 6.59375 -12.859375 C 4.664062 -16.972656 3.703125 -21.742188 3.703125 -27.171875 C 3.703125 -35.785156 6.054688 -42.515625 10.765625 -47.359375 C 15.484375 -52.210938 22.046875 -54.640625 30.453125 -54.640625 C 35.929688 -54.640625 40.679688 -53.550781 44.703125 -51.375 C 48.734375 -49.195312 51.8125 -46.03125 53.9375 -41.875 C 56.0625 -37.726562 57.125 -32.828125 57.125 -27.171875 Z M 49.6875 -27.171875 C 49.6875 -33.867188 48.007812 -39.128906 44.65625 -42.953125 C 41.300781 -46.773438 36.566406 -48.6875 30.453125 -48.6875 C 24.285156 -48.6875 19.519531 -46.800781 16.15625 -43.03125 C 12.800781 -39.257812 11.125 -33.972656 11.125 -27.171875 C 11.125 -20.421875 12.820312 -15.0625 16.21875 -11.09375 C 19.625 -7.132812 24.34375 -5.15625 30.375 -5.15625 C 36.59375 -5.15625 41.363281 -7.070312 44.6875 -10.90625 C 48.019531 -14.738281 49.6875 -20.160156 49.6875 -27.171875 Z M 49.6875 -27.171875 "/></g></g></g><g fill="#fd7702" fill-opacity="1"><g transform="translate(264.841786, 206.667675)"><g><path d="M 44.59375 0 L 38.4375 -15.75 L 13.90625 -15.75 L 7.71875 0 L 0.15625 0 L 22.125 -53.84375 L 30.421875 -53.84375 L 52.046875 0 Z M 26.171875 -48.34375 L 25.828125 -47.265625 C 25.191406 -45.148438 24.25 -42.441406 23 -39.140625 L 16.125 -21.4375 L 36.265625 -21.4375 L 29.34375 -39.203125 C 28.632812 -40.960938 27.921875 -42.953125 27.203125 -45.171875 Z M 26.171875 -48.34375 "/></g></g></g><g fill="#fd7702" fill-opacity="1"><g transform="translate(133.926291, 302.933042)"><g><path d="M 52.78125 -27.484375 C 52.78125 -21.921875 51.695312 -17.054688 49.53125 -12.890625 C 47.363281 -8.734375 44.289062 -5.546875 40.3125 -3.328125 C 36.34375 -1.109375 31.757812 0 26.5625 0 L 6.421875 0 L 6.421875 -53.84375 L 24.234375 -53.84375 C 33.347656 -53.84375 40.382812 -51.554688 45.34375 -46.984375 C 50.300781 -42.410156 52.78125 -35.910156 52.78125 -27.484375 Z M 45.4375 -27.484375 C 45.4375 -34.148438 43.609375 -39.234375 39.953125 -42.734375 C 36.296875 -46.242188 31.003906 -48 24.078125 -48 L 13.71875 -48 L 13.71875 -5.84375 L 25.71875 -5.84375 C 29.664062 -5.84375 33.132812 -6.707031 36.125 -8.4375 C 39.125 -10.175781 41.425781 -12.675781 43.03125 -15.9375 C 44.632812 -19.195312 45.4375 -23.046875 45.4375 -27.484375 Z M 45.4375 -27.484375 "/></g></g></g><g fill="#fd7702" fill-opacity="1"><g transform="translate(190.446944, 302.933042)"><g><path d="M 6.421875 0 L 6.421875 -53.84375 L 13.71875 -53.84375 L 13.71875 -5.96875 L 40.921875 -5.96875 L 40.921875 0 Z M 6.421875 0 "/></g></g></g></svg>