<svg xmlns="http://www.w3.org/2000/svg" xmlns:xlink="http://www.w3.org/1999/xlink" width="250" zoomAndPan="magnify" viewBox="0 0 187.5 374.999989" height="500" preserveAspectRatio="xMidYMid meet" version="1.0"><defs><filter x="0%" y="0%" width="100%" height="100%" id="id1"><feColorMatrix values="0 0 0 0 1 0 0 0 0 1 0 0 0 0 1 0 0 0 1 0" color-interpolation-filters="sRGB"/></filter><g/><mask id="id2"><g filter="url(#id1)"><rect x="-18.75" width="225" fill="#000000" y="-37.499999" height="449.999987" fill-opacity="0.698"/></g></mask><clipPath id="id3"><path d="M 11 0.875 L 178 0.875 L 178 354.875 L 11 354.875 Z M 11 0.875 " clip-rule="nonzero"/></clipPath><clipPath id="id4"><rect x="0" width="178" y="0" height="356"/></clipPath></defs><g mask="url(#id2)"><g transform="matrix(1, 0, 0, 1, 9, 10)"><g clip-path="url(#id4)"><g clip-path="url(#id3)"><path fill="#000000" d="M 80.25 354.875 C 144.097656 340.695312 150.964844 303.316406 155.78125 234.570312 C 144.6875 252.933594 124.515625 266.488281 91.59375 266.375 C 37.476562 266.1875 1.226562 234.730469 14.125 166.8125 C 27.128906 98.339844 124.519531 71.789062 168.785156 0.875 C 213.054688 71.789062 310.441406 98.339844 323.445312 166.8125 C 336.34375 234.730469 301.589844 266.179688 245.980469 266.375 C 213.054688 266.488281 192.886719 252.933594 181.792969 234.570312 C 186.609375 303.3125 193.476562 340.691406 257.320312 354.875 Z M 80.25 354.875 " fill-opacity="1" fill-rule="nonzero"/></g></g></g></g><g fill="#ffffff" fill-opacity="1"><g transform="translate(176.279053, 220.539031)"><g><path d="M -8.59375 -28.09375 C -5.71875 -28.09375 -3.492188 -26.96875 -1.921875 -24.71875 C -0.347656 -22.476562 0.4375 -19.316406 0.4375 -15.234375 C 0.4375 -7.648438 -2.195312 -3.253906 -7.46875 -2.046875 L -8.28125 -6.140625 C -6.414062 -6.609375 -5.039062 -7.609375 -4.15625 -9.140625 C -3.28125 -10.671875 -2.84375 -12.753906 -2.84375 -15.390625 C -2.84375 -18.117188 -3.3125 -20.222656 -4.25 -21.703125 C -5.1875 -23.179688 -6.5625 -23.921875 -8.375 -23.921875 C -9.382812 -23.921875 -10.207031 -23.6875 -10.84375 -23.21875 C -11.476562 -22.757812 -12 -22.109375 -12.40625 -21.265625 C -12.820312 -20.429688 -13.171875 -19.429688 -13.453125 -18.265625 C -13.734375 -17.097656 -14.035156 -15.8125 -14.359375 -14.40625 C -14.898438 -11.945312 -15.441406 -10.078125 -15.984375 -8.796875 C -16.535156 -7.523438 -17.144531 -6.519531 -17.8125 -5.78125 C -18.476562 -5.050781 -19.257812 -4.488281 -20.15625 -4.09375 C -21.0625 -3.707031 -22.09375 -3.515625 -23.25 -3.515625 C -25.914062 -3.515625 -27.96875 -4.53125 -29.40625 -6.5625 C -30.851562 -8.601562 -31.578125 -11.523438 -31.578125 -15.328125 C -31.578125 -18.859375 -31.035156 -21.554688 -29.953125 -23.421875 C -28.878906 -25.296875 -27.035156 -26.609375 -24.421875 -27.359375 L -23.703125 -23.21875 C -25.347656 -22.757812 -26.539062 -21.890625 -27.28125 -20.609375 C -28.03125 -19.328125 -28.40625 -17.550781 -28.40625 -15.28125 C -28.40625 -12.789062 -27.992188 -10.890625 -27.171875 -9.578125 C -26.347656 -8.273438 -25.117188 -7.625 -23.484375 -7.625 C -22.523438 -7.625 -21.734375 -7.875 -21.109375 -8.375 C -20.484375 -8.882812 -19.953125 -9.617188 -19.515625 -10.578125 C -19.078125 -11.535156 -18.539062 -13.441406 -17.90625 -16.296875 C -17.6875 -17.253906 -17.460938 -18.207031 -17.234375 -19.15625 C -17.003906 -20.101562 -16.734375 -21.007812 -16.421875 -21.875 C -16.109375 -22.75 -15.738281 -23.566406 -15.3125 -24.328125 C -14.882812 -25.085938 -14.359375 -25.742188 -13.734375 -26.296875 C -13.117188 -26.859375 -12.390625 -27.296875 -11.546875 -27.609375 C -10.710938 -27.929688 -9.726562 -28.09375 -8.59375 -28.09375 Z M -8.59375 -28.09375 "/></g></g></g><g fill="#ffffff" fill-opacity="1"><g transform="translate(176.279053, 190.368059)"><g><path d="M 0 -24.421875 L -15.015625 -12 L -11.921875 -7.921875 L 0 -7.921875 L 0 -3.703125 L -31.125 -3.703125 L -31.125 -7.921875 L -15.53125 -7.921875 L -31.125 -22.921875 L -31.125 -27.890625 L -17.609375 -14.640625 L 0 -29.65625 Z M 0 -24.421875 "/></g></g></g><g fill="#ffffff" fill-opacity="1"><g transform="translate(176.279053, 160.197087)"><g><path d="M 0 -4.171875 L -31.125 -4.171875 L -31.125 -8.390625 L 0 -8.390625 Z M 0 -4.171875 "/></g></g></g><g fill="#ffffff" fill-opacity="1"><g transform="translate(176.279053, 147.62953)"><g><path d="M 0 -3.703125 L -31.125 -3.703125 L -31.125 -7.921875 L -3.453125 -7.921875 L -3.453125 -23.65625 L 0 -23.65625 Z M 0 -3.703125 "/></g></g></g><g fill="#ffffff" fill-opacity="1"><g transform="translate(176.279053, 122.472328)"><g><path d="M 0 -3.703125 L -31.125 -3.703125 L -31.125 -7.921875 L -3.453125 -7.921875 L -3.453125 -23.65625 L 0 -23.65625 Z M 0 -3.703125 "/></g></g></g><g fill="#ffffff" fill-opacity="1"><g transform="translate(176.279053, 97.315127)"><g><path d="M -8.59375 -28.09375 C -5.71875 -28.09375 -3.492188 -26.96875 -1.921875 -24.71875 C -0.347656 -22.476562 0.4375 -19.316406 0.4375 -15.234375 C 0.4375 -7.648438 -2.195312 -3.253906 -7.46875 -2.046875 L -8.28125 -6.140625 C -6.414062 -6.609375 -5.039062 -7.609375 -4.15625 -9.140625 C -3.28125 -10.671875 -2.84375 -12.753906 -2.84375 -15.390625 C -2.84375 -18.117188 -3.3125 -20.222656 -4.25 -21.703125 C -5.1875 -23.179688 -6.5625 -23.921875 -8.375 -23.921875 C -9.382812 -23.921875 -10.207031 -23.6875 -10.84375 -23.21875 C -11.476562 -22.757812 -12 -22.109375 -12.40625 -21.265625 C -12.820312 -20.429688 -13.171875 -19.429688 -13.453125 -18.265625 C -13.734375 -17.097656 -14.035156 -15.8125 -14.359375 -14.40625 C -14.898438 -11.945312 -15.441406 -10.078125 -15.984375 -8.796875 C -16.535156 -7.523438 -17.144531 -6.519531 -17.8125 -5.78125 C -18.476562 -5.050781 -19.257812 -4.488281 -20.15625 -4.09375 C -21.0625 -3.707031 -22.09375 -3.515625 -23.25 -3.515625 C -25.914062 -3.515625 -27.96875 -4.53125 -29.40625 -6.5625 C -30.851562 -8.601562 -31.578125 -11.523438 -31.578125 -15.328125 C -31.578125 -18.859375 -31.035156 -21.554688 -29.953125 -23.421875 C -28.878906 -25.296875 -27.035156 -26.609375 -24.421875 -27.359375 L -23.703125 -23.21875 C -25.347656 -22.757812 -26.539062 -21.890625 -27.28125 -20.609375 C -28.03125 -19.328125 -28.40625 -17.550781 -28.40625 -15.28125 C -28.40625 -12.789062 -27.992188 -10.890625 -27.171875 -9.578125 C -26.347656 -8.273438 -25.117188 -7.625 -23.484375 -7.625 C -22.523438 -7.625 -21.734375 -7.875 -21.109375 -8.375 C -20.484375 -8.882812 -19.953125 -9.617188 -19.515625 -10.578125 C -19.078125 -11.535156 -18.539062 -13.441406 -17.90625 -16.296875 C -17.6875 -17.253906 -17.460938 -18.207031 -17.234375 -19.15625 C -17.003906 -20.101562 -16.734375 -21.007812 -16.421875 -21.875 C -16.109375 -22.75 -15.738281 -23.566406 -15.3125 -24.328125 C -14.882812 -25.085938 -14.359375 -25.742188 -13.734375 -26.296875 C -13.117188 -26.859375 -12.390625 -27.296875 -11.546875 -27.609375 C -10.710938 -27.929688 -9.726562 -28.09375 -8.59375 -28.09375 Z M -8.59375 -28.09375 "/></g></g></g></svg>